<svg xmlns="http://www.w3.org/2000/svg" width="218" height="180"><title>Automated</title><desc>Created with Sketch.</desc><g fill="none"><g fill-rule="nonzero"><g transform="translate(-277 -2070) translate(277 2070)"><g opacity=".3"><path id="Shape" fill="#97C1FF" d="M208.92 68.37c-2.7-18.35-16.54-33.07-34.7-36.9-6.3-1.33-11.96-4.73-16.1-9.65C144.8 6.1 123.78-.8 103.74 3.97 83.72 8.75 68.08 24.4 63.3 44.44c-2.16 8.73-8.02 16.1-16.06 20.17-20.9 10.86-31.36 39.04-12.32 65.5 2.5 3.14 5.7 5.63 9.37 7.24 6.73 3.34 12 9.06 14.75 16.06 4.82 11.8 14.74 20.78 26.96 24.4s25.45 1.52 35.93-5.76c7.15-5 16.14-6.57 24.57-4.32 14.33 3.9 29.64.06 40.47-10.1 10.82-10.16 15.6-25.2 12.64-39.75-1.37-7.17-.05-14.6 3.7-20.85 5.1-8.63 7.07-18.74 5.62-28.65z"/><path id="Shape" fill="#EEF6FF" d="M95.95 23.13c.95-6.78-3.4-13.17-10.07-14.76-6.66-1.6-13.44 2.14-15.65 8.62-2.13-1.7-5.04-2.02-7.5-.84-2.45 1.18-4 3.66-4.02 6.38v.6c-4.93 1.68-7.93 6.7-7.05 11.84s5.37 8.88 10.58 8.82h30.25c5.2.03 9.66-3.72 10.53-8.85.87-5.13-2.12-10.13-7.05-11.8v-.02z"/><path id="Shape" fill="#5CBEFF" d="M92.48 40.25H62.26c-5.2 0-9.62-3.74-10.5-8.86-.53 3.08.34 6.25 2.36 8.64 2.03 2.4 5 3.76 8.14 3.75h30.22c3.14 0 6.13-1.37 8.15-3.77 2.03-2.4 2.9-5.57 2.36-8.67-.88 5.13-5.32 8.9-10.52 8.9z"/><path id="Shape" fill="#fff" d="M58.74 26.7v-.62c0-2.72 1.57-5.2 4.02-6.37 2.46-1.18 5.37-.85 7.5.83 2.27-6.4 9-10.06 15.6-8.48s10.96 7.9 10.1 14.62c3.67 1.27 6.36 4.43 7.02 8.26.9-5.13-2.1-10.15-7.03-11.8.95-6.78-3.4-13.17-10.07-14.76-6.66-1.6-13.44 2.14-15.65 8.62-2.13-1.7-5.04-2.02-7.5-.84-2.45 1.18-4 3.66-4.02 6.38v.6c-4.93 1.67-7.9 6.7-7 11.8.67-3.82 3.36-7 7.04-8.25z"/><path id="Shape" fill="#6D6DAA" d="M92.48 45.26H62.26c-5.7.03-10.66-3.94-11.87-9.52s1.64-11.24 6.85-13.58c.1-2.9 1.68-5.55 4.17-7.04s5.57-1.6 8.18-.34c3.1-6.13 10.02-9.3 16.7-7.66 6.66 1.64 11.3 7.67 11.2 14.54v.5c5.22 2.34 8.08 8 6.87 13.6-1.22 5.57-6.18 9.54-11.9 9.5zM65.82 16.93c-1.5 0-2.92.6-3.98 1.64-1.06 1.05-1.65 2.48-1.66 3.97v.5c.04.64-.36 1.25-.98 1.46-4.14 1.52-6.6 5.78-5.86 10.12.75 4.34 4.5 7.54 8.9 7.6h30.24c4.5 0 8.33-3.22 9.06-7.65s-1.85-8.73-6.1-10.15c-.66-.23-1.08-.88-1-1.57.05-.43.08-.86.08-1.3.14-5.82-3.98-10.87-9.7-11.9-5.73-1.04-11.36 2.25-13.26 7.76-.17.45-.53.8-1 .9-.45.14-.93.04-1.3-.26-1-.74-2.2-1.13-3.44-1.1z"/><path id="Shape" fill="#EEF6FF" d="M92.48 22.54c1.2 0 2.37.2 3.5.6"/><path id="Shape" fill="#6D6DAA" d="M95.98 24.6c-.17 0-.33-.02-.5-.07-.94-.32-1.94-.5-2.94-.5-.82 0-1.48-.66-1.48-1.47s.66-1.48 1.48-1.48c1.36 0 2.7.22 3.98.66.7.25 1.1.96.95 1.67s-.77 1.23-1.5 1.2z"/><path id="Shape" fill="#EEF6FF" d="M58.72 23.13c1.14-.4 2.33-.6 3.53-.6"/><path id="Shape" fill="#6D6DAA" d="M58.72 24.6c-.7 0-1.32-.52-1.43-1.22-.14-.7.27-1.4.94-1.64 1.3-.45 2.64-.68 4-.67.82 0 1.48.66 1.48 1.47s-.66 1.48-1.47 1.48c-1.04 0-2.06.17-3.04.5-.15.06-.3.1-.48.1z"/><path id="Shape" fill="#EEF6FF" d="M70.2 16.95c.8.62 1.48 1.4 1.96 2.32"/><path id="Shape" fill="#6D6DAA" d="M72.16 20.74c-.54 0-1.05-.3-1.3-.78-.37-.7-.87-1.33-1.5-1.83-.5-.27-.78-.8-.75-1.38s.4-1.07.93-1.3c.53-.2 1.14-.08 1.56.3.96.76 1.75 1.7 2.32 2.8.25.44.25 1 0 1.45s-.74.73-1.26.74z"/><path id="Shape" fill="#EEF6FF" d="M39.7 114.6c-1.5 0-3 .25-4.42.74M81.95 115.34c-1.43-.5-2.92-.74-4.43-.73M67.63 107.63c-1 .8-1.83 1.8-2.4 2.95"/><g><path id="Shape" fill="#fff" d="M89.95 149.78v-.75c0-3.42-1.94-6.54-5.02-8.02-3.08-1.48-6.74-1.05-9.4 1.1-2.97-7.82-11.3-12.22-19.42-10.27-8.13 1.94-13.56 9.62-12.67 17.94-4.63 1.56-8.03 5.52-8.86 10.33-1.12-6.44 2.65-12.72 8.86-14.76-.9-8.34 4.53-16.06 12.7-18 8.15-1.95 16.5 2.48 19.44 10.33 2.66-2.15 6.32-2.57 9.4-1.1 3.1 1.5 5.04 4.62 5.02 8.04v.76c6.15 2.07 9.87 8.35 8.72 14.75-.8-4.78-4.18-8.74-8.77-10.3z"/><path id="Shape" fill="#EEF6FF" d="M43.43 145.34c-.9-8.34 4.53-16.06 12.7-18 8.15-1.95 16.5 2.48 19.44 10.33 2.67-2.15 6.32-2.57 9.4-1.1 3.1 1.5 5.04 4.62 5.02 8.04v.76c6.1 2.15 9.77 8.4 8.67 14.77-1.1 6.38-6.63 11.04-13.1 11.03H47.7c-6.46-.04-11.95-4.73-13-11.1-1.07-6.38 2.62-12.6 8.73-14.72z"/><path id="Shape" fill="#5CBEFF" d="M47.7 166.74h37.83c6.5.02 12.08-4.68 13.15-11.1.66 3.87-.42 7.83-2.96 10.83-2.53 3-6.26 4.7-10.2 4.7H47.7c-3.9 0-7.62-1.73-10.15-4.72-2.52-3-3.6-6.95-2.93-10.8 1.06 6.4 6.6 11.08 13.08 11.1z"/><path id="Shape" fill="#6D6DAA" d="M85.53 172.64H47.7c-7 0-13.03-4.9-14.46-11.74-1.42-6.85 2.15-13.76 8.56-16.54v-.86c.04-8.4 5.85-15.7 14.03-17.6 8.2-1.9 16.62 2.06 20.37 9.6 1.5-.8 3.17-1.22 4.86-1.22 5.62 0 10.2 4.48 10.33 10.1 6.4 2.8 9.94 9.7 8.52 16.52-1.43 6.83-7.45 11.73-14.43 11.74h.03zm-25.55-44.26c-4.03-.02-7.9 1.57-10.75 4.4-2.85 2.84-4.46 6.7-4.48 10.72 0 .56.04 1.1.1 1.67.1.7-.33 1.34-.98 1.56-5.44 1.88-8.73 7.42-7.78 13.1.94 5.68 5.85 9.85 11.6 9.86h37.83c5.75-.02 10.65-4.16 11.62-9.82.97-5.66-2.28-11.2-7.7-13.12-.6-.22-1.02-.82-.98-1.48v-.63c.02-2.85-1.6-5.46-4.18-6.7-2.6-1.22-5.64-.87-7.85.93-.38.25-.84.3-1.26.17-.43-.13-.77-.45-.94-.86-2.26-5.93-7.94-9.84-14.28-9.82zM43.38 146.82c-.73 0-1.36-.5-1.48-1.23-.12-.73.3-1.43 1-1.66 1.54-.53 3.17-.8 4.8-.8.82 0 1.48.65 1.48 1.47s-.66 1.48-1.47 1.48c-1.32 0-2.64.22-3.9.65-.13.05-.27.08-.42.1zM89.95 146.82c-.17 0-.34-.03-.5-.1-1.25-.42-2.58-.64-3.92-.64-.8 0-1.47-.66-1.47-1.47 0-.8.66-1.47 1.47-1.47 1.67 0 3.33.28 4.9.83.67.24 1.07.93.95 1.63-.1.7-.72 1.2-1.43 1.22zM73.22 141.98c-.52 0-1-.27-1.26-.7-.26-.45-.28-1-.04-1.45.7-1.3 1.65-2.46 2.8-3.37.66-.5 1.6-.38 2.1.26s.37 1.57-.27 2.07c-.84.64-1.53 1.46-2.02 2.4-.26.48-.77.78-1.3.78z"/></g><path id="Shape" fill="#EEF6FF" d="M163.24 29.53c-.63-4.52 2.28-8.77 6.72-9.83 4.43-1.06 8.95 1.43 10.43 5.75 1.4-1.14 3.35-1.35 5-.57 1.63.8 2.67 2.45 2.67 4.27v.4c3.27 1.12 5.25 4.44 4.68 7.85-.57 3.4-3.52 5.9-6.98 5.9h-20.2c-3.48 0-6.44-2.5-7-5.9-.6-3.43 1.4-6.76 4.67-7.88z"/><path id="Shape" fill="#fff" d="M163.24 32.48c-.63-4.5 2.28-8.77 6.72-9.83 4.43-1.06 8.95 1.43 10.43 5.75 1.4-1.13 3.35-1.35 5-.56s2.67 2.44 2.67 4.26v.4c2.34.82 4.08 2.8 4.6 5.22.77-3.5-1.2-7-4.6-8.17v-.4c0-1.82-1.04-3.47-2.68-4.26-1.65-.8-3.6-.6-5 .55-1.5-4.32-6-6.8-10.44-5.75-4.44 1.06-7.35 5.3-6.72 9.83-3.4 1.14-5.4 4.68-4.63 8.2.53-2.44 2.28-4.43 4.64-5.24z"/><path id="Shape" fill="#5CBEFF" d="M185.77 40.35h-20.2c-3.35 0-6.25-2.32-6.96-5.58-.1.5-.15.98-.15 1.48 0 1.88.75 3.68 2.08 5 1.34 1.34 3.15 2.08 5.03 2.08h20.2c1.9 0 3.7-.74 5.03-2.07 1.33-1.33 2.08-3.13 2.08-5 0-.5-.05-1-.16-1.5-.72 3.28-3.6 5.6-6.95 5.6z"/><path id="Shape" fill="#6D6DAA" d="M185.77 44.77h-20.2c-4.02.06-7.53-2.67-8.45-6.56-.93-3.9.98-7.9 4.6-9.65-.06-4.72 3.1-8.86 7.65-10.08 4.55-1.22 9.35.8 11.66 4.9 1.82-.7 3.87-.53 5.54.5 1.66 1 2.76 2.75 2.95 4.7 3.6 1.73 5.5 5.74 4.6 9.64-.93 3.9-4.42 6.63-8.42 6.6l.07-.03zm-13.63-23.6c-4.08 0-7.38 3.3-7.38 7.38 0 .27 0 .54 0 .8.08.7-.33 1.35-1 1.57-2.6.86-4.2 3.5-3.76 6.24.46 2.72 2.84 4.7 5.6 4.67h20.17c2.75.03 5.12-1.94 5.58-4.66.46-2.7-1.1-5.35-3.72-6.23-.62-.22-1.03-.82-1-1.48v-.28c.02-1.26-.7-2.4-1.82-2.97s-2.47-.4-3.46.4c-.36.3-.85.4-1.3.27-.46-.13-.83-.46-1-.9-1.08-2.9-3.87-4.83-6.98-4.8h.08z"/><path id="Shape" fill="#EEF6FF" d="M165.56 29.14c-.8 0-1.58.12-2.33.38"/><path id="Shape" fill="#6D6DAA" d="M163.23 31c-.73.02-1.36-.5-1.5-1.22-.1-.72.32-1.42 1-1.65.92-.3 1.87-.47 2.83-.47.8 0 1.47.66 1.47 1.48s-.66 1.47-1.47 1.47c-.63 0-1.25.12-1.85.32-.14.06-.3.1-.47.1z"/><path id="Shape" fill="#EEF6FF" d="M188.06 29.53c-.76-.26-1.55-.4-2.35-.4"/><path id="Shape" fill="#6D6DAA" d="M188.06 31c-.17 0-.33-.02-.5-.08-.6-.2-1.22-.3-1.85-.3-.8 0-1.46-.67-1.46-1.48s.66-1.48 1.47-1.48c.98 0 1.93.16 2.84.47.67.25 1.08.93.96 1.64s-.73 1.22-1.44 1.23z"/><path id="Shape" fill="#EEF6FF" d="M180.4 25.42c-.5.4-.95.9-1.27 1.47"/><path id="Shape" fill="#6D6DAA" d="M179.13 28.43c-.52 0-1-.28-1.26-.72-.27-.43-.28-.98-.04-1.44.4-.8 1-1.48 1.68-2.02.43-.33 1-.4 1.5-.2.48.2.83.64.9 1.17.08.53-.14 1.06-.56 1.38-.36.3-.66.65-.88 1.07-.26.5-.77.8-1.33.78z"/><path id="Shape" fill="#fff" d="M202.75 96.9c-.2 0-.38-.04-.56-.12-.2-.06-.36-.17-.5-.3-.13-.15-.24-.3-.32-.5-.07-.17-.1-.36-.1-.55 0-.4.15-.77.42-1.05.43-.43 1.06-.55 1.62-.32.55.23.9.77.9 1.37 0 .2-.03.38-.1.56-.1.17-.2.33-.32.47-.28.28-.66.43-1.05.43zM199.8 102.8h-8.85c-.82 0-1.48-.66-1.48-1.47 0-.82.66-1.48 1.48-1.48h8.85c.82 0 1.48.66 1.48 1.48 0 .8-.66 1.47-1.48 1.47zM196.85 96.9h-10.33c-.8 0-1.47-.66-1.47-1.47s.66-1.48 1.47-1.48h10.33c.82 0 1.48.66 1.48 1.48s-.66 1.47-1.48 1.47zM185.05 102.8h-2.95c-.82 0-1.48-.66-1.48-1.47 0-.82.66-1.48 1.48-1.48h2.95c.8 0 1.47.66 1.47 1.48 0 .8-.66 1.47-1.47 1.47zM196.85 108.7h-11.8c-.82 0-1.48-.66-1.48-1.47 0-.82.66-1.48 1.48-1.48h11.8c.82 0 1.48.66 1.48 1.48 0 .8-.66 1.47-1.48 1.47zM41.18 89.53c-.4 0-.77-.16-1.03-.45-.14-.13-.26-.3-.33-.47-.16-.35-.16-.75 0-1.1.07-.2.18-.36.33-.5.14-.13.3-.24.47-.32.55-.23 1.2-.1 1.6.32.28.28.44.66.44 1.05 0 .2-.04.38-.1.56-.08.2-.2.35-.33.48-.13.14-.3.26-.47.33-.2.08-.38.12-.58.13zM42.66 83.62H39.7c-.8 0-1.47-.66-1.47-1.47 0-.82.66-1.48 1.48-1.48h2.96c.8 0 1.47.66 1.47 1.48 0 .8-.66 1.47-1.47 1.47zM47.08 77.72H32.33c-.82 0-1.48-.66-1.48-1.47s.66-1.48 1.48-1.48h14.75c.82 0 1.48.66 1.48 1.48s-.66 1.47-1.48 1.47zM33.8 83.62h-5.9c-.8 0-1.47-.66-1.47-1.47 0-.82.66-1.48 1.47-1.48h5.9c.82 0 1.48.66 1.48 1.48 0 .8-.66 1.47-1.48 1.47zM35.28 89.53h-11.8c-.82 0-1.48-.67-1.48-1.48 0-.82.66-1.48 1.48-1.48h11.8c.8 0 1.47.66 1.47 1.48s-.66 1.48-1.47 1.48z"/><path id="Shape" fill="#5CBEFF" d="M144.12 135.26c0-.26-.12-.56-.16-.84 0 .3-.1.58-.14.87l.3-.04z"/></g><g><path id="Shape" fill="#96D7FF" d="M204.22 2.04c.8 2.6 2.83 4.65 5.44 5.45 2.73.9 2.73 1.8 0 2.72-2.6.8-4.65 2.83-5.44 5.44-.9 2.73-1.82 2.73-2.73 0-.8-2.6-2.85-4.65-5.46-5.44-2.72-.9-2.72-1.82 0-2.73 2.6-.8 4.65-2.85 5.45-5.46.9-2.72 1.8-2.72 2.72 0z"/><path id="Shape" fill="#C9C1F5" d="M26.8 45.36c.54 1.74 1.9 3.1 3.64 3.63 1.82.6 1.82 1.2 0 1.8-1.74.53-3.1 1.9-3.63 3.63-.6 1.82-1.2 1.82-1.8 0-.54-1.74-1.9-3.1-3.64-3.63-1.82-.6-1.82-1.2 0-1.8 1.74-.54 3.1-1.9 3.63-3.64.6-1.8 1.2-1.8 1.8 0zM212.72 150.2c.53 1.72 1.9 3.08 3.63 3.6 1.82.62 1.82 1.23 0 1.83-1.74.53-3.1 1.9-3.63 3.63-.6 1.82-1.2 1.82-1.8 0-.54-1.74-1.9-3.1-3.64-3.63-1.82-.6-1.82-1.22 0-1.82 1.74-.52 3.1-1.88 3.63-3.6.63-1.82 1.23-1.82 1.82 0z"/><path id="Shape" fill="#96D7FF" d="M6.8 128.35c.56 1.73 1.93 3.08 3.67 3.6 1.82.6 1.82 1.2 0 1.8-1.77.54-3.14 1.92-3.66 3.7-.6 1.8-1.2 1.8-1.8 0-.54-1.75-1.9-3.1-3.64-3.64-1.8-.6-1.8-1.2 0-1.8 1.74-.53 3.1-1.9 3.63-3.63.62-1.82 1.23-1.83 1.8-.02z"/></g><rect id="Rectangle-path" width="101" height="67" x="68" y="65" fill="#EEF6FF" rx="2"/><g id="Group" fill="#7690A8" opacity=".3"><path id="Shape" d="M166.34 126.67H70.66c-1.47 0-2.66-1.2-2.66-2.67v5.33c0 1.48 1.2 2.67 2.66 2.67h95.68c1.47 0 2.66-1.2 2.66-2.67V124c0 1.47-1.2 2.67-2.66 2.67z"/></g><path id="Shape" fill="#2866AE" d="M167 133H71c-2.2 0-4-1.78-4-3.98V67.98c0-2.2 1.8-3.98 4-3.98h96c2.2 0 4 1.78 4 3.98v61.04c0 2.2-1.8 3.98-4 3.98zM71 66.65c-.74 0-1.33.6-1.33 1.33v61.04c0 .73.6 1.33 1.33 1.33h96c.74 0 1.33-.6 1.33-1.33V67.98c0-.73-.6-1.33-1.33-1.33H71z"/><path id="Shape" fill="#97C1FF" d="M125.88 28.52c-3.98-3.36-9.8-3.36-13.8 0L69 66.22l43.1 36.26c4 3.36 9.8 3.36 13.8 0L169 66.22l-43.12-37.7z"/><g id="Group" fill="#7690A8" opacity=".3"><path id="Shape" d="M125.34 96.48c-3.95 3.37-9.74 3.37-13.7 0L72 62.68l-3.1 2.68 42.76 36.5c3.95 3.37 9.74 3.37 13.7 0l42.8-36.45-3.15-2.73-39.66 33.8z"/></g><path id="Shape" fill="#2866AE" d="M168.7 67c-.33 0-.64-.12-.88-.34l-42.9-37.8c-3.46-2.93-8.5-2.93-11.98 0l-42.87 37.8c-.55.38-1.3.28-1.74-.23-.44-.5-.44-1.27 0-1.78l42.9-37.8c4.47-3.8 11-3.8 15.47 0l42.85 37.8c.4.37.56.96.36 1.48-.18.52-.68.87-1.23.87h.03z"/><g id="Group" fill="#6D6DAA" opacity=".3"><path id="Shape" d="M107.46 38c-.44 0-.86-.23-1.1-.6s-.3-.83-.13-1.24c.06-.16.16-.3.28-.44.26-.25.6-.4.96-.4s.7.15.95.4c.13.13.23.28.3.44.16.4.1.88-.13 1.25s-.67.6-1.1.6zM111.47 34c-.74 0-1.33-.6-1.33-1.33 0-.36.13-.7.38-.95.13-.12.28-.22.45-.28.07-.05.15-.08.24-.1.45-.1.9.04 1.22.35.25.26.4.6.4.97 0 .35-.15.68-.4.93s-.6.4-.95.4zM115.5 38c-.75 0-1.35-.6-1.35-1.33 0-.36.14-.7.4-.95l.2-.16c.06-.05.14-.1.23-.12.5-.2 1.07-.1 1.46.28.24.26.38.6.38.95 0 .73-.6 1.33-1.33 1.33zM115.5 30c-.37 0-.7-.14-.96-.4-.12-.12-.22-.27-.3-.43-.06-.16-.1-.33-.1-.5 0-.18.04-.35.12-.5.06-.17.15-.32.28-.45l.2-.16c.07-.05.15-.1.24-.12.5-.2 1.07-.1 1.46.28.24.26.38.6.38.95 0 .17-.03.34-.1.5-.07.16-.17.3-.28.44-.26.26-.6.4-.95.4zM119.5 34c-.74 0-1.34-.6-1.34-1.33 0-.18.03-.35.1-.5.08-.17.17-.32.3-.45.24-.25.58-.4.94-.4s.7.15.95.4c.12.13.2.28.28.44.17.4.12.88-.12 1.25-.24.38-.65.6-1.1.6zM123.5 38c-.16 0-.33-.04-.5-.1-.16-.07-.3-.17-.44-.3-.25-.24-.4-.58-.38-.93 0-.18.03-.35.1-.5.06-.17.16-.32.28-.45.26-.25.6-.4.95-.4.37 0 .7.15.96.4.13.13.22.28.28.44.2.5.1 1.07-.28 1.45-.13.13-.28.23-.44.3-.16.06-.33.1-.5.1zM123.5 30c-.16 0-.33-.04-.5-.1-.16-.07-.3-.17-.44-.3-.25-.24-.4-.58-.38-.93 0-.36.13-.7.38-.95.26-.25.6-.4.95-.4.37 0 .7.15.96.4.25.25.4.6.4.95s-.15.7-.4.94c-.13.13-.28.23-.44.3-.16.06-.33.1-.5.1zM127.53 34c-.18 0-.35-.04-.5-.1-.17-.07-.32-.17-.45-.3-.25-.24-.4-.58-.4-.93 0-.18.04-.35.12-.5.06-.17.16-.32.28-.45.3-.33.77-.47 1.22-.4h.24l.24.15.2.16c.12.12.2.27.28.44.2.5.1 1.07-.28 1.45-.13.12-.28.2-.44.28-.16.1-.33.17-.5.2zM131.54 38c-.17 0-.35-.04-.5-.1-.17-.07-.32-.17-.45-.3-.26-.24-.4-.58-.4-.93 0-.55.33-1.03.83-1.24.5-.2 1.08-.1 1.46.3.24.24.38.58.38.94 0 .35-.14.7-.4.94-.12.13-.27.23-.43.3-.16.06-.34.1-.5.1zM99.43 46c-.17 0-.35-.04-.5-.1-.17-.07-.32-.17-.45-.3-.25-.24-.4-.58-.38-.93 0-.36.13-.7.38-.95.13-.12.28-.2.44-.28.5-.2 1.08-.1 1.46.28.25.26.4.6.4.95 0 .73-.6 1.33-1.35 1.33zM103.45 42c-.18 0-.35-.04-.5-.1-.18-.07-.32-.17-.45-.3-.25-.24-.4-.58-.4-.93 0-.74.6-1.34 1.35-1.34s1.33.6 1.33 1.34c0 .17-.03.34-.1.5-.07.17-.17.3-.28.44-.26.26-.6.4-.95.4zM107.46 46c-.74 0-1.34-.6-1.34-1.33 0-.74.6-1.34 1.34-1.34.74 0 1.34.6 1.34 1.34 0 .73-.6 1.33-1.34 1.33zM111.47 42c-.74 0-1.33-.6-1.33-1.33 0-.74.6-1.34 1.33-1.34s1.34.6 1.34 1.34c0 .73-.6 1.33-1.33 1.33zM115.5 46c-.75 0-1.35-.6-1.35-1.33 0-.36.14-.7.4-.95l.2-.16c.06-.05.14-.1.23-.12.5-.2 1.07-.1 1.46.28.24.26.38.6.38.95 0 .73-.6 1.33-1.33 1.33zM119.5 42c-.74 0-1.34-.6-1.34-1.33 0-.18.03-.35.1-.5.08-.17.17-.32.3-.45.24-.25.58-.4.94-.4s.7.15.95.4c.12.13.2.28.28.44.17.4.12.88-.12 1.25-.24.38-.65.6-1.1.6zM123.5 46c-.16 0-.33-.04-.5-.1-.16-.07-.3-.17-.44-.3-.25-.24-.4-.58-.38-.93 0-.36.13-.7.38-.95s.6-.4.95-.4c.37 0 .7.15.96.4s.4.6.4.95-.15.7-.4.94c-.13.13-.28.23-.44.3-.16.06-.33.1-.5.1zM127.53 42c-.18 0-.35-.04-.5-.1-.17-.07-.32-.17-.45-.3-.25-.24-.4-.58-.4-.93 0-.74.6-1.34 1.35-1.34s1.33.6 1.33 1.34c0 .35-.13.7-.38.94-.13.13-.28.23-.44.3-.16.06-.34.1-.5.1zM131.54 46c-.17 0-.35-.04-.5-.1-.17-.07-.32-.17-.45-.3-.26-.24-.4-.58-.4-.93 0-.18.03-.35.1-.5.08-.17.17-.32.3-.45.3-.33.76-.47 1.2-.4l.25.1c.08.02.17.06.24.1l.2.17c.1.12.2.27.27.43.2.5.1 1.07-.28 1.46-.14.1-.3.2-.45.27-.16.07-.33.12-.5.13zM135.55 42c-.17 0-.34-.04-.5-.1-.17-.07-.32-.17-.45-.3-.12-.12-.22-.27-.3-.43-.05-.16-.1-.33-.08-.5 0-.36.13-.7.38-.95.32-.33.78-.47 1.22-.4l.24.1c.1.02.17.06.24.1l.2.17c.13.12.22.27.28.43.2.42.14.9-.1 1.27-.25.37-.67.6-1.13.6zM139.57 46c-.18 0-.35-.04-.5-.1-.17-.07-.32-.17-.45-.3-.25-.24-.4-.58-.4-.93 0-.18.05-.35.12-.5.06-.17.16-.32.28-.45.12-.12.27-.22.44-.28.24-.1.5-.15.77-.1l.25.07c.08.04.16.08.24.13l.2.16c.12.12.22.27.28.43.2.5.1 1.07-.28 1.46-.13.1-.28.2-.44.27-.16.07-.34.12-.5.13zM91.4 54c-.35 0-.7-.14-.94-.4-.12-.12-.22-.27-.3-.43-.06-.16-.1-.33-.1-.5 0-.18.04-.35.1-.5.08-.17.18-.32.3-.45.12-.12.27-.22.44-.28.24-.1.5-.13.76-.08.1 0 .17.04.25.08.1.03.17.07.24.12l.22.16c.1.13.2.28.28.44.14.32.14.7 0 1-.07.17-.17.32-.28.45-.26.26-.6.4-.95.4zM95.42 50c-.36 0-.7-.15-.95-.4s-.4-.58-.4-.93c0-.18.04-.35.12-.5.06-.17.15-.32.27-.45.25-.25.6-.4.95-.4s.7.15.95.4c.12.13.2.28.28.44.2.5.1 1.06-.28 1.44-.13.13-.28.23-.44.3-.16.07-.34.1-.5.1zM99.43 54c-.74 0-1.34-.6-1.34-1.33 0-.36.13-.7.38-.95.13-.12.28-.2.44-.28.5-.2 1.08-.1 1.46.28.25.26.4.6.4.95 0 .73-.6 1.33-1.35 1.33zM103.45 50c-.74 0-1.34-.6-1.34-1.33 0-.74.6-1.34 1.35-1.34s1.33.6 1.33 1.34c0 .17-.03.34-.1.5-.07.17-.17.3-.28.44-.26.26-.6.4-.95.4zM107.46 54c-.44 0-.86-.23-1.1-.6s-.3-.83-.13-1.24c.07-.16.16-.3.28-.44.26-.25.6-.4.96-.4s.7.15.95.4c.13.13.23.28.3.44.16.4.1.88-.13 1.25s-.67.6-1.1.6zM111.47 50c-.44 0-.86-.23-1.1-.6-.25-.36-.3-.83-.13-1.24.07-.16.16-.3.28-.44.25-.25.6-.4.95-.4s.7.15.95.4c.13.13.22.28.28.44.17.4.13.88-.12 1.25-.25.38-.66.6-1.1.6zM115.5 54c-.75 0-1.35-.6-1.35-1.33 0-.36.14-.7.4-.95l.2-.16c.06-.05.14-.1.23-.12.5-.2 1.07-.1 1.46.28.24.26.38.6.38.95 0 .73-.6 1.33-1.33 1.33zM119.5 50c-.74 0-1.34-.6-1.34-1.33 0-.18.03-.35.1-.5.08-.17.17-.32.3-.45.24-.25.58-.4.94-.4s.7.15.95.4c.12.13.2.28.28.44.17.4.12.88-.12 1.25-.24.38-.65.6-1.1.6zM123.5 54c-.16 0-.33-.04-.5-.1-.16-.07-.3-.16-.44-.3-.1-.12-.2-.27-.28-.43-.07-.16-.1-.33-.1-.5 0-.36.13-.7.38-.95s.6-.4.95-.4c.37 0 .7.15.96.4s.4.6.4.95c0 .17-.05.34-.12.5-.12.34-.38.6-.72.72-.16.06-.33.1-.5.1zM127.53 50c-.18 0-.35-.04-.5-.1-.17-.07-.32-.17-.45-.3-.12-.12-.22-.27-.3-.43-.06-.16-.1-.33-.1-.5 0-.36.15-.7.4-.95.3-.33.77-.47 1.22-.4l.24.1c.08.02.16.06.24.1l.2.17c.25.26.4.6.4.97-.02.17-.05.34-.12.5-.12.34-.4.6-.72.72-.16.06-.34.1-.5.1zM131.54 54c-.17 0-.35-.04-.5-.1-.17-.07-.32-.17-.45-.3-.13-.12-.23-.27-.3-.43-.07-.16-.1-.33-.1-.5 0-.18.03-.35.1-.5.07-.17.17-.32.3-.45.24-.25.58-.4.94-.4s.7.15.95.4c.1.13.2.28.27.44.14.32.14.7 0 1-.12.35-.38.6-.72.73-.16.06-.33.1-.5.1zM135.55 50c-.17 0-.35-.03-.5-.1-.17-.07-.32-.17-.45-.3-.12-.12-.22-.27-.3-.43-.1-.32-.1-.68 0-1 .1-.17.2-.32.3-.45.13-.12.28-.22.45-.28.67-.28 1.45.05 1.73.72.2.5.1 1.07-.28 1.45-.13.13-.28.23-.44.3-.16.07-.33.1-.5.1zM139.57 54c-.36 0-.7-.14-.95-.4-.12-.12-.22-.27-.28-.43-.07-.16-.1-.33-.1-.5-.02-.1-.02-.18 0-.27 0-.08.03-.16.07-.24.04-.1.08-.17.13-.24.05-.07.1-.14.16-.2.12-.12.27-.22.43-.28.25-.12.53-.16.8-.1l.25.07c.08.04.16.08.24.13l.2.16c.26.25.4.6.4.97-.02.17-.05.34-.12.5-.12.34-.4.6-.72.72-.16.06-.34.1-.5.1zM143.58 50c-.17 0-.35-.03-.5-.1-.17-.07-.32-.17-.45-.3-.12-.12-.2-.27-.3-.43-.06-.16-.1-.33-.1-.5 0-.36.15-.7.4-.95l.2-.16c.08-.05.16-.1.24-.12.08-.05.16-.08.24-.1.2-.05.36-.05.54 0 .08 0 .17.03.25.07.07.04.15.08.22.13s.15.1.2.16c.26.26.4.6.4.97 0 .17-.04.34-.1.5-.13.34-.4.6-.73.72-.17.07-.34.1-.52.1zM75.35 62c-.17 0-.35-.04-.5-.1-.17-.07-.32-.17-.45-.3-.25-.24-.4-.58-.4-.93 0-.36.15-.7.4-.95.32-.3.77-.45 1.2-.36.1 0 .18.04.26.08.1.03.17.07.24.12l.2.16c.25.26.38.6.4.95 0 .73-.6 1.33-1.35 1.33zM83.38 62c-.18 0-.35-.04-.5-.1-.17-.07-.32-.17-.45-.3-.12-.12-.2-.27-.28-.43-.15-.32-.15-.7 0-1 .06-.17.16-.32.28-.45.13-.12.28-.2.44-.28.24-.1.5-.13.76-.08.1 0 .18.04.26.08.07.03.15.07.2.12.1.05.16.1.23.16.12.13.22.28.28.44.15.32.15.7 0 1-.06.17-.15.32-.27.45-.25.26-.6.4-.95.4zM87.4 58c-.45 0-.87-.23-1.12-.6-.24-.36-.3-.83-.12-1.24.12-.34.4-.6.72-.72.24-.1.5-.13.77-.08.08 0 .17.04.25.08.08.03.16.07.23.12.07.05.15.1.2.16.13.13.23.28.3.44.07.16.1.33.1.5 0 .74-.6 1.34-1.34 1.34zM91.4 62c-.73 0-1.33-.6-1.33-1.33 0-.36.14-.7.4-.95.1-.12.26-.22.43-.28.24-.1.5-.13.76-.08.1 0 .17.04.25.08.1.03.17.07.24.12l.22.16c.24.26.38.6.38.95 0 .73-.6 1.33-1.33 1.33zM95.42 58c-.36 0-.7-.14-.95-.4-.12-.12-.2-.27-.28-.43-.1-.15-.12-.33-.12-.5 0-.74.6-1.34 1.34-1.34s1.34.6 1.34 1.34c0 .35-.14.7-.4.94-.24.26-.6.4-.94.4zM99.43 62c-.17 0-.35-.04-.5-.1-.17-.07-.32-.17-.45-.3-.25-.24-.4-.58-.38-.93 0-.18.03-.35.1-.5.12-.34.4-.6.72-.73.5-.2 1.08-.1 1.46.28.12.13.2.28.28.44.17.4.13.88-.12 1.25s-.66.6-1.1.6zM103.45 58c-.18 0-.35-.04-.5-.1-.18-.07-.32-.17-.45-.3-.25-.24-.4-.58-.4-.93 0-.74.6-1.34 1.35-1.34s1.33.6 1.33 1.34c0 .17-.03.34-.1.5-.07.17-.17.3-.28.44-.26.26-.6.4-.95.4zM107.46 62c-.44 0-.86-.23-1.1-.6s-.3-.83-.13-1.24c.07-.16.16-.3.28-.44.26-.25.6-.4.96-.4s.7.15.95.4c.13.13.22.28.3.44.16.4.1.88-.13 1.25s-.67.6-1.1.6zM111.47 58c-.44 0-.86-.23-1.1-.6-.25-.36-.3-.83-.13-1.24.07-.16.17-.3.28-.44.25-.25.6-.4.95-.4s.7.15.95.4c.12.13.22.28.28.44.17.4.13.88-.12 1.25-.25.38-.66.6-1.1.6zM115.5 62c-.37 0-.7-.14-.96-.4-.12-.12-.22-.27-.3-.43-.06-.16-.1-.33-.1-.5 0-.18.04-.35.12-.5.06-.17.15-.32.28-.45l.2-.16c.07-.05.15-.1.24-.12.5-.2 1.07-.1 1.46.28.1.13.2.28.28.44.14.32.14.7 0 1-.07.18-.17.32-.28.45-.26.26-.6.4-.95.4zM119.5 58c-.74 0-1.34-.6-1.34-1.33 0-.18.03-.35.1-.5.08-.17.17-.32.3-.45.24-.25.58-.4.94-.4s.7.15.95.4c.12.13.2.28.28.44.17.4.12.88-.12 1.25-.24.38-.65.6-1.1.6zM123.5 62c-.16 0-.33-.04-.5-.1-.16-.07-.3-.16-.44-.3-.1-.12-.2-.27-.28-.43-.14-.32-.14-.7 0-1 .07-.17.17-.32.28-.45.26-.25.6-.4.95-.4.37 0 .7.15.96.4.12.13.22.28.28.44.15.32.15.7 0 1-.12.35-.38.6-.72.73-.16.06-.33.1-.5.1zM127.53 58c-.74 0-1.34-.6-1.34-1.33-.02-.1-.02-.18 0-.27 0-.08.03-.16.07-.24.03-.1.07-.17.12-.24.04-.07.1-.14.15-.2.25-.25.6-.4.95-.4.36 0 .7.15.95.4l.16.2c.06.07.1.15.13.24.04.07.07.16.08.24.02.1.02.18 0 .27 0 .35-.13.7-.38.94-.13.13-.28.23-.44.3-.14.06-.3.1-.45.1zM131.54 62c-.17 0-.35-.04-.5-.1-.17-.07-.32-.17-.45-.3-.26-.24-.4-.58-.4-.93 0-.18.03-.35.1-.5.07-.17.17-.32.3-.45.12-.12.27-.22.43-.28.68-.28 1.46.05 1.74.72.2.5.1 1.07-.28 1.45-.14.13-.3.23-.45.3-.16.06-.34.1-.5.1zM135.55 58c-.17 0-.34-.04-.5-.1-.17-.07-.32-.17-.45-.3-.25-.24-.4-.58-.38-.93 0-.36.13-.7.38-.95.32-.33.78-.47 1.22-.4l.24.1c.1.02.17.06.24.1l.2.17c.13.12.22.27.28.43.2.5.1 1.07-.28 1.46-.13.1-.28.2-.44.27-.16.07-.33.12-.5.13zM139.57 62c-.74 0-1.34-.6-1.34-1.33 0-.36.14-.7.4-.95.1-.12.26-.22.43-.28.24-.1.5-.15.77-.1l.25.07c.08.04.16.08.24.13l.2.16c.12.12.22.27.28.43.2.5.1 1.07-.28 1.46-.13.1-.28.2-.44.27-.16.07-.34.12-.5.13zM143.58 58c-.36 0-.7-.15-.95-.4-.12-.13-.22-.27-.3-.43-.06-.16-.1-.33-.1-.5 0-.18.05-.35.12-.5.07-.17.16-.32.28-.45l.2-.16c.08-.05.16-.1.24-.12.08-.05.16-.08.24-.1.2-.05.36-.05.54 0 .08 0 .17.03.25.07.07.04.15.08.22.13s.15.1.2.16c.13.12.23.27.3.43.2.5.1 1.06-.3 1.44-.1.13-.26.23-.43.3-.17.07-.34.12-.52.13zM71.34 66c-.45 0-.86-.23-1.1-.6-.26-.36-.3-.83-.13-1.24.13-.33.4-.6.73-.72.24-.1.5-.15.78-.1l.25.07c.08.04.16.08.22.13.08.05.15.1.22.16.1.12.2.27.27.43.14.33.14.7 0 1.02-.07.16-.16.3-.28.44-.26.25-.6.4-.96.4zM75.35 70c-.17 0-.35-.04-.5-.1-.17-.07-.32-.17-.45-.3-.25-.24-.4-.58-.4-.93 0-.18.05-.35.12-.5.06-.17.16-.32.28-.45.32-.3.77-.45 1.2-.36.1 0 .18.04.26.08.1.03.17.07.24.12l.2.16c.12.13.22.28.28.44.17.4.12.88-.12 1.25s-.66.6-1.1.6zM79.36 66c-.17 0-.34-.03-.5-.1-.17-.07-.3-.17-.44-.3-.26-.24-.4-.58-.4-.93 0-.18.04-.35.1-.5.08-.17.17-.32.3-.45l.2-.16c.07-.05.15-.1.24-.12.08-.04.16-.07.25-.08.45-.1.9.05 1.2.36.14.13.23.28.3.44.06.16.1.33.1.5 0 .36-.13.7-.38.95-.26.26-.6.4-.96.4zM83.38 70c-.45 0-.86-.23-1.1-.6s-.3-.83-.13-1.24c.12-.33.38-.6.72-.72.24-.1.5-.13.76-.08.1 0 .18.04.26.08.07.03.15.07.2.12.1.05.16.1.23.16.12.13.2.28.28.44.22.5.1 1.07-.27 1.45-.13.13-.28.23-.44.3-.17.06-.35.1-.52.1zM87.4 66c-.18 0-.36-.04-.52-.1-.16-.07-.3-.17-.44-.3-.25-.24-.4-.58-.4-.93.02-.18.05-.35.12-.5.07-.17.16-.32.28-.45.13-.12.28-.22.44-.28.24-.1.5-.13.77-.08.08 0 .17.04.25.08.08.03.16.07.23.12l.2.16c.13.13.23.28.3.44.07.16.1.33.1.5 0 .74-.6 1.34-1.34 1.34zM91.4 70c-.35 0-.7-.15-.94-.4-.25-.25-.4-.58-.4-.93 0-.18.04-.35.1-.5.14-.35.4-.6.74-.73.24-.1.5-.13.76-.08.1 0 .17.04.25.08.1.03.17.07.24.12.08.05.15.1.22.16.12.13.2.28.28.44.07.16.1.33.1.5 0 .74-.6 1.34-1.33 1.34zM95.42 66c-.36 0-.7-.14-.95-.4-.12-.12-.2-.26-.28-.43-.16-.32-.16-.7 0-1 .06-.17.15-.32.27-.45.25-.25.6-.4.95-.4s.7.15.95.4c.12.13.2.28.28.44.07.16.1.33.1.5 0 .36-.13.7-.38.95-.13.13-.28.23-.44.3-.16.06-.34.1-.5.1zM99.43 70c-.74 0-1.34-.6-1.34-1.33 0-.36.13-.7.38-.95.13-.12.28-.2.44-.28.5-.2 1.08-.1 1.46.28.25.26.4.6.4.95 0 .73-.6 1.33-1.35 1.33zM103.45 66c-.18 0-.35-.04-.5-.1-.18-.07-.32-.17-.45-.3-.25-.24-.4-.58-.4-.93 0-.18.04-.35.12-.5.06-.17.16-.32.28-.45.25-.25.6-.4.95-.4s.7.15.95.4c.1.13.2.28.28.44.14.32.14.7 0 1-.07.18-.17.32-.28.45-.26.26-.6.4-.95.4zM107.46 70c-.74 0-1.34-.6-1.34-1.33 0-.74.6-1.34 1.34-1.34.74 0 1.34.6 1.34 1.34 0 .73-.6 1.33-1.34 1.33zM111.47 66c-.44 0-.86-.23-1.1-.6-.25-.36-.3-.83-.13-1.24.07-.16.17-.3.28-.44.25-.25.6-.4.95-.4s.7.15.95.4c.12.13.22.28.28.44.17.4.13.88-.12 1.25-.25.38-.66.6-1.1.6zM115.5 70c-.75 0-1.35-.6-1.35-1.33 0-.18.03-.35.1-.5.07-.17.17-.32.3-.45l.2-.16c.06-.05.14-.1.23-.12.5-.2 1.07-.1 1.46.28.1.13.2.28.28.44.17.4.12.88-.13 1.25s-.67.6-1.1.6zM119.5 66c-.74 0-1.34-.6-1.34-1.33 0-.18.03-.35.1-.5.08-.17.17-.32.3-.45.24-.25.58-.4.94-.4s.7.15.95.4c.12.13.2.28.28.44.17.4.12.88-.12 1.25s-.65.6-1.1.6zM123.5 70c-.16 0-.33-.04-.5-.1-.16-.07-.3-.17-.44-.3-.1-.12-.2-.26-.28-.43-.14-.32-.14-.7 0-1 .07-.17.16-.32.28-.45.26-.25.6-.4.95-.4.37 0 .7.15.96.4.13.13.22.28.28.44.15.32.15.7 0 1-.12.35-.38.6-.72.73-.16.06-.33.1-.5.1zM127.53 66c-.18 0-.35-.04-.5-.1-.17-.07-.32-.17-.45-.3-.12-.12-.22-.27-.3-.43-.06-.16-.1-.33-.1-.5 0-.18.04-.35.12-.5.06-.17.16-.32.28-.45.3-.33.77-.47 1.22-.4l.24.1c.08.02.16.06.24.1l.2.17c.12.12.2.27.28.43.14.33.14.7 0 1.02-.12.33-.4.6-.72.72-.16.07-.34.12-.5.13zM131.54 70c-.17 0-.35-.04-.5-.1-.17-.07-.32-.17-.45-.3-.26-.24-.4-.58-.4-.93 0-.55.33-1.04.83-1.24.5-.2 1.08-.1 1.46.3.24.24.38.58.38.94 0 .35-.14.7-.4.94-.12.13-.27.23-.43.3-.16.06-.34.1-.5.1zM135.55 66c-.17 0-.34-.04-.5-.1-.17-.07-.32-.17-.45-.3-.12-.12-.22-.26-.3-.43-.1-.32-.1-.68 0-1 .1-.17.2-.32.3-.45.32-.33.78-.47 1.22-.4l.24.1c.1.02.17.06.24.1l.2.17c.12.12.22.27.28.43.2.5.1 1.07-.28 1.46-.13.1-.28.2-.44.27-.16.07-.33.12-.5.13zM139.57 70c-.45 0-.86-.23-1.1-.6s-.3-.83-.13-1.24c.12-.33.38-.6.72-.72.24-.1.5-.15.77-.1l.25.07c.08.04.16.08.24.13l.2.16c.12.12.22.27.28.43.14.33.14.7 0 1.02-.12.33-.4.6-.72.72-.16.08-.33.13-.5.13zM143.58 66c-.17 0-.35-.03-.5-.1-.17-.07-.32-.17-.45-.3-.12-.12-.2-.27-.3-.43-.06-.16-.1-.33-.1-.5 0-.36.15-.7.4-.95l.2-.16c.08-.05.16-.1.24-.12.08-.05.16-.08.24-.1.2-.05.36-.05.54 0 .08 0 .17.03.25.07.07.04.15.08.22.13s.15.1.2.16c.26.26.4.6.4.97 0 .17-.04.34-.1.5-.13.34-.4.6-.73.72-.17.07-.34.1-.52.1zM79.36 74c-.35 0-.7-.15-.94-.4-.12-.13-.22-.27-.3-.43-.06-.16-.1-.33-.1-.5 0-.18.04-.35.1-.5.08-.17.18-.32.3-.45.25-.25.6-.4.94-.4.36 0 .7.15.96.4.1.13.2.28.28.44.2.5.1 1.06-.28 1.44-.26.25-.6.4-.96.4zM83.38 78c-.18 0-.35-.04-.5-.1-.17-.07-.32-.17-.45-.3-.25-.24-.4-.58-.4-.93 0-.18.05-.35.12-.5.12-.35.38-.6.72-.73.24-.1.5-.13.76-.08.1 0 .18.04.26.08.07.03.15.07.2.12.1.05.16.1.23.16.12.13.22.28.28.44.18.4.13.88-.1 1.25s-.68.6-1.12.6zM87.4 74c-.18 0-.36-.04-.52-.1-.16-.07-.3-.17-.44-.3-.24-.25-.38-.58-.4-.93.02-.18.05-.35.12-.5.12-.35.4-.6.72-.73.24-.1.5-.13.77-.08.08 0 .17.04.25.08.08.03.16.07.23.12.07.05.15.1.2.16.13.13.23.28.3.44.07.16.1.33.1.5 0 .74-.6 1.34-1.34 1.34zM91.4 78c-.73 0-1.33-.6-1.33-1.33 0-.36.14-.7.4-.95.1-.12.26-.22.43-.28.24-.1.5-.13.76-.08.1 0 .17.04.25.08.1.03.17.07.24.12l.22.16c.24.26.38.6.38.95 0 .73-.6 1.33-1.33 1.33zM95.42 74c-.36 0-.7-.14-.95-.4-.12-.12-.2-.26-.28-.43-.16-.32-.16-.7 0-1 .06-.17.15-.32.27-.45.25-.25.6-.4.95-.4s.7.15.95.4c.12.13.2.28.28.44.07.16.1.33.1.5 0 .36-.13.7-.38.95-.25.26-.6.4-.95.4zM99.43 78c-.17 0-.35-.04-.5-.1-.17-.07-.32-.17-.45-.3-.1-.12-.2-.26-.28-.43-.14-.32-.14-.7 0-1 .12-.35.4-.6.72-.73.5-.2 1.08-.1 1.46.28.12.13.2.28.28.44.17.4.13.88-.12 1.25s-.66.6-1.1.6zM103.45 74c-.74 0-1.34-.6-1.34-1.33 0-.18.04-.35.12-.5.06-.17.15-.32.28-.45.25-.25.6-.4.95-.4s.7.15.95.4c.12.13.2.28.28.44.14.32.14.7 0 1-.07.18-.17.32-.28.45-.26.26-.6.4-.95.4zM107.46 78c-.74 0-1.34-.6-1.34-1.33 0-.74.6-1.34 1.34-1.34.74 0 1.34.6 1.34 1.34 0 .73-.6 1.33-1.34 1.33zM111.47 74c-.44 0-.86-.23-1.1-.6-.25-.36-.3-.83-.13-1.24.07-.16.16-.3.28-.44.13-.12.28-.22.45-.28.07-.05.15-.08.24-.1.63-.13 1.26.2 1.5.8.18.4.14.88-.1 1.26-.25.38-.68.6-1.13.6zM115.5 78c-.75 0-1.35-.6-1.35-1.33 0-.18.03-.35.1-.5.07-.17.17-.32.3-.45l.2-.16c.06-.05.14-.1.23-.12.5-.2 1.07-.1 1.46.28.1.13.2.28.28.44.17.4.12.88-.13 1.25s-.67.6-1.1.6zM119.5 74c-.74 0-1.34-.6-1.34-1.33 0-.18.03-.35.1-.5.08-.17.17-.32.3-.45.24-.25.58-.4.94-.4s.7.15.95.4c.12.13.2.28.28.44.17.4.12.88-.12 1.25s-.65.6-1.1.6zM123.5 78c-.16 0-.33-.04-.5-.1-.16-.07-.3-.17-.44-.3-.1-.12-.2-.26-.28-.43-.14-.32-.14-.7 0-1 .07-.17.16-.32.28-.45.26-.25.6-.4.95-.4.37 0 .7.15.96.4.13.13.22.28.28.44.15.32.15.7 0 1-.12.35-.38.6-.72.73-.16.06-.33.1-.5.1zM127.53 74c-.18 0-.35-.04-.5-.1-.17-.07-.32-.17-.45-.3-.25-.24-.4-.58-.4-.93 0-.18.04-.35.12-.5.06-.17.16-.32.28-.45.25-.25.6-.4.95-.4s.7.15.95.4c.12.13.2.28.28.44.2.5.1 1.07-.28 1.45-.13.13-.28.23-.44.3-.16.06-.34.1-.5.1zM131.54 78c-.17 0-.35-.04-.5-.1-.17-.07-.32-.17-.45-.3-.26-.24-.4-.58-.4-.93 0-.18.03-.35.1-.5.08-.17.17-.32.3-.45.3-.33.76-.47 1.2-.4l.25.1c.08.02.17.06.24.1l.2.17c.1.12.2.27.27.43.2.5.1 1.07-.28 1.46-.14.1-.3.2-.45.27-.16.07-.33.12-.5.13zM135.55 74c-.17 0-.34-.04-.5-.1-.17-.07-.32-.17-.45-.3-.12-.12-.22-.26-.3-.43-.1-.32-.1-.68 0-1 .1-.17.2-.32.3-.45.32-.33.78-.47 1.22-.4h.24l.24.15.2.16c.13.12.22.27.28.44.22.42.2.9-.06 1.3-.25.4-.7.64-1.17.63zM139.57 78c-.36 0-.7-.14-.95-.4-.12-.12-.22-.26-.28-.43-.07-.16-.1-.33-.1-.5 0-.36.13-.7.38-.95.12-.12.27-.22.44-.28.24-.1.5-.15.77-.1l.25.07c.08.04.16.08.24.13l.2.16c.12.12.22.27.28.43.2.5.1 1.07-.28 1.46-.13.1-.28.2-.44.27-.16.07-.34.12-.5.13zM143.58 74c-.36 0-.7-.15-.95-.4-.12-.13-.22-.27-.3-.43-.06-.16-.1-.33-.1-.5 0-.18.05-.35.12-.5.07-.17.16-.32.28-.45l.2-.16c.08-.05.16-.1.24-.12.08-.05.16-.08.24-.1.2-.05.36-.05.54 0 .08 0 .17.03.25.07.07.04.15.08.22.13s.15.1.2.16c.13.12.23.27.3.43.2.5.1 1.06-.3 1.44-.1.13-.26.23-.43.3-.17.07-.34.12-.52.13zM95.42 82c-.36 0-.7-.14-.95-.4-.12-.12-.2-.26-.28-.43-.1-.15-.12-.33-.12-.5 0-.74.6-1.34 1.34-1.34s1.34.6 1.34 1.34c0 .35-.14.7-.4.94-.12.13-.27.23-.43.3-.16.06-.34.1-.5.1zM99.43 86c-.35 0-.7-.14-.95-.4-.1-.12-.2-.26-.28-.43-.07-.16-.1-.33-.1-.5 0-.36.13-.7.38-.95.13-.12.28-.2.44-.28.5-.2 1.08-.1 1.46.28.25.26.4.6.4.95 0 .73-.6 1.33-1.35 1.33zM103.45 82c-.18 0-.35-.04-.5-.1-.18-.07-.32-.17-.45-.3-.25-.24-.4-.58-.4-.93 0-.74.6-1.34 1.35-1.34s1.33.6 1.33 1.34c0 .35-.13.7-.38.94-.26.26-.6.4-.95.4zM107.46 86c-.44 0-.86-.23-1.1-.6s-.3-.83-.13-1.24c.07-.16.16-.3.28-.44.26-.25.6-.4.96-.4s.7.15.95.4c.13.13.22.28.3.44.16.4.1.88-.13 1.25s-.67.6-1.1.6zM111.47 82c-.35 0-.7-.14-.95-.4-.1-.12-.2-.26-.28-.43-.07-.16-.1-.33-.1-.5 0-.74.6-1.34 1.33-1.34s1.34.6 1.34 1.34c0 .17-.03.34-.1.5-.06.17-.16.3-.28.44-.25.26-.6.4-.95.4zM115.5 86c-.37 0-.7-.15-.96-.4-.12-.13-.22-.27-.3-.43-.06-.16-.1-.33-.1-.5 0-.18.04-.35.12-.5.06-.17.16-.32.28-.45l.2-.16c.07-.05.15-.1.24-.12.5-.2 1.07-.1 1.46.28.1.13.2.28.28.44.2.5.1 1.06-.28 1.44-.13.13-.28.23-.45.3-.17.06-.34.1-.5.1zM119.5 82c-.36 0-.7-.15-.95-.4-.12-.13-.22-.27-.3-.43-.06-.16-.1-.33-.1-.5 0-.18.04-.35.12-.5.07-.17.16-.32.28-.45.25-.25.6-.4.95-.4s.7.15.95.4c.12.13.2.28.28.44.2.5.1 1.06-.28 1.44-.13.13-.28.23-.44.3-.15.06-.32.1-.5.1zM123.5 86c-.16 0-.33-.04-.5-.1-.16-.07-.3-.17-.44-.3-.1-.12-.2-.26-.28-.43-.14-.32-.14-.7 0-1 .07-.17.16-.32.28-.45.26-.25.6-.4.95-.4.37 0 .7.15.96.4.13.13.22.28.28.44.15.32.15.7 0 1-.12.35-.38.6-.72.73-.16.06-.33.1-.5.1zM127.53 82c-.74 0-1.34-.6-1.34-1.33-.02-.18.02-.35.1-.5.06-.17.16-.32.28-.45.25-.25.6-.4.95-.4s.7.15.95.4c.12.13.2.28.28.44.2.5.1 1.07-.28 1.45-.13.13-.28.23-.44.3-.16.06-.34.1-.5.1zM131.54 86c-.17 0-.35-.04-.5-.1-.17-.07-.32-.17-.45-.3-.13-.12-.23-.27-.3-.43-.07-.16-.1-.33-.1-.5 0-.18.03-.35.1-.5.08-.17.17-.32.3-.45.24-.25.58-.4.94-.4s.7.15.95.4c.1.13.2.28.27.44.14.32.14.7 0 1-.12.35-.38.6-.72.73-.16.06-.33.1-.5.1zM135.55 82c-.17 0-.34-.04-.5-.1-.17-.07-.32-.17-.45-.3-.12-.12-.22-.26-.3-.43-.05-.16-.1-.33-.08-.5 0-.36.13-.7.38-.95.32-.33.78-.47 1.22-.4l.24.1c.1.02.17.06.24.1l.2.17c.26.25.4.6.4.97 0 .35-.15.7-.4.94-.13.13-.28.23-.44.3-.16.06-.33.1-.5.1zM139.57 86c-.18 0-.35-.04-.5-.1-.17-.07-.32-.17-.45-.3-.12-.12-.22-.26-.28-.43-.15-.32-.15-.7 0-1 .06-.17.16-.32.28-.45.12-.12.27-.22.44-.28.68-.28 1.45.04 1.74.72.2.5.1 1.07-.28 1.45-.13.13-.28.23-.44.3-.17.06-.34.1-.5.1zM143.58 82c-.17 0-.35-.03-.5-.1-.17-.07-.32-.17-.45-.3-.25-.24-.4-.58-.4-.93 0-.36.15-.7.4-.95l.2-.16c.08-.05.16-.1.24-.12.08-.05.16-.08.24-.1.2-.05.36-.05.54 0 .08 0 .17.03.25.07.07.04.15.08.22.13s.15.1.2.16c.26.26.4.6.4.97 0 .35-.14.7-.4.94-.12.13-.27.23-.43.3-.17.07-.34.1-.52.1zM103.45 90c-.74 0-1.34-.6-1.34-1.33 0-.18.04-.35.12-.5.06-.17.16-.32.28-.45.25-.25.6-.4.95-.4s.7.15.95.4c.1.13.2.28.28.44.14.32.14.7 0 1-.07.18-.17.32-.28.45-.26.26-.6.4-.95.4zM107.46 94c-.44 0-.86-.23-1.1-.6s-.3-.83-.13-1.24c.06-.16.16-.3.28-.44.26-.25.6-.4.96-.4s.7.15.95.4c.13.13.23.28.3.44.16.4.1.88-.13 1.25s-.67.6-1.1.6zM111.47 90c-.74 0-1.33-.6-1.33-1.33 0-.74.6-1.34 1.33-1.34s1.34.6 1.34 1.34c0 .73-.6 1.33-1.33 1.33zM115.5 94c-.37 0-.7-.14-.96-.4-.12-.12-.22-.27-.3-.43-.06-.16-.1-.33-.1-.5 0-.18.04-.35.12-.5.06-.18.15-.33.28-.45.12-.12.27-.22.44-.28.5-.2 1.07-.1 1.46.28.24.26.38.6.38.95 0 .17-.03.34-.1.5-.07.17-.17.3-.28.44-.26.26-.6.4-.95.4zM119.5 90c-.36 0-.7-.15-.95-.4-.12-.13-.22-.27-.3-.43-.06-.16-.1-.33-.1-.5 0-.18.04-.35.12-.5.07-.17.16-.32.28-.45.25-.25.6-.4.95-.4s.7.15.95.4c.12.13.2.28.28.44.2.5.1 1.06-.28 1.44-.13.13-.28.23-.44.3-.15.06-.32.1-.5.1zM123.5 94c-.34 0-.68-.14-.94-.4-.1-.12-.2-.26-.28-.43-.14-.32-.14-.7 0-1 .07-.17.16-.32.28-.45.26-.25.6-.4.95-.4.37 0 .7.15.96.4.13.13.22.28.28.44.15.32.15.7 0 1-.06.18-.16.32-.28.45-.25.26-.6.4-.95.4zM127.53 90c-.36 0-.7-.15-.95-.4s-.4-.58-.4-.93c0-.1 0-.17 0-.26.02-.08.05-.16.1-.24.02-.1.06-.17.1-.24.06-.07.1-.14.17-.2.38-.4.97-.53 1.48-.32.52.2.85.7.83 1.27 0 .35-.14.68-.38.93-.13.13-.28.23-.44.3-.16.06-.34.1-.5.1zM131.54 94c-.17 0-.35-.04-.5-.1-.17-.07-.32-.17-.45-.3-.13-.12-.23-.27-.3-.43-.07-.16-.1-.33-.1-.5 0-.18.03-.35.1-.5.07-.17.17-.32.3-.45.12-.12.27-.22.43-.28.68-.28 1.46.04 1.74.72.14.32.14.7 0 1-.12.35-.38.6-.72.73-.16.06-.33.1-.5.1zM135.55 90c-.17 0-.34-.04-.5-.1-.17-.07-.32-.17-.45-.3-.12-.12-.22-.26-.3-.43-.1-.32-.1-.68 0-1 .1-.17.2-.32.3-.45.32-.33.78-.47 1.22-.4l.24.1c.1.02.17.06.24.1l.2.17c.12.12.22.27.28.43.2.5.1 1.07-.28 1.46-.13.1-.28.2-.44.27-.16.07-.33.12-.5.13zM147.6 54c-.36 0-.7-.14-.95-.4-.12-.12-.22-.27-.3-.43-.06-.16-.1-.33-.1-.5 0-.36.14-.7.4-.95l.2-.16c.07-.05.15-.1.24-.12.06-.05.14-.08.23-.1.44-.1.9.04 1.2.35.27.25.4.6.4.97 0 .35-.13.7-.4.94-.12.13-.26.23-.43.3-.16.06-.33.1-.5.1zM147.6 62c-.36 0-.7-.15-.95-.4-.12-.13-.22-.27-.3-.43-.06-.16-.1-.33-.1-.5 0-.18.04-.35.1-.5.08-.17.17-.32.3-.45l.2-.16c.07-.05.15-.1.24-.12.06-.05.14-.08.23-.1.44-.1.9.04 1.2.35.14.12.23.27.3.43.2.5.1 1.06-.3 1.44-.23.27-.57.42-.93.43zM151.6 58c-.44 0-.85-.23-1.1-.6-.24-.36-.3-.83-.12-1.24.06-.16.16-.3.28-.44l.2-.16c.07-.05.15-.1.24-.12.07-.05.16-.08.24-.1.17-.05.35-.05.52 0 .1 0 .18.03.26.07.08.04.16.08.22.13.08.05.15.1.22.16.12.12.22.27.28.43.2.5.1 1.07-.28 1.46-.13.1-.28.2-.44.27-.16.08-.33.13-.5.13zM155.62 62c-.17 0-.35-.04-.5-.1-.17-.07-.32-.17-.45-.3-.12-.12-.2-.27-.28-.43-.15-.32-.15-.7 0-1 .05-.17.15-.32.27-.45.32-.3.77-.45 1.2-.36.1 0 .18.04.26.08.08.03.16.07.23.12.07.05.15.1.2.16.13.13.23.28.3.44.14.32.14.7 0 1-.13.35-.4.6-.73.73-.16.06-.33.1-.5.1zM163.65 62c-.36 0-.7-.14-.95-.4-.12-.12-.2-.27-.28-.43-.14-.32-.14-.7 0-1 .06-.17.16-.32.28-.45l.2-.16c.07-.05.15-.1.24-.12.08-.04.17-.07.25-.08.25-.05.52-.03.76.08.08.03.16.07.22.12.08.05.15.1.22.16.12.13.22.28.28.44.14.32.14.7 0 1-.12.35-.4.6-.72.73-.16.06-.34.1-.5.1zM147.6 70c-.18 0-.35-.03-.5-.1-.18-.07-.32-.17-.45-.3-.12-.12-.22-.27-.3-.43-.06-.16-.1-.33-.1-.5 0-.36.14-.7.4-.95l.2-.16c.07-.05.15-.1.24-.12.06-.05.14-.08.23-.1.44-.1.9.04 1.2.35.14.12.23.27.3.43.14.33.14.7 0 1.02-.07.16-.17.3-.3.44-.23.25-.58.4-.93.4zM151.6 66c-.17 0-.34-.04-.5-.1-.16-.07-.3-.17-.44-.3-.25-.24-.4-.58-.4-.93 0-.18.05-.35.12-.5.06-.17.16-.32.28-.45l.2-.16c.07-.05.15-.1.24-.12.07-.05.15-.08.24-.1.17-.05.35-.05.52 0 .1 0 .18.03.26.07.08.04.16.08.22.13.08.05.15.1.22.16.12.12.2.27.28.43.14.33.14.7 0 1.02-.07.16-.16.3-.28.44-.25.25-.6.4-.95.4zM155.62 70c-.17 0-.35-.04-.5-.1-.17-.07-.32-.17-.45-.3-.25-.24-.4-.58-.4-.93.02-.18.05-.35.12-.5.2-.5.7-.82 1.22-.82.54 0 1.02.32 1.23.8.15.33.15.7 0 1.02-.12.34-.38.6-.72.72-.16.06-.33.1-.5.1zM159.63 66c-.35 0-.7-.14-.95-.4-.1-.12-.2-.27-.3-.43-.05-.16-.1-.33-.08-.5 0-.18.03-.35.1-.5.07-.18.16-.33.28-.45.32-.3.77-.45 1.2-.36.1 0 .18.04.26.08.1.03.16.07.23.12.08.05.15.1.22.16.1.12.2.27.27.44.14.32.14.7 0 1-.13.35-.4.6-.73.73-.16.06-.33.1-.5.1zM163.65 70c-.36 0-.7-.14-.95-.4-.12-.12-.2-.26-.28-.43-.14-.32-.14-.7 0-1 .06-.17.16-.32.28-.45l.2-.16c.07-.05.15-.1.24-.12.08-.04.17-.07.25-.08.25-.05.52-.03.76.08.08.03.16.07.22.12l.22.16c.12.13.22.28.28.44.14.32.14.7 0 1-.12.35-.4.6-.72.73-.16.06-.34.1-.5.1zM167.66 66c-.17 0-.34-.04-.5-.1-.17-.07-.32-.17-.45-.3-.1-.12-.2-.26-.27-.43-.07-.16-.1-.33-.1-.5 0-.74.6-1.34 1.33-1.34s1.34.6 1.34 1.34c0 .17-.03.34-.1.5-.13.34-.4.6-.73.72-.16.06-.33.1-.5.1zM147.6 78c-.74 0-1.34-.6-1.34-1.33 0-.18.03-.35.1-.5.06-.18.16-.33.28-.45l.2-.16c.08-.05.16-.1.25-.12.06-.05.14-.08.23-.1.44-.1.9.04 1.2.35.14.12.23.27.3.43.14.33.14.7 0 1.02-.13.33-.4.6-.73.72-.16.07-.33.12-.5.13zM151.6 74c-.35 0-.7-.15-.94-.4-.38-.38-.5-.95-.28-1.44.06-.16.16-.3.28-.44l.2-.16c.07-.05.15-.1.24-.12.07-.05.16-.08.24-.1.17-.05.35-.05.52 0 .1 0 .18.03.26.07.08.04.16.08.22.13l.22.16c.12.12.22.27.28.43.2.5.1 1.06-.28 1.44-.13.13-.28.23-.44.3-.16.07-.33.12-.5.13zM155.62 78c-.17 0-.35-.04-.5-.1-.17-.07-.32-.17-.45-.3-.12-.12-.2-.26-.28-.43-.08-.16-.1-.33-.12-.5 0-.1 0-.18 0-.27.02-.08.05-.16.08-.24.03-.08.07-.17.12-.24.05-.07.1-.14.17-.2.25-.25.6-.4.95-.4s.7.15.95.4.4.6.4.95-.15.7-.4.94c-.13.13-.28.23-.45.3-.15.06-.3.1-.48.1zM159.63 74c-.35 0-.7-.14-.95-.4-.1-.12-.2-.27-.3-.43-.05-.16-.1-.33-.08-.5 0-.18.03-.35.1-.5.13-.35.4-.6.73-.73.24-.1.5-.13.76-.08.08 0 .16.04.24.08.1.03.16.07.23.12.08.05.15.1.22.16.1.13.2.28.27.44.07.16.1.33.1.5 0 .36-.13.7-.38.95-.14.13-.3.23-.46.3-.16.06-.33.1-.5.1z"/></g><path id="Shape" fill="#EEF6FF" d="M157 27h-11V16z"/><path id="Shape" fill="#6D6DAA" d="M155.7 27h-10.4c-.72 0-1.3-.58-1.3-1.3V15.3c0-.52.3-1 .8-1.2.5-.2 1.05-.1 1.42.28l10.4 10.4c.37.37.48.93.28 1.42-.2.5-.68.8-1.2.8zm-9.1-2.6h5.96l-5.96-5.96v5.96z"/><path id="Shape" fill="#fff" d="M146.3 16H82v60.75l30.6 25.73c4 3.36 9.82 3.36 13.8 0L157 76.75V26.7h-10.7V16z"/><path id="Shape" fill="#2866AE" d="M155.7 27h-10.4c-.72 0-1.3-.58-1.3-1.3V15.3c0-.52.3-1 .8-1.2.5-.2 1.05-.1 1.42.28l10.4 10.4c.37.37.48.93.28 1.42-.2.5-.68.8-1.2.8zm-9.1-2.6h5.96l-5.96-5.96v5.96zM155.67 77c-.73 0-1.33-.6-1.33-1.33V26.52l-9.83-9.86H82.66v59c0 .75-.6 1.34-1.32 1.34-.74 0-1.33-.6-1.33-1.33V15.33c0-.73.6-1.33 1.33-1.33h63.72c.35 0 .7.14.94.4L156.6 25c.26.26.4.6.4.96v49.7c0 .75-.6 1.34-1.33 1.34zM119 105c-2.82 0-5.55-1-7.7-2.8L68.46 66.33c-.36-.3-.53-.77-.45-1.24.08-.47.4-.86.86-1.02.45-.16.95-.07 1.3.23l42.83 35.88c3.47 2.88 8.5 2.88 11.97 0l42.84-35.85c.37-.3.87-.4 1.3-.25.46.16.8.54.88 1 .08.47-.08.95-.45 1.25l-42.8 35.85c-2.17 1.82-4.9 2.82-7.73 2.82z"/><path id="Shape" fill="#EEF6FF" d="M125.9 94.48c-4-3.3-9.82-3.3-13.8 0L69 130.28c.5.46 1.14.72 1.82.72h96.36c.68 0 1.33-.26 1.82-.7l-43.1-35.82z"/><path id="Shape" fill="#fff" d="M76.1 131l39.45-32.78c2-1.65 4.9-1.65 6.9 0L161.9 131h5.28c.68 0 1.33-.26 1.82-.7l-43.1-35.82c-4-3.3-9.82-3.3-13.8 0L69 130.28c.5.46 1.14.72 1.82.72h5.27z"/><g id="Group" fill="#7690A8" opacity=".3"><path id="Shape" d="M74.3 126l-5.45 4.33c.5.43 1.14.67 1.8.67h95.7c.66 0 1.3-.24 1.8-.68L162.7 126H74.3z"/></g><path id="Shape" fill="#2866AE" d="M166.9 133H71.1c-.98-.02-1.93-.4-2.65-1.08-.3-.25-.45-.62-.45-1s.16-.74.45-1l42.83-36.1c4.46-3.76 10.98-3.76 15.44 0l42.83 36.12c.3.25.45.6.45 1 0 .38-.16.74-.45 1-.72.67-1.67 1.05-2.66 1.06zm-94.8-2.66h93.8L125 95.84c-3.46-2.9-8.5-2.9-11.97 0l-40.94 34.5z"/><g id="Group" fill="#97C1FF" opacity=".5"><path id="Shape" d="M131.58 33.2h-17.45c-.74 0-1.34-.58-1.34-1.3s.6-1.3 1.33-1.3h17.45c.74 0 1.34.58 1.34 1.3s-.6 1.3-1.34 1.3zM143.66 38.4h-29.53c-.74 0-1.34-.58-1.34-1.3s.6-1.3 1.33-1.3h29.53c.74 0 1.34.58 1.34 1.3s-.6 1.3-1.34 1.3zM106.08 41H95.34c-.74 0-1.34-.58-1.34-1.3V29.3c0-.72.6-1.3 1.34-1.3h10.74c.74 0 1.34.58 1.34 1.3v10.4c0 .72-.6 1.3-1.34 1.3zm-9.4-2.6h8.06v-7.8h-8.06v7.8z"/></g><path id="Shape" fill="#5ECCA0" d="M101.86 37c-.35 0-.68-.15-.93-.4L98.3 34c-.43-.5-.4-1.28.08-1.76.5-.48 1.26-.5 1.78-.06l1.5 1.5 5-7.18c.42-.54 1.2-.66 1.78-.27s.73 1.17.36 1.76l-5.88 8.44c-.22.32-.57.52-.96.56h-.1z"/><g id="Group" fill="#97C1FF" opacity=".5"><path id="Shape" d="M131.58 51.2h-17.45c-.74 0-1.34-.58-1.34-1.3s.6-1.3 1.33-1.3h17.45c.74 0 1.34.58 1.34 1.3s-.6 1.3-1.34 1.3zM143.66 56.4h-29.53c-.74 0-1.34-.58-1.34-1.3s.6-1.3 1.33-1.3h29.53c.74 0 1.34.58 1.34 1.3s-.6 1.3-1.34 1.3zM106.08 59H95.34c-.74 0-1.34-.58-1.34-1.3V47.3c0-.72.6-1.3 1.34-1.3h10.74c.74 0 1.34.58 1.34 1.3v10.4c0 .72-.6 1.3-1.34 1.3zm-9.4-2.6h8.06v-7.8h-8.06v7.8z"/></g><path id="Shape" fill="#5ECCA0" d="M101.86 55c-.35 0-.68-.15-.93-.4L98.3 52c-.43-.5-.4-1.28.08-1.76.5-.48 1.26-.5 1.78-.06l1.5 1.5 5-7.18c.42-.54 1.2-.66 1.78-.27s.73 1.17.36 1.76l-5.88 8.44c-.22.32-.57.52-.96.56h-.1z"/><g id="Group" fill="#97C1FF" opacity=".5"><path id="Shape" d="M131.58 69.2h-17.45c-.74 0-1.34-.58-1.34-1.3s.6-1.3 1.33-1.3h17.45c.74 0 1.34.58 1.34 1.3s-.6 1.3-1.34 1.3zM143.66 74.4h-29.53c-.74 0-1.34-.58-1.34-1.3s.6-1.3 1.33-1.3h29.53c.74 0 1.34.58 1.34 1.3s-.6 1.3-1.34 1.3zM106.08 77H95.34c-.74 0-1.34-.58-1.34-1.3V65.3c0-.72.6-1.3 1.34-1.3h10.74c.74 0 1.34.58 1.34 1.3v10.4c0 .72-.6 1.3-1.34 1.3zm-9.4-2.6h8.06v-7.8h-8.06v7.8z"/></g><g transform="translate(142 103)"><ellipse id="Oval" cx="23.5" cy="24" fill="#EEF6FF" rx="22.5" ry="23"/><circle id="Oval" cx="23" cy="23" r="19" fill="#EEF6FF"/><path id="Shape" fill="#fff" d="M22.96 4C16.5 4 10.46 7.3 7 12.77 3.5 18.24 3.03 25.1 5.74 31L40 14.7C36.83 8.16 30.2 4 22.96 4zM7.76 34L42 17.43c-.15-.5-.32-.96-.5-1.43L7 32.7c.24.45.5.88.76 1.3zM23 40.73C12.93 40.73 4.6 32.5 4.03 22c0 .37-.03.75-.03 1.13C4 34.1 12.5 43 23 43s19-8.9 19-19.86c0-.38 0-.76-.03-1.14-.58 10.5-8.9 18.73-18.97 18.73z"/><g id="Group" fill="#5CBEFF" opacity=".3"><path id="Shape" d="M23 6.27c10.07 0 18.4 8.22 18.97 18.73 0-.37.03-.75.03-1.13C42 12.9 33.5 4 23 4S4 12.9 4 23.87c0 .38 0 .76.03 1.13C4.6 14.5 12.93 6.27 23 6.27z"/></g><path id="Shape" fill="#fff" d="M23.5 3.18c12 0 21.9 9.6 22.47 21.82 0-.36.03-.73.03-1.1 0-8.18-4.3-15.74-11.25-19.83-6.96-4.1-15.54-4.1-22.5 0C5.3 8.17 1 15.72 1 23.9c0 .38 0 .74.03 1.1C1.6 12.8 11.5 3.18 23.5 3.18z"/><g fill="#5CBEFF" opacity=".3"><path id="Shape" d="M23.5 43.82c-12 0-21.9-9.6-22.47-21.82 0 .36-.03.73-.03 1.1C1 35.73 11.07 46 23.5 46S46 35.74 46 23.1c0-.37 0-.74-.03-1.1C45.4 34.2 35.5 43.82 23.5 43.82z"/></g><path id="Shape" fill="#2866AE" stroke="#2866AE" d="M23.5 47C10.52 47 0 36.48 0 23.5S10.52 0 23.5 0 47 10.52 47 23.5c0 6.23-2.48 12.2-6.88 16.62S29.72 47 23.5 47zm0-45.9C11.12 1.1 1.1 11.12 1.1 23.5s10.03 22.4 22.4 22.4S45.9 35.9 45.9 23.5c0-5.94-2.35-11.64-6.56-15.84-4.2-4.2-9.9-6.57-15.84-6.57z"/><path id="Shape" fill="#2866AE" d="M24.22 39c-4.23 0-8.25-1.83-11.06-5.03-.14-.15-.2-.36-.14-.56s.23-.33.43-.37c.2-.04.4.04.53.2 3.73 4.26 9.66 5.77 14.94 3.8 5.28-1.95 8.85-6.98 9-12.67.14-5.7-3.17-10.9-8.34-13.14C24.4 9 18.4 10.2 14.46 14.25c-.14.14-.35.2-.54.13s-.33-.2-.38-.4c-.05-.2 0-.4.14-.53 4.72-4.83 12.05-5.84 17.87-2.47 5.82 3.38 8.67 10.3 6.95 16.87S30.92 39 24.22 39z"/><rect id="Rectangle-path" width="1" height="2" x="23" y="13" fill="#2866AE" rx=".5"/><rect width="1" height="2" x="24" y="33" fill="#2866AE" rx=".5"/><path id="Shape" fill="#2866AE" d="M14.38 24h-.76c-.34 0-.62-.22-.62-.5s.28-.5.62-.5h.76c.34 0 .62.22.62.5s-.28.5-.62.5zM33.4 24h-.8c-.33 0-.6-.22-.6-.5s.27-.5.6-.5h.8c.33 0 .6.22.6.5s-.27.5-.6.5zM19.24 17c-.27 0-.53-.13-.66-.33l-.46-.66c-.15-.2-.16-.45-.02-.66.13-.2.4-.34.67-.34.28 0 .54.14.67.35l.46.66c.13.22.13.47 0 .67s-.4.33-.67.33zM30.24 33c-.27 0-.53-.13-.66-.33l-.46-.66c-.15-.2-.16-.45-.02-.66.13-.2.4-.34.67-.34.28 0 .54.14.67.35l.46.66c.13.22.13.47 0 .67s-.4.33-.67.33zM15.66 29c-.3 0-.56-.23-.64-.56-.07-.34.05-.7.3-.86l.67-.46c.2-.15.45-.16.66-.02.2.13.34.4.34.67s-.14.54-.35.67l-.66.45c-.1.06-.22.1-.34.1zM32.66 20c-.3 0-.56-.23-.64-.56-.08-.34.05-.7.3-.86l.67-.46c.2-.15.45-.16.66-.02.2.13.34.4.34.67s-.14.54-.35.67l-.66.45c-.1.06-.22.1-.34.1zM28.77 17c-.28 0-.53-.12-.67-.33s-.13-.45 0-.66l.46-.65c.13-.2.4-.35.67-.35.28 0 .54.13.67.34.14.2.13.47-.02.67l-.46.67c-.13.2-.38.33-.65.33zM18.77 34c-.28 0-.53-.12-.67-.33s-.13-.45 0-.66l.46-.65c.13-.2.4-.35.67-.35.28 0 .54.13.67.34.14.2.13.47-.02.67l-.46.67c-.13.2-.38.33-.65.33zM16.34 20c-.12 0-.23-.04-.33-.1l-.65-.46c-.2-.13-.35-.4-.35-.67s.13-.54.34-.67c.2-.14.47-.13.67.02l.67.46c.26.17.38.52.3.85-.07.34-.33.57-.63.57zM33.34 29c-.12 0-.23-.04-.33-.1l-.65-.46c-.2-.13-.35-.4-.35-.67s.13-.54.34-.67c.2-.14.47-.13.67.02l.67.46c.26.17.38.52.3.85-.07.34-.33.57-.63.57z"/><path id="Shape" fill="#939FC6" d="M23.67 18.24L23 23h2l-.67-4.76c-.02-.14-.16-.24-.33-.24s-.3.1-.33.24z"/><path id="Shape" fill="#2866AE" d="M25.44 24h-1.88c-.16 0-.3-.07-.42-.2-.1-.12-.16-.28-.14-.45l.64-5.55c.05-.46.42-.8.86-.8s.8.34.86.8l.64 5.55c.02.17-.03.33-.14.46-.1.13-.26.2-.42.2zm-1.27-1.15h.65L24.5 20l-.33 2.85z"/><path id="Shape" fill="#939FC6" d="M19.02 28.93l5.48-4.76L23.33 23l-4.76 5.48c-.1.13-.1.3.02.42.1.12.3.13.42.04z"/><path id="Shape" fill="#2866AE" d="M18.34 31c-.33 0-.63-.22-.76-.56s-.1-.75.12-1.03l4.73-6.2c.1-.12.23-.2.37-.2.15 0 .3.06.4.17l1.15 1.33c.1.12.16.28.15.45s-.07.32-.2.42l-5.42 5.4c-.15.15-.34.23-.54.23zm4.5-6.54l-2.42 3.18 2.78-2.76-.36-.42z"/><circle cx="24.5" cy="23.5" r="1.5" fill="#EEF6FF" transform="rotate(-45 24.5 23.5)"/><path fill="#2866AE" d="M24.5 25c-.96 0-1.78-.68-1.96-1.6s.32-1.9 1.2-2.25c.88-.36 1.9-.05 2.43.74.52.8.42 1.85-.26 2.52-.36.37-.87.58-1.4.58zm0-2.96c-.4 0-.74.24-.9.6-.14.35-.06.76.22 1.04.38.36.97.36 1.35 0 .28-.28.36-.7.2-1.04-.14-.36-.5-.6-.88-.6zM16.5 15h-3c-.28 0-.5-.2-.5-.47v-3.06c0-.26.22-.47.5-.47s.48.2.48.47v2.58h2.53c.28 0 .5.22.5.48s-.22.47-.5.47zM23.5 43C12.73 43 4 34.27 4 23.5S12.73 4 23.5 4 43 12.73 43 23.5 34.27 43 23.5 43zm0-37.92c-10.17 0-18.42 8.25-18.42 18.42 0 10.17 8.25 18.42 18.42 18.42s18.42-8.25 18.42-18.42S33.67 5.08 23.5 5.08z"/></g></g></g></g></svg>