<svg xmlns="http://www.w3.org/2000/svg" width="227" height="177" xmlns:xlink="http://www.w3.org/1999/xlink"><title>Custom Dashboard</title><desc>Created with Sketch.</desc><defs><rect id="b" width="49" height="30" rx="3"/><filter id="a" width="128.6%" height="146.7%" x="-14.3%" y="-16.7%" filterUnits="objectBoundingBox"><feOffset in="SourceAlpha" result="shadowOffsetOuter1" dy="2"/><feGaussianBlur stdDeviation="2" result="shadowBlurOuter1" in="shadowOffsetOuter1"/><feComposite operator="out" result="shadowBlurOuter1" in2="SourceAlpha" in="shadowBlurOuter1"/><feColorMatrix values="0 0 0 0 0.592156863 0 0 0 0 0.756862745 0 0 0 0 1 0 0 0 0.5 0" in="shadowBlurOuter1"/></filter></defs><g fill="none"><g><g><g fill-rule="nonzero" opacity=".3"><path id="Shape" fill="#97C1FF" d="M202.78 67.03c-2.73-18.65-16.8-33.62-35.26-37.5-6.4-1.36-12.17-4.82-16.4-9.82-13.57-16.05-35.06-23.06-55.5-18.1-20.43 4.97-36.3 21.07-41 41.57C52.66 51.77 46.93 59 39 62.9c-16.4 8.2-25.6 26.06-22.73 44.16 2.87 18.1 17.14 32.25 35.26 34.96 18.12 2.72 35.9-6.62 43.96-23.08 2.37-4.88 7.33-7.97 12.76-7.94h1.24c8.67.07 16.14 6.14 18 14.6 2 8.24 7.4 15.24 14.84 19.28s16.26 4.75 24.25 1.94c11.53-4 19.5-14.62 20.1-26.82.27-6.74 2.64-13.22 6.8-18.52 7.72-9.7 11.08-22.17 9.28-34.44z"/><path id="Shape" fill="#fff" d="M182.18 46.75c-.4 0-.77-.15-1.03-.44-.14-.12-.26-.28-.33-.46-.15-.36-.15-.77 0-1.12.07-.2.18-.36.33-.5.14-.12.3-.23.47-.3.55-.24 1.2-.1 1.6.3.28.3.44.67.44 1.06 0 .2-.04.38-.1.56-.08.18-.2.34-.33.47-.13.15-.3.26-.47.34-.2.07-.38.1-.58.1zM183.66 40.85h-2.96c-.8 0-1.47-.66-1.47-1.47s.66-1.48 1.47-1.48h2.96c.8 0 1.47.66 1.47 1.48s-.66 1.47-1.47 1.47zM188.08 34.95h-14.75c-.82 0-1.48-.66-1.48-1.48 0-.8.66-1.47 1.48-1.47h14.75c.82 0 1.48.66 1.48 1.48 0 .8-.66 1.47-1.48 1.47zM174.8 40.85h-5.9c-.8 0-1.47-.66-1.47-1.47s.66-1.48 1.47-1.48h5.9c.82 0 1.48.66 1.48 1.48s-.66 1.47-1.48 1.47zM176.28 46.75h-11.8c-.82 0-1.48-.66-1.48-1.47s.66-1.48 1.48-1.48h11.8c.8 0 1.47.66 1.47 1.48s-.66 1.47-1.47 1.47z"/><path fill="#fff" d="M25.07 111.75c-.5 0-1-.15-1.35-.44-.18-.12-.33-.28-.42-.46-.2-.36-.2-.76 0-1.12.1-.2.23-.35.42-.5.2-.12.4-.23.62-.3.72-.24 1.55-.1 2.1.3.36.3.56.67.56 1.06 0 .2-.04.38-.13.56-.1.18-.25.34-.43.47-.17.15-.38.26-.6.34-.25.07-.5.1-.77.1z"/><path fill="#fff" d="M27 105.85h-3.86c-1.06 0-1.92-.66-1.92-1.47 0-.82.86-1.48 1.93-1.48H27c1.07 0 1.93.66 1.93 1.48 0 .8-.86 1.47-1.93 1.47z"/><path fill="#fff" d="M32.8 99.95H13.5c-1.06 0-1.93-.66-1.93-1.48 0-.8.87-1.47 1.93-1.47h19.3c1.05 0 1.92.66 1.92 1.48 0 .8-.87 1.47-1.93 1.47z"/><path fill="#fff" d="M15.43 105.85H7.7c-1.05 0-1.9-.66-1.9-1.47 0-.82.85-1.48 1.9-1.48h7.73c1.06 0 1.93.66 1.93 1.48 0 .8-.87 1.47-1.93 1.47z"/><path fill="#fff" d="M17.36 111.75H1.93c-1.07 0-1.93-.66-1.93-1.47 0-.82.86-1.48 1.93-1.48h15.43c1.06 0 1.93.66 1.93 1.48 0 .8-.88 1.47-1.94 1.47z"/><path fill="#fff" d="M114.07 14.75c-.5 0-1-.15-1.35-.44-.18-.12-.33-.28-.42-.46-.2-.36-.2-.76 0-1.12.1-.2.23-.36.42-.5.2-.12.4-.23.62-.3.72-.24 1.55-.1 2.1.3.36.3.57.67.56 1.06 0 .2-.04.38-.13.56-.1.18-.25.34-.43.47-.17.15-.38.26-.6.34-.25.07-.5.1-.77.1z"/><path fill="#fff" d="M116 8.85h-3.86c-1.06 0-1.92-.66-1.92-1.47 0-.82.86-1.48 1.92-1.48H116c1.07 0 1.93.66 1.93 1.48 0 .8-.86 1.47-1.93 1.47z"/><path fill="#fff" d="M121.8 2.95h-19.3c-1.06 0-1.93-.66-1.93-1.47 0-.82.87-1.48 1.93-1.48h19.3c1.05 0 1.92.66 1.92 1.48 0 .8-.87 1.47-1.93 1.47z"/><path fill="#fff" d="M104.43 8.85h-7.7c-1.08 0-1.94-.66-1.94-1.47 0-.82.85-1.48 1.92-1.48h7.7c1.08 0 1.94.66 1.94 1.48 0 .8-.86 1.47-1.93 1.47z"/><path fill="#fff" d="M106.36 14.75H90.93c-1.07 0-1.93-.66-1.93-1.47s.86-1.48 1.93-1.48h15.43c1.06 0 1.93.66 1.93 1.48s-.88 1.47-1.94 1.47z"/><g><path id="Shape" fill="#fff" d="M68.74 43.85v-.52c0-2.36-1.35-4.53-3.5-5.55-2.15-1.03-4.7-.73-6.55.75-2.1-5.4-7.88-8.45-13.55-7.1s-9.46 6.66-8.84 12.4c-3.2 1.1-5.58 3.83-6.16 7.16-.8-4.46 1.84-8.8 6.17-10.22-.63-5.78 3.17-11.12 8.86-12.46 5.7-1.35 11.5 1.7 13.56 7.15 1.85-1.5 4.4-1.78 6.55-.76s3.5 3.2 3.5 5.57v.52c4.3 1.43 6.88 5.77 6.1 10.2-.58-3.32-2.93-6.06-6.13-7.15z"/><path id="Shape" fill="#EEF6FF" d="M36.23 40.5c-.63-5.64 3.17-10.87 8.88-12.2 5.72-1.3 11.55 1.7 13.6 7 1.88-1.44 4.43-1.73 6.6-.73 2.14 1 3.5 3.12 3.5 5.44v.52c4.27 1.45 6.83 5.68 6.07 10-.77 4.33-4.64 7.5-9.17 7.48H39.23c-4.52-.03-8.37-3.2-9.1-7.52-.74-4.32 1.84-8.53 6.1-9.97z"/><path id="Shape" fill="#5CBEFF" d="M39.27 55.86H65.7c4.53.02 8.42-3.3 9.17-7.86.46 2.74-.3 5.55-2.07 7.67C71.03 57.8 68.43 59 65.7 59H39.26c-2.73 0-5.32-1.22-7.1-3.35-1.75-2.1-2.5-4.92-2.04-7.65.75 4.54 4.6 7.86 9.14 7.86z"/><path id="Shape" fill="#6D6DAA" d="M65.74 59H39.32c-4.9 0-9.1-3.32-10.1-7.96-1-4.64 1.5-9.32 5.98-11.2v-.6c.02-5.7 4.08-10.63 9.8-11.92 5.7-1.3 11.6 1.4 14.21 6.5 1.06-.54 2.23-.82 3.42-.82 3.92 0 7.12 3.04 7.2 6.84 4.47 1.9 6.96 6.57 5.96 11.2-1 4.63-5.2 7.95-10.07 7.96h.04zM47.9 29c-2.82 0-5.52 1.06-7.52 2.98-2 1.93-3.12 4.54-3.12 7.27 0 .38.02.75.07 1.13.05.47-.23.9-.7 1.06-3.8 1.28-6.1 5.03-5.43 8.88.67 3.85 4.1 6.67 8.12 6.68h26.42c4 0 7.43-2.8 8.1-6.65s-1.58-7.6-5.36-8.9c-.44-.14-.72-.55-.7-1v-.42c.02-1.93-1.12-3.7-2.92-4.54-1.8-.84-3.92-.6-5.47.62-.27.16-.6.2-.9.12s-.52-.3-.64-.6c-1.57-4-5.54-6.65-9.97-6.64zM36.03 42c-.5 0-.93-.4-1.02-1-.07-.58.22-1.16.7-1.34 1.06-.43 2.17-.66 3.3-.66.55 0 1 .54 1 1.2s-.45 1.2-1 1.2c-.92 0-1.82.18-2.68.53-.1.04-.2.06-.3.07zM68 42c-.1 0-.22-.03-.32-.07-.86-.36-1.77-.53-2.68-.53-.55 0-1-.54-1-1.2s.45-1.2 1-1.2c1.14 0 2.27.22 3.34.67.46.2.73.76.65 1.33-.1.57-.5 1-1 1zM57.1 39c-.4 0-.75-.2-.94-.5-.2-.3-.2-.67-.04-.98.52-.9 1.23-1.68 2.1-2.3.48-.35 1.17-.27 1.55.17.37.43.3 1.07-.2 1.4-.62.46-1.13 1.02-1.5 1.66-.2.34-.57.54-.98.54z"/></g></g><g fill-rule="nonzero" transform="translate(37 48)"><path id="Rectangle-path" fill="#CED8EE" d="M54.5 109.5h39v18h-39z"/><path id="Shape" fill="#2866AE" d="M93.5 129h-39c-.83 0-1.5-.67-1.5-1.5v-18c0-.83.67-1.5 1.5-1.5h39c.83 0 1.5.67 1.5 1.5v18c0 .83-.67 1.5-1.5 1.5zM56 126h36v-15H56v15z"/><g id="Group" fill="#2B5C8E" opacity=".3"><path id="Rectangle-path" d="M56 109.5h36v6H56z"/></g><path id="Shape" fill="#2866AE" d="M99.5 129h-51c-.83 0-1.5-.67-1.5-1.5s.67-1.5 1.5-1.5h51c.83 0 1.5.67 1.5 1.5s-.67 1.5-1.5 1.5z"/><path id="Shape" fill="#CAD7E5" d="M8 1.5h135c3.3 0 6 2.7 6 6v87H2v-87c0-3.3 2.7-6 6-6z"/><path id="Rectangle-path" fill="#EEF6FF" d="M8 7.5h135v80.98H8z"/><g id="Group" fill="#7690A8" opacity=".3"><path id="Rectangle-path" d="M8 7.5h135v6L8 13.46z"/></g><path id="Shape" fill="#2866AE" d="M143 90H8c-.83 0-1.5-.67-1.5-1.5v-81C6.5 6.67 7.17 6 8 6h135c.83 0 1.5.67 1.5 1.5v81c0 .83-.67 1.5-1.5 1.5zM9.5 87h132V9H9.5v78zM149 96H2c-.83 0-1.5-.67-1.5-1.5v-87C.5 3.36 3.86 0 8 0h135c4.14 0 7.5 3.36 7.5 7.5v87c0 .83-.67 1.5-1.5 1.5zM3.5 93h144V7.5c0-2.5-2-4.5-4.5-4.5H8C5.5 3 3.5 5 3.5 7.5V93z"/><path id="Shape" fill="#EEF6FF" d="M2 94.5h147v9c0 3.3-2.7 6-6 6H8c-3.3 0-6-2.7-6-6v-9z"/><path id="Shape" fill="#2866AE" d="M143 111H8c-4.14 0-7.5-3.36-7.5-7.5v-9c0-.83.67-1.5 1.5-1.5h147c.83 0 1.5.67 1.5 1.5v9c0 4.14-3.36 7.5-7.5 7.5zM3.5 96v7.5c0 2.5 2 4.5 4.5 4.5h135c2.5 0 4.5-2 4.5-4.5V96H3.5z"/><circle cx="26" cy="25.5" r="9" fill="#B8E4FF"/><path id="Shape" fill="#2866AE" d="M26 36c-5.8 0-10.5-4.7-10.5-10.5S20.2 15 26 15s10.5 4.7 10.5 10.5S31.8 36 26 36zm0-18c-4.14 0-7.5 3.36-7.5 7.5S21.86 33 26 33s7.5-3.36 7.5-7.5S30.14 18 26 18z"/><path id="Shape" fill="#fff" d="M27.68 21.5c-1.1-.2-2.13-.6-3.08-1.17-.25-.26-.07 1.15-.3 1.26-1.2.38-1.87 1.65-1.5 2.85 0 .36.1.7.17 1.05-.13.15-.2.35-.18.56 0 .52.15 1.03.4 1.5 0 .88.8 1.6.8 2.28v.8c.02.22-.15.42-.37.46-1.22.17-2.38.63-3.4 1.35 3.35 2.78 8.2 2.78 11.53 0-1-.72-2.17-1.18-3.4-1.35-.22-.04-.38-.24-.37-.47v-.8c0-.62.76-1.4.8-2.27.25-.47.4-.98.4-1.5.02-.2-.06-.4-.2-.56 0-.33.12-.67.18-1.05.38-1.22-.28-2.53-1.5-2.94z"/><path id="Shape" fill="#2866AE" d="M26 36c-2.46 0-4.83-.86-6.72-2.43-.35-.28-.55-.7-.55-1.16 0-.44.2-.87.55-1.15.94-.72 2.02-1.23 3.17-1.5l-.17-.3c-.28-.45-.47-.96-.58-1.5-.27-.57-.42-1.2-.44-1.85 0-.27.04-.53.12-.78l-.1-.54c-.4-1.62.3-3.32 1.72-4.17-.04-.72.37-1.4 1.04-1.7.57-.2 1.22-.07 1.66.34.6.3 1.23.53 1.9.66l.64.18c1.93.64 3.02 2.68 2.5 4.64l-.1.54c.08.25.12.5.12.78-.02.64-.17 1.27-.44 1.86-.1.56-.3 1.1-.58 1.6l-.14.26c1.14.28 2.2.8 3.15 1.5.35.28.55.7.55 1.16 0 .45-.2.88-.55 1.16C30.85 35.16 28.45 36 26 36zm-2.42-3.4c1.58.52 3.28.52 4.85 0h-.32c-.95-.18-1.64-1.04-1.6-2.02v-.7c.03-.6.2-1.2.52-1.7.13-.2.22-.44.28-.68 0-.2.07-.4.15-.6.1-.2.2-.43.24-.66-.16-.3-.2-.64-.14-.96l.18-1.04c.18-1-.23-1.16-.54-1.26l-.4-.1c-.4-.1-.85-.23-1.27-.37-.15.23-.36.4-.6.5-.63.28-.78.47-.64 1.25l.17 1.04c.06.32 0 .65-.14.95.05.23.14.46.24.68.1.18.14.38.15.58.06.24.15.45.27.66.3.5.5 1.1.52 1.7v.74c.04.98-.65 1.84-1.62 2h-.32z"/><g fill="#97C1FF" opacity=".3"><path id="Shape" d="M23 81h-6c-.83 0-1.5-.67-1.5-1.5S16.17 78 17 78h6c.83 0 1.5.67 1.5 1.5S23.83 81 23 81zM35 45H17c-.83 0-1.5-.67-1.5-1.5S16.17 42 17 42h18c.83 0 1.5.67 1.5 1.5S35.83 45 35 45zM35 54H17c-.83 0-1.5-.67-1.5-1.5S16.17 51 17 51h18c.83 0 1.5.67 1.5 1.5S35.83 54 35 54zM35 63H17c-.83 0-1.5-.67-1.5-1.5S16.17 60 17 60h18c.83 0 1.5.67 1.5 1.5S35.83 63 35 63zM35 81h-6c-.83 0-1.5-.67-1.5-1.5S28.17 78 29 78h6c.83 0 1.5.67 1.5 1.5S35.83 81 35 81z"/></g><path id="Rectangle-path" fill="#96D7FF" d="M44 16.5h39v27H44z"/><path id="Shape" fill="#2866AE" d="M83 45H44c-.83 0-1.5-.67-1.5-1.5v-27c0-.83.67-1.5 1.5-1.5h39c.83 0 1.5.67 1.5 1.5v27c0 .83-.67 1.5-1.5 1.5zm-37.5-3h36V18h-36v24z"/><path id="Rectangle-path" fill="#EEF6FF" stroke="#2866AE" d="M93.02 16.5h37c.55 0 1 .45 1 1v25c0 .55-.45 1-1 1h-37c-.56 0-1-.45-1-1v-25c0-.55.44-1 1-1z" stroke-linecap="round" stroke-dasharray="4,6"/><path id="Rectangle-path" fill="#B1F1A8" d="M44 52.5h39v27H44z"/><path id="Shape" fill="#2866AE" d="M83 81H44c-.83 0-1.5-.67-1.5-1.5v-27c0-.83.67-1.5 1.5-1.5h39c.83 0 1.5.67 1.5 1.5v27c0 .83-.67 1.5-1.5 1.5zm-37.5-3h36V54h-36v24z"/><path fill="#FF99B1" d="M92.02 52.5h39v27H92z"/><path id="Shape" fill="#2866AE" d="M131 81H92c-.83 0-1.5-.67-1.5-1.5v-27c0-.83.67-1.5 1.5-1.5h39c.83 0 1.5.67 1.5 1.5v27c0 .83-.67 1.5-1.5 1.5zm-37.5-3h36V54h-36v24z"/><path id="Shape" fill="#fff" d="M48.5 40.5c-.5 0-.96-.25-1.24-.66-.28-.4-.34-.93-.16-1.4 2.54-6.46 5.34-7.97 7.25-8.1 1.45-.12 2.83.62 3.54 1.9.54.6 1.35.9 2.16.8.54 0 1.17-.22 1.34-.64 1.23-3 3.46-6.9 8.6-6.9 1.9.05 3.73.86 5.06 2.25 1.22 1.05 1.82 1.5 3 1.17.53-.17 1.12-.04 1.52.35.4.38.55.96.4 1.5-.16.53-.6.94-1.15 1.05-2.1.5-4.28-.2-5.7-1.82-.8-.9-1.92-1.43-3.12-1.5-2.63 0-4.3 1.5-5.8 5.07-.74 1.5-2.27 2.44-3.94 2.43-1.95.2-3.86-.7-4.96-2.3-.14-.28-.42-.44-.72-.4-1.05.06-2.9 1.74-4.67 6.2-.2.6-.77 1-1.4 1zM53.12 75c-2.6-.15-4.9-1.7-6-4.05-.33-.75 0-1.62.73-1.97.74-.35 1.62-.04 1.98.7.6 1.3 1.86 2.18 3.3 2.32.07 0 .15 0 .23 0 .13-.36.22-.74.27-1.13.3-1.62.85-4.62 5.25-4.66H59c2.66-.1 5.15 1.3 6.43 3.64.78 1.12 1.05 1.42 1.7 1.42s1.05-1.5 1.5-3.5c.27-2.05 1.03-4.02 2.22-5.72C74 58.27 78.8 60 79.02 60.1c.78.28 1.18 1.15.9 1.92s-1.17 1.18-1.95.9c-1.7-.64-3.6-.23-4.9 1.04-.82 1.34-1.33 2.85-1.5 4.4-.56 2.62-1.25 5.87-4.43 5.87-1.77-.1-3.35-1.12-4.15-2.7-.73-1.55-2.33-2.48-4.03-2.35-1.92 0-2.04.66-2.33 2.2-.3 1.26-.72 3.62-3.52 3.62zM101 75.75c-3.2 0-4.1-2.22-5.1-4.5-.2-.56-.46-1.16-.76-1.8-.34-.75 0-1.62.73-1.97.74-.35 1.62-.04 1.98.7.32.68.6 1.33.83 1.9.93 2.27 1.2 2.67 2.06 2.72.33-.94.56-1.9.68-2.88.5-3 1.18-7.05 4.86-7.05 2.8 0 4.14 2.14 5.02 3.57.17.25.38.6.54.82.2-.2.4-.4.58-.63.6-.86 1.55-1.4 2.6-1.5 1.9-.13 3.54 1.5 5 2.82.56.56 1.18 1.06 1.84 1.5.2-.34.33-.7.42-1.08.6-2.3.8-4.66.64-7.02 0-1.8-.12-3.24.88-4.24.77-.64 1.76-.95 2.76-.83.83 0 1.5.67 1.5 1.5s-.67 1.5-1.5 1.5c-.16-.02-.33-.02-.5 0-.05.65-.05 1.3 0 1.96.2 2.66-.06 5.34-.73 7.92-.18.7-.75 2.8-2.47 3.27-1.73.48-3.3-.96-4.76-2.37-.8-.77-2.07-2-2.72-2-.1 0-.26.14-.43.36-.67 1.13-1.84 1.86-3.13 1.96-1.5 0-2.2-1.3-2.88-2.38-.84-1.35-1.5-2.16-2.5-2.16-.98 0-1.5 2.06-1.9 4.5s-1.05 5.43-3.54 5.43z"/></g><g><g transform="translate(161 41)"><use fill="#000" filter="url(#a)" xlink:href="#b"/><use fill="#E8CBA9" xlink:href="#b"/><rect width="47" height="28" x="1" y="1" stroke="#2866AE" stroke-width="2" rx="3"/></g><path id="Shape" fill="#fff" fill-rule="nonzero" d="M200.54 48c.5 0 .96.25 1.24.66.28.4.34.93.15 1.4-2.53 6.46-5.34 7.98-7.24 8.1-1.46.12-2.84-.62-3.55-1.9-.55-.6-1.36-.9-2.18-.8-.54 0-1.17.22-1.33.64-1.23 3-3.47 6.92-8.6 6.92-1.92-.07-3.74-.88-5.07-2.27-1.2-1.05-1.8-1.5-3-1.17-.53.18-1.1.04-1.5-.34-.4-.4-.57-.97-.4-1.5s.6-.94 1.14-1.05c2.1-.5 4.3.2 5.7 1.8.8.9 1.93 1.43 3.13 1.5 2.64 0 4.32-1.5 5.82-5.07.73-1.5 2.26-2.44 3.93-2.43 1.95-.2 3.85.7 4.96 2.3.13.28.42.45.72.42 1.05-.08 2.9-1.76 4.67-6.23.2-.6.78-1 1.4-1z"/></g><g fill-rule="nonzero"><path id="Shape" fill="#C9C1F5" d="M208.7 112.03c.4 1.34 1.43 2.38 2.76 2.78 1.38.47 1.38.93 0 1.4-1.33.4-2.37 1.43-2.77 2.76-.47 1.4-.93 1.4-1.4 0-.4-1.33-1.43-2.37-2.76-2.77-1.38-.47-1.38-.93 0-1.4 1.33-.4 2.37-1.43 2.77-2.76.47-1.4.93-1.4 1.4 0z"/><path fill="#C9C1F5" d="M9.84 52.27c.5 1.62 1.77 2.9 3.4 3.4 1.68.55 1.68 1.1 0 1.67-1.63.5-2.9 1.77-3.4 3.4-.56 1.68-1.12 1.68-1.68 0-.5-1.63-1.77-2.9-3.4-3.4-1.68-.56-1.68-1.12 0-1.68 1.63-.5 2.9-1.77 3.4-3.4.56-1.68 1.12-1.68 1.68 0z"/><path id="Shape" fill="#97C1FF" d="M219.95 54.4c.74 2.4 2.63 4.3 5.04 5.04 2.5.84 2.5 1.68 0 2.52-2.42.73-4.3 2.62-5.05 5.04-.84 2.52-1.68 2.52-2.52 0-.74-2.42-2.63-4.3-5.04-5.04-2.53-.84-2.53-1.68 0-2.52 2.4-.74 4.3-2.63 5.03-5.04.84-2.53 1.68-2.53 2.52 0z"/></g><path fill="#4A4A4A" fill-rule="nonzero" d="M189 66l1.38 10.03 2.45-2 1.82 3.15 1.2-.7-1.82-3.16 2.97-1.1z"/></g></g></g></svg>