<svg xmlns="http://www.w3.org/2000/svg" width="215" height="158" xmlns:xlink="http://www.w3.org/1999/xlink"><title>Fullbranded</title><desc>Created with Sketch.</desc><defs><rect id="a" width="98" height="29" rx="8"/><rect id="b" width="47" height="48.218" rx="5"/></defs><g fill="none"><g><g transform="translate(-1177 -2072) translate(1177 2072)"><path fill="#fff" fill-rule="nonzero" d="M68.93 45.96c-.5 0-1-.15-1.35-.44-.2-.13-.33-.3-.42-.48-.2-.35-.2-.76 0-1.12.08-.18.23-.35.42-.48.18-.14.4-.25.62-.33.72-.22 1.55-.1 2.1.34.36.27.56.65.56 1.04 0 .2-.04.4-.14.56-.1.18-.24.34-.42.48-.17.14-.38.25-.62.32-.24.08-.5.12-.75.12z"/><path fill="#fff" fill-rule="nonzero" d="M70.8 39.95h-3.87c-1.07 0-1.93-.66-1.93-1.48 0-.8.86-1.47 1.93-1.47h3.86c1.05 0 1.92.66 1.92 1.48 0 .8-.87 1.47-1.93 1.47z"/><path fill="#fff" fill-rule="nonzero" d="M76.22 33.95h-19.3c-1.06 0-1.92-.66-1.92-1.48 0-.8.86-1.47 1.93-1.47h19.3c1.05 0 1.9.66 1.9 1.48.02.8-.85 1.47-1.9 1.47z"/><path fill="#fff" fill-rule="nonzero" d="M58.64 39.95h-7.7c-1.08 0-1.94-.66-1.94-1.48 0-.8.86-1.47 1.93-1.47h7.7c1.08 0 1.94.66 1.94 1.48 0 .8-.86 1.47-1.93 1.47z"/><path fill="#fff" fill-rule="nonzero" d="M187.93 105.96c-.5 0-1-.15-1.35-.44-.2-.14-.33-.3-.43-.48-.2-.35-.2-.76 0-1.12.1-.18.24-.35.43-.48.18-.14.4-.25.62-.33.72-.22 1.55-.1 2.1.34.36.27.56.65.56 1.04 0 .2-.04.4-.14.56-.1.18-.24.34-.42.48-.17.14-.38.25-.62.32-.24.08-.5.12-.75.12z"/><path fill="#fff" fill-rule="nonzero" d="M177.93 36.96c-.5 0-1-.15-1.35-.44-.2-.13-.33-.3-.43-.48-.2-.35-.2-.76 0-1.12.1-.18.24-.35.43-.48.18-.14.4-.25.62-.33.72-.22 1.55-.1 2.1.34.36.27.56.65.56 1.04 0 .2-.04.4-.14.56-.1.18-.24.34-.42.48-.17.14-.38.25-.62.32-.24.08-.5.12-.75.12z"/><path fill="#fff" fill-rule="nonzero" d="M179.8 30.95h-3.87c-1.07 0-1.93-.66-1.93-1.47 0-.82.86-1.48 1.93-1.48h3.86c1.05 0 1.9.66 1.9 1.48 0 .8-.85 1.47-1.9 1.47z"/><path fill="#fff" fill-rule="nonzero" d="M185.22 24.95h-19.3c-1.06 0-1.92-.66-1.92-1.47 0-.82.86-1.48 1.93-1.48h19.3c1.05 0 1.9.66 1.9 1.48 0 .8-.85 1.47-1.9 1.47z"/><path fill="#fff" fill-rule="nonzero" d="M167.64 30.95h-7.7c-1.08 0-1.94-.66-1.94-1.47 0-.82.86-1.48 1.93-1.48h7.7c1.08 0 1.94.66 1.94 1.48 0 .8-.86 1.47-1.93 1.47z"/><path fill="#fff" fill-rule="nonzero" d="M170.36 36.95h-15.43c-1.07 0-1.93-.66-1.93-1.48 0-.8.86-1.47 1.93-1.47h15.43c1.06 0 1.93.66 1.93 1.48 0 .8-.88 1.47-1.94 1.47z"/><path id="Shape" fill="#96D7FF" fill-rule="nonzero" d="M196.2 12.04c.4 1.32 1.43 2.36 2.76 2.77 1.4.47 1.4.93 0 1.4-1.33.4-2.36 1.43-2.77 2.76-.47 1.4-.93 1.4-1.4 0-.4-1.33-1.43-2.37-2.76-2.77-1.4-.48-1.4-.94 0-1.4 1.33-.4 2.36-1.44 2.77-2.76.47-1.38.93-1.38 1.4 0z"/><path id="Shape" fill="#C9C1F5" fill-rule="nonzero" d="M174.2 146.04c.4 1.32 1.43 2.36 2.76 2.76 1.4.47 1.4.93 0 1.4-1.33.4-2.36 1.43-2.77 2.76-.47 1.4-.93 1.4-1.4 0-.4-1.33-1.43-2.37-2.76-2.77-1.4-.48-1.4-.94 0-1.4 1.33-.4 2.36-1.44 2.77-2.76.47-1.4.93-1.4 1.4 0z"/><path id="Shape" fill="#96D7FF" fill-rule="nonzero" d="M22.92 119.38c.54 1.77 1.92 3.16 3.7 3.7 1.84.6 1.84 1.22 0 1.84-1.78.54-3.16 1.92-3.7 3.7-.6 1.84-1.23 1.84-1.84 0-.54-1.78-1.93-3.16-3.7-3.7-1.84-.62-1.84-1.23 0-1.85 1.77-.53 3.16-1.92 3.7-3.7.6-1.83 1.23-1.83 1.84 0z"/><path id="Shape" fill="#C9C1F5" fill-rule="nonzero" d="M38.2 3.04c.4 1.32 1.43 2.36 2.76 2.76 1.4.47 1.4.93 0 1.4-1.32.4-2.36 1.43-2.77 2.76-.47 1.4-.93 1.4-1.4 0-.4-1.33-1.44-2.36-2.77-2.76-1.38-.46-1.38-.93 0-1.4 1.33-.4 2.37-1.44 2.77-2.76.47-1.4.93-1.4 1.4 0zM46.2 26.04c.4 1.32 1.43 2.36 2.76 2.77 1.4.47 1.4.93 0 1.4-1.33.4-2.36 1.43-2.77 2.76-.47 1.4-.93 1.4-1.4 0-.4-1.33-1.43-2.37-2.76-2.77-1.4-.48-1.4-.94 0-1.4 1.33-.4 2.36-1.44 2.77-2.76.47-1.38.93-1.38 1.4 0z"/><path id="Shape" fill="#96D7FF" fill-rule="nonzero" d="M196.2 104.04c.4 1.32 1.43 2.36 2.76 2.76 1.4.47 1.4.93 0 1.4-1.33.4-2.36 1.43-2.77 2.76-.47 1.4-.93 1.4-1.4 0-.4-1.33-1.43-2.37-2.76-2.77-1.4-.48-1.4-.94 0-1.4 1.33-.4 2.36-1.44 2.77-2.76.47-1.4.93-1.4 1.4 0z"/><g><path id="Shape" fill="#DEECFF" fill-rule="nonzero" d="M156.48 149.67c14.64-6.62 23.6-21.7 22.42-37.73-.4-5.54 1.07-11.05 4.15-15.68 9.9-14.85 10.6-34.02 1.82-49.55-8.8-15.53-25.57-24.8-43.4-23.93-7.77.28-15.3-2.83-20.6-8.54-14-14.84-39.98-16.8-57.38 5.34-2.05 2.82-3.36 6.1-3.84 9.54-1.16 6.42-4.65 12.18-9.8 16.16C41.17 52.1 36.08 62.52 36 73.56c-.1 11.06 4.85 21.55 13.4 28.53 5.9 4.74 9.37 11.84 9.53 19.4.2 12.87 7.05 24.7 18.1 31.3 11.04 6.57 24.7 6.94 36.1.98 5.63-2.87 12.1-3.55 18.22-1.92 8.38 2.15 17.24 1.38 25.13-2.2z"/><path fill="#fff" fill-rule="nonzero" d="M189.8 99.95h-3.87c-1.07 0-1.93-.66-1.93-1.48 0-.8.86-1.47 1.93-1.47h3.86c1.05 0 1.9.66 1.9 1.48 0 .8-.85 1.47-1.9 1.47z"/><path fill="#fff" fill-rule="nonzero" d="M195.22 93.95h-19.3c-1.06 0-1.92-.66-1.92-1.48 0-.8.86-1.47 1.93-1.47h19.3c1.05 0 1.9.66 1.9 1.48 0 .8-.85 1.47-1.9 1.47z"/><path fill="#fff" fill-rule="nonzero" d="M177.64 99.95h-7.7c-1.08 0-1.94-.66-1.94-1.48 0-.8.86-1.47 1.93-1.47h7.7c1.08 0 1.94.66 1.94 1.48 0 .8-.86 1.47-1.93 1.47z"/><path fill="#fff" fill-rule="nonzero" d="M180.36 105.95h-15.43c-1.07 0-1.93-.66-1.93-1.47 0-.82.86-1.48 1.93-1.48h15.43c1.06 0 1.93.66 1.93 1.48 0 .8-.88 1.47-1.94 1.47z"/><path stroke="#2866AE" stroke-width="2" d="M113.86 146.1c40.18 0 72.74-32.48 72.74-72.53s-32.56-72.5-72.74-72.5c-40.17 0-72.74 32.46-72.74 72.5 0 40.05 32.57 72.52 72.74 72.52z" stroke-linecap="round" stroke-dasharray="1,7"/></g><g transform="translate(68)"><g><use fill="#EEF6FF" xlink:href="#a"/><rect width="95.5" height="26.5" x="1.25" y="1.25" stroke="#2866AE" stroke-width="2.5" rx="8"/></g><rect id="Rectangle-path" width="86" height="12" x="6" y="11" fill="#FAFCFF" fill-rule="nonzero" stroke="#2866AE" stroke-width="1.4" rx="6"/><text fill="#3B395D" font-size="6" font-family="Nunito-SemiBold, Nunito" letter-spacing=".2" font-weight="500"><tspan x="11" y="19">http://yourdomain.com</tspan></text><path id="Shape" fill="#fff" fill-rule="nonzero" d="M89.6 2H8.4C5.43 2 3 4.05 3 6.57V10c0-2.52 2.42-4.57 5.4-4.57h81.2c2.98 0 5.4 2.05 5.4 4.57V6.57C95 4.05 92.58 2 89.6 2z"/><circle id="Oval" cx="8.5" cy="6.5" r="1.5" fill="#FF9797" fill-rule="nonzero" stroke="#6D6DAA"/><circle id="Oval" cx="14.5" cy="6.5" r="1.5" fill="#FFC661" fill-rule="nonzero" stroke="#6D6DAA"/><circle cx="20.5" cy="6.5" r="1.5" fill="#B1F1A8" fill-rule="nonzero" stroke="#6D6DAA"/></g><g transform="translate(0 51)"><g><mask id="c"><use xlink:href="#b"/></mask><g><use fill="#FCFDFF" xlink:href="#b"/><rect width="44.5" height="45.718" x="1.25" y="1.25" stroke="#2866AE" stroke-width="2.5" rx="5"/></g><g id="Group" fill="#6D6DAA" fill-rule="nonzero" opacity=".1" mask="url(#c)"><g id="Shape"><path d="M18.8 8.54c0-.22.1-.44.25-.6.1-.07.18-.13.28-.17.1-.05.22-.07.33-.07.22 0 .44.1.6.24.2.2.3.5.25.77 0 .06-.02.1-.04.16-.02.05-.04.1-.08.15-.03.05-.06.1-.1.14-.17.16-.4.25-.62.24-.1 0-.22-.02-.33-.06-.1-.05-.2-.1-.28-.18l-.1-.13c-.03-.04-.06-.1-.08-.14l-.06-.15v-.16zM21.36 11.07c0-.22.1-.44.25-.6.1-.07.2-.13.3-.17.2-.1.43-.1.64 0 .1.04.2.1.28.17.16.16.25.38.25.6s-.1.44-.25.6c-.08.07-.18.13-.28.18-.2.1-.44.1-.65 0-.1-.05-.2-.1-.3-.18-.15-.16-.23-.38-.24-.6zM21.36 6c0-.2.1-.42.25-.6.1-.06.2-.12.3-.16.2-.1.43-.1.64 0 .1.04.2.1.28.17.24.26.3.62.18.93-.08.22-.25.38-.46.46-.2.08-.44.08-.65 0-.22-.1-.4-.25-.47-.47-.05-.1-.07-.2-.07-.32zM23.92 8.54c0-.1.02-.22.07-.32.03-.1.1-.2.17-.28.16-.15.38-.24.6-.24.23 0 .45.1.6.24.08.1.14.18.2.28.08.2.08.44 0 .64-.06.1-.12.2-.2.28-.15.16-.37.25-.6.25-.23 0-.44-.1-.6-.26-.08-.08-.14-.18-.18-.28-.06-.1-.08-.2-.08-.32zM26.48 11.07c0-.1.02-.22.06-.32.05-.1.1-.2.18-.28.16-.16.38-.25.6-.25s.45.1.6.25c.1.08.15.18.2.28.13.3.05.68-.2.92-.23.24-.6.32-.92.18-.32-.13-.53-.44-.52-.78zM26.48 6c0-.33.2-.64.52-.77s.7-.06.93.18c.24.26.32.62.18.93-.03.1-.1.2-.17.28-.16.17-.38.26-.6.26s-.45-.1-.6-.25c-.08-.07-.14-.16-.2-.27-.03-.1-.06-.2-.05-.32zM29.03 8.54c0-.46.38-.84.85-.84.12 0 .23.02.33.07.1.04.2.1.3.17.23.25.3.6.17.92-.08.2-.25.38-.46.46-.1.04-.2.06-.32.06-.22 0-.44-.1-.6-.24-.08-.08-.14-.18-.18-.28-.04-.1-.07-.2-.07-.32zM31.6 11.07c0-.4.28-.75.68-.82s.8.13.95.5c.15.38.02.8-.32 1.03-.33.22-.78.17-1.06-.1-.16-.17-.25-.4-.25-.6zM31.6 6c0-.45.37-.83.84-.83.23 0 .45.1.6.24.25.26.32.62.2.93-.06.1-.12.2-.2.28-.15.17-.37.26-.6.26-.23 0-.44-.1-.6-.25-.08-.07-.14-.16-.18-.27-.05-.1-.07-.2-.07-.32zM34.15 8.54c.03-.3.22-.56.5-.7s.6-.08.85.1c.25.17.38.47.35.77 0 .06-.03.1-.05.16-.02.05-.04.1-.08.15l-.1.14c-.24.26-.62.34-.95.2-.32-.13-.53-.45-.52-.8zM36.7 11.07c0-.4.3-.75.7-.82s.8.13.94.5.02.8-.32 1.03c-.34.22-.8.17-1.07-.1-.16-.17-.25-.4-.25-.6zM36.7 6c0-.4.3-.73.7-.8s.8.13.94.5.02.8-.32 1.02c-.34.22-.8.18-1.07-.1-.16-.17-.25-.38-.25-.6zM39.26 8.54c0-.22.1-.44.25-.6.17-.15.38-.24.6-.24.48 0 .86.38.86.84 0 .47-.38.84-.85.84-.46 0-.84-.37-.84-.84zM41.82 11.07c0-.46.38-.84.85-.84.1 0 .22.02.32.07.1.03.2.1.27.17.16.16.25.38.25.6s-.1.44-.25.6c-.08.08-.17.14-.28.18-.1.04-.22.07-.33.06-.47 0-.86-.36-.86-.83zM41.82 6c0-.45.38-.83.85-.83.1 0 .22.02.32.07.1.04.2.1.27.17.16.17.25.4.25.6 0 .24-.1.45-.25.6-.08.1-.17.15-.28.2-.1.03-.22.05-.33.06-.47 0-.86-.38-.86-.85zM44.37 8.54c0-.4.3-.74.7-.82s.8.14.94.5.03.8-.3 1.03c-.35.22-.8.18-1.08-.1-.16-.17-.25-.38-.25-.6zM46.93 11.07c0-.4.3-.75.7-.82s.8.13.94.5c.15.38.02.8-.32 1.03-.34.22-.8.17-1.07-.1-.16-.17-.25-.4-.25-.6zM46.93 6c0-.4.3-.73.7-.8s.8.13.94.5c.15.37.02.8-.32 1.02-.34.22-.8.18-1.07-.1-.16-.17-.25-.38-.25-.6zM49.5 8.54c-.02-.1 0-.22.05-.32.04-.1.1-.2.18-.28.16-.16.38-.25.6-.25.24 0 .45.08.6.24.1.08.15.18.2.28.12.32.05.68-.2.92-.23.24-.6.32-.92.2-.3-.15-.52-.46-.5-.8zM52.04 11.07c0-.46.38-.84.85-.84.1 0 .2.02.32.07.1.04.2.1.28.17.07.08.13.18.18.28.13.3.06.68-.18.92-.08.08-.18.14-.28.18-.1.04-.22.06-.33.06-.48 0-.86-.36-.86-.83zM52.04 6c0-.45.38-.83.85-.83.1 0 .2.02.32.07.2.08.38.24.46.45.13.3.06.67-.18.9-.08.1-.18.15-.28.2-.1.03-.22.05-.33.06-.48 0-.86-.38-.86-.85zM54.6 8.54c0-.1.02-.22.07-.32.04-.1.1-.2.18-.28.16-.16.37-.25.6-.25s.45.08.6.24c.08.08.14.18.2.28.07.2.07.44-.02.64-.04.1-.1.2-.17.28-.25.24-.62.32-.94.2s-.52-.46-.52-.8zM57.16 11.07c0-.22.1-.44.24-.6l.13-.1c.05-.03.1-.06.15-.07.05-.03.1-.06.16-.07.1-.02.23-.02.34 0 .05 0 .1.02.15.05.06.02.1.04.15.07l.13.1c.23.2.32.5.26.8 0 .04-.03.1-.05.14 0 .04-.04.1-.07.14l-.1.13c-.04.04-.08.07-.13.1s-.1.06-.15.08c-.05.02-.1.04-.16.05-.12.02-.23.02-.35 0-.05 0-.1-.03-.15-.05-.05-.02-.1-.05-.15-.08-.05-.03-.1-.06-.13-.1l-.1-.13c-.04-.04-.06-.1-.08-.15l-.1-.16.02-.17zM57.16 6c0-.1.02-.2.06-.3.04-.1.1-.2.18-.3l.13-.1c.05-.02.1-.04.15-.06.05-.03.1-.06.16-.07.1-.02.23-.02.34 0 .05 0 .1.03.15.05.06.02.1.04.15.08l.13.1c.17.16.26.37.26.6s-.1.44-.25.6c-.03.03-.07.06-.12.1-.04.03-.1.05-.15.07-.05.03-.1.04-.15.05-.1.02-.23.02-.34 0-.06 0-.1-.02-.16-.05-.05-.02-.1-.04-.15-.07-.04-.04-.1-.07-.13-.1-.07-.1-.13-.18-.18-.28-.04-.1-.06-.2-.06-.3zM59.7 8.54c0-.1.04-.22.08-.32s.1-.2.18-.28c.04-.03.08-.07.13-.1.03-.03.1-.06.14-.07.05-.03.1-.05.16-.05s.1-.02.16-.02.12 0 .17 0c.06 0 .1.03.16.05.04.02.1.04.14.08.05.03.1.06.13.1.07.08.14.17.18.27.13.32.06.68-.18.92-.16.16-.38.26-.6.26-.06 0-.1 0-.17 0-.05 0-.1-.02-.16-.05-.05 0-.1-.04-.15-.07l-.14-.1c-.16-.17-.25-.4-.25-.62zM62.27 11.07v-.17l.05-.15.08-.15.1-.13.13-.1c.04-.03.1-.06.15-.07.05-.04.1-.06.17-.07.06 0 .1 0 .17 0 .1 0 .22.02.32.07.1.04.2.1.3.17.23.24.3.6.16.92-.07.2-.24.37-.46.45-.1.04-.2.06-.32.06-.06.02-.1.02-.17 0-.05 0-.1 0-.15-.04-.06-.02-.1-.04-.16-.07l-.12-.1c-.08-.1-.14-.2-.18-.3-.05-.1-.07-.2-.07-.33zM62.27 6c0-.1.02-.2.07-.3.04-.1.1-.2.18-.3l.12-.1c.05-.02.1-.04.16-.06.04-.03.1-.06.15-.07.06 0 .1 0 .17 0 .1 0 .22.02.32.07.22.08.4.24.46.45.14.3.07.67-.17.9-.1.1-.18.15-.3.2-.1.03-.2.05-.3.06-.07 0-.12 0-.18 0-.05 0-.1-.03-.15-.05-.06 0-.1-.04-.16-.07l-.12-.1-.1-.13c-.04-.05-.06-.1-.08-.15l-.07-.17V6zM64.83 8.54c0-.1.02-.22.06-.32.04-.1.1-.2.17-.28.17-.15.38-.24.6-.24.12 0 .23.02.33.07.2.07.38.24.46.45.07.15.1.32.07.5 0 .04-.03.1-.05.14-.02.06-.05.1-.08.15-.03.06-.06.1-.1.14-.08.07-.18.13-.28.18-.1.05-.22.07-.34.06-.06 0-.12 0-.17 0-.05 0-.1-.02-.15-.05-.05 0-.1-.04-.15-.07l-.13-.1-.1-.13c-.03-.05-.06-.1-.08-.15l-.07-.17v-.16zM18.8 13.6c0-.22.1-.44.25-.6.1-.07.18-.13.28-.18.1-.04.22-.06.33-.06.26 0 .5.1.67.3s.23.46.18.7c0 .06-.02.1-.04.16-.02.05-.05.1-.08.15-.03.05-.06.1-.1.13-.17.16-.4.24-.62.24-.1 0-.22-.02-.33-.06s-.2-.1-.28-.18l-.1-.13c-.03-.05-.06-.1-.08-.15l-.06-.15v-.17zM21.36 16.13c0-.23.1-.44.25-.6.1-.07.2-.13.3-.18.2-.1.43-.1.64 0 .1.05.2.1.28.18.16.16.25.37.25.6 0 .22-.1.44-.25.6-.08.07-.18.13-.28.17-.2.1-.44.1-.65 0-.1-.04-.2-.1-.3-.17-.15-.16-.23-.38-.24-.6zM23.92 13.6c0-.1.02-.22.07-.32.03-.1.1-.2.17-.28.16-.15.38-.24.6-.24.35 0 .65.2.8.52.12.3.05.68-.2.92-.16.15-.37.24-.6.24-.06 0-.1 0-.17 0-.05 0-.1-.02-.15-.05-.06-.03-.1-.05-.16-.08l-.13-.1c-.16-.17-.25-.4-.25-.62zM26.48 16.13c.03-.3.22-.57.5-.7.27-.1.6-.08.85.1.25.17.38.47.35.77 0 .05-.03.1-.05.15-.02.05-.05.1-.08.15l-.1.13c-.16.16-.38.25-.6.25-.23 0-.45-.1-.6-.25l-.1-.13c-.04-.05-.07-.1-.1-.15l-.07-.15v-.17zM29.03 13.6c0-.47.38-.84.85-.84.12 0 .23.02.33.06.1.05.2.1.3.18.15.16.24.37.24.6 0 .22-.1.44-.25.6-.1.07-.2.13-.3.17s-.2.07-.32.07c-.47 0-.85-.37-.85-.84zM31.6 16.13c0-.23.08-.44.24-.6.33-.33.87-.33 1.2 0s.33.86 0 1.2-.87.32-1.2 0c-.08-.08-.14-.18-.18-.28-.05-.1-.07-.2-.07-.32zM34.15 13.6c0-.1.02-.22.06-.32.06-.1.12-.2.2-.28.15-.16.37-.25.6-.25.22 0 .44.1.6.25.08.08.14.18.18.28.13.3.06.68-.18.92s-.6.3-.93.18c-.32-.13-.53-.44-.53-.78zM36.7 16.13c0-.4.3-.75.7-.82s.8.14.94.5.02.8-.32 1.04c-.34.22-.8.17-1.07-.1-.16-.17-.25-.4-.25-.6zM39.26 13.6c0-.22.1-.44.25-.6.17-.16.38-.24.6-.24.48 0 .86.37.86.84s-.38.84-.85.84c-.46 0-.84-.37-.84-.84zM41.82 16.13c0-.47.38-.84.85-.84.1 0 .22 0 .32.05.1.04.2.1.27.18.16.16.25.37.25.6 0 .22-.1.44-.25.6-.08.07-.17.13-.28.17-.1.05-.22.07-.33.07-.47 0-.86-.38-.86-.84zM44.37 13.6c0-.4.3-.75.7-.82.4-.08.8.13.94.5.17.38.03.8-.3 1.03-.35.23-.8.18-1.08-.1-.16-.16-.25-.38-.25-.6zM46.93 16.13c0-.23.1-.44.25-.6.08-.07.17-.13.28-.18.2-.1.44-.1.64 0 .1.05.2.1.3.18.26.27.3.7.12 1.02-.2.32-.6.5-.96.4-.37-.1-.63-.44-.63-.82zM49.5 13.6c-.02-.34.2-.65.5-.78.33-.14.7-.06.94.18.08.08.14.18.18.28.1.2.1.43 0 .64-.04.1-.1.2-.18.28-.24.24-.6.3-.93.18-.3-.13-.52-.44-.5-.78zM52.04 16.13c0-.47.38-.84.85-.84.1 0 .2 0 .32.05.1.04.2.1.28.18.24.24.3.6.18.92-.08.2-.25.38-.46.45-.1.05-.22.07-.33.07-.48 0-.86-.38-.86-.84zM54.6 13.6c0-.1.02-.22.07-.32.04-.1.1-.2.18-.28.16-.16.37-.25.6-.25s.45.1.6.25c.08.08.14.18.2.28.07.2.07.43-.02.64-.04.1-.1.2-.17.28-.17.15-.38.24-.6.24-.12 0-.23-.02-.33-.06-.1-.04-.2-.1-.28-.18-.16-.16-.25-.38-.25-.6zM57.16 16.13v-.17l.05-.15.08-.14.1-.13.13-.1c.06-.03.1-.06.17-.08.05-.03.1-.05.17-.06.1-.04.23-.04.34 0 .05 0 .1 0 .15.04.06 0 .1.04.15.07l.13.1.1.14.1.15c.02.04.05.1.06.16.06.28-.03.57-.23.77l-.13.1c-.05.03-.1.06-.15.07-.05.03-.1.05-.16.06-.12.02-.23.02-.35 0-.05-.02-.1-.03-.15-.06-.05 0-.1-.04-.15-.07l-.13-.1c-.16-.16-.26-.38-.26-.6zM59.7 13.6c0-.1.04-.22.08-.32s.1-.2.18-.28l.13-.1c.03-.03.1-.06.14-.08.05-.02.1-.04.16-.05.06 0 .1 0 .16 0 .06-.02.12-.02.17 0 .06 0 .1 0 .16.04.04.03.1.05.14.08l.13.1c.07.1.14.18.18.28.13.32.06.68-.18.92l-.13.1c-.05.03-.1.06-.15.08-.06.02-.1.04-.17.05-.05 0-.1 0-.17 0-.05 0-.1 0-.16 0-.05 0-.1-.02-.16-.04-.05-.02-.1-.05-.15-.08l-.14-.1-.1-.13c-.04-.04-.06-.1-.08-.15l-.07-.13v-.17zM62.27 16.13c0-.1.02-.22.07-.32.04-.1.1-.2.18-.27l.12-.1c.05-.03.1-.06.16-.08.04-.03.1-.05.15-.06.06-.02.1-.02.17 0 .1 0 .22 0 .32.05.22.08.4.25.46.46.08.16.1.33.07.5 0 .05-.02.1-.05.15-.02.05-.04.1-.07.15l-.1.13c-.1.07-.2.13-.3.17-.1.05-.2.07-.33.07-.06 0-.1 0-.17 0-.05 0-.1-.02-.15-.05-.06-.02-.1-.04-.16-.07l-.12-.1-.1-.13c-.04-.05-.06-.1-.08-.15l-.07-.17v-.17zM64.83 13.6c0-.47.38-.84.85-.84.1 0 .22.02.32.06.1.05.2.1.28.18.24.24.32.6.18.92-.08.2-.24.38-.46.45-.1.05-.2.07-.32.07-.06 0-.12 0-.17 0-.05 0-.1-.02-.15-.05-.05-.03-.1-.05-.15-.08-.04-.03-.1-.07-.13-.1-.16-.17-.25-.4-.24-.62zM18.8 18.66c0-.23.1-.44.25-.6.1-.07.18-.13.28-.18s.22-.06.33-.06c.22 0 .44.1.6.24.2.2.3.5.25.77 0 .05-.02.1-.04.15-.02.05-.05.1-.08.15-.03.04-.06.1-.1.13-.17.15-.4.24-.62.24-.1 0-.22-.02-.33-.07s-.2-.1-.28-.17l-.1-.13c-.03-.05-.06-.1-.08-.15l-.06-.15v-.17zM21.36 21.2c0-.24.1-.45.25-.6.1-.1.2-.15.3-.2.2-.08.43-.08.64 0 .1.05.2.1.28.2.16.15.25.36.25.6 0 .2-.1.43-.25.58-.08.08-.18.14-.28.18-.2.1-.44.1-.65 0-.1-.04-.2-.1-.3-.18l-.1-.12c-.03-.05-.05-.1-.07-.15l-.07-.15v-.16zM23.92 18.66c0-.23.1-.44.25-.6l.12-.1c.04-.03.1-.06.15-.08.04-.03.1-.05.15-.06.06 0 .1 0 .17 0 .47 0 .85.37.85.84 0 .46-.38.84-.85.84-.06 0-.1 0-.17 0-.05 0-.1-.03-.15-.05-.06-.02-.1-.04-.16-.08l-.13-.1c-.16-.16-.25-.38-.25-.6zM26.48 21.2c0-.36.2-.67.52-.8s.7-.05.93.2c.24.23.32.6.18.9-.03.1-.1.2-.17.28-.16.16-.38.25-.6.25s-.45-.1-.6-.25c-.08-.08-.14-.17-.2-.27-.03-.1-.06-.2-.05-.3zM8.58 8.54c0-.1.02-.22.07-.32.04-.1.1-.2.18-.28.16-.15.38-.24.6-.24.1 0 .22.02.32.07.22.07.4.24.46.45.15.32.08.68-.16.92-.2.2-.5.28-.77.23-.28-.06-.52-.25-.62-.5-.05-.1-.07-.22-.07-.33zM11.14 11.07c0-.1.02-.22.06-.32.05-.1.1-.2.18-.28.17-.15.38-.24.6-.24.12 0 .23.02.33.07.22.07.4.24.47.45.14.3.06.68-.18.92-.1.07-.2.13-.3.18-.1.04-.2.06-.3.06-.48 0-.86-.36-.86-.83zM11.14 6c0-.2.08-.43.24-.6.17-.14.38-.23.6-.23.12 0 .23.02.33.07.1.04.2.1.3.17l.1.15c.03.04.05.1.07.14.03.04.06.1.07.14.06.28-.03.57-.23.77-.07.1-.17.15-.27.2-.1.03-.23.06-.34.06-.24 0-.45-.1-.62-.25-.08-.07-.14-.16-.18-.27-.04-.1-.06-.2-.06-.32zM13.7 8.54c0-.22.08-.44.24-.6.16-.15.38-.24.6-.24.12 0 .23.02.33.07.1.04.2.1.28.17.24.25.3.6.18.92-.08.2-.25.38-.46.46-.1.04-.2.06-.33.06-.22 0-.44-.08-.6-.24-.16-.16-.24-.37-.25-.6zM16.25 11.07c0-.1.02-.22.07-.32.07-.2.24-.38.46-.45.1-.05.2-.07.32-.07.23 0 .44.1.6.24.08.08.14.18.2.28.06.15.08.32.05.5 0 .04-.02.1-.05.14-.02.04-.04.1-.07.14-.04.05-.07.1-.1.13-.17.16-.4.24-.63.24-.1 0-.22 0-.32-.05s-.2-.1-.28-.18l-.1-.13c-.04-.04-.06-.1-.08-.15l-.07-.16v-.17zM16.25 6c0-.1.02-.2.07-.3.07-.22.24-.4.46-.46.1-.05.2-.07.32-.07.23 0 .44.1.6.24.08.1.14.2.2.3.12.3.05.67-.2.9-.03.05-.08.08-.12.1-.05.04-.1.07-.16.1-.04 0-.1.03-.15.04-.06 0-.1 0-.17 0-.1 0-.22-.03-.32-.07-.1-.04-.2-.1-.28-.18-.16-.16-.24-.37-.25-.6zM8.58 13.6c0-.1.02-.22.07-.32.04-.1.1-.2.18-.28.16-.15.38-.24.6-.24.1 0 .22.02.32.06.22.08.4.25.46.46.1.15.1.32.08.5 0 .04-.02.1-.05.14-.02.05-.04.1-.07.15-.04.05-.07.1-.1.13-.1.07-.18.13-.3.17-.2.1-.43.1-.64 0-.1-.04-.2-.1-.28-.17-.16-.16-.26-.37-.26-.6zM11.14 16.13c0-.23.08-.44.24-.6.17-.15.38-.24.6-.24.12 0 .23 0 .33.05s.2.1.3.18l.1.13c.03.05.05.1.07.15.03.05.06.1.07.16.06.28-.03.57-.23.77-.07.07-.17.13-.27.17-.1.05-.23.07-.34.07-.24 0-.45-.1-.62-.24-.08-.08-.14-.18-.18-.28-.04-.1-.06-.2-.06-.32zM13.7 13.6c0-.22.08-.44.24-.6.04-.03.08-.07.13-.1.04-.03.1-.06.15-.08.05-.03.1-.05.15-.06.06 0 .12 0 .17 0 .12 0 .23.02.33.06.1.05.2.1.28.18.24.24.3.6.18.92-.04.1-.1.2-.18.28-.08.07-.18.13-.28.18s-.2.06-.33.06c-.05 0-.1 0-.17 0-.05 0-.1-.02-.15-.05-.05-.03-.1-.05-.15-.08-.05-.03-.1-.07-.13-.1-.08-.1-.14-.18-.18-.28-.05-.1-.07-.22-.07-.34zM16.25 16.13c0-.23.1-.44.25-.6.08-.07.17-.13.28-.18.1-.04.2-.06.32-.06.23 0 .44.08.6.23.04.04.08.08.1.13l.1.15c.02.05.04.1.05.16.04.16.02.33-.05.5-.04.1-.1.18-.18.27-.16.15-.4.24-.62.24-.1 0-.22-.02-.32-.07-.22-.07-.4-.24-.46-.45-.05-.1-.07-.2-.07-.32zM8.58 18.66c0-.23.1-.44.25-.6.08-.07.17-.13.28-.18.2-.1.45-.1.65 0 .1.04.2.1.3.18.02.04.06.08.1.13l.06.14c.05.04.07.1.08.15.06.27-.02.56-.23.76-.08.07-.17.13-.28.17-.1.05-.22.08-.34.07-.22 0-.44-.1-.6-.24-.08-.08-.14-.18-.18-.28-.05-.1-.07-.2-.07-.32zM11.14 21.2c0-.12.02-.23.06-.33.05-.1.1-.2.18-.28.17-.17.38-.25.6-.26.12 0 .23.03.33.07.22.1.4.25.47.47.14.3.06.67-.18.9-.1.1-.2.15-.3.2-.1.03-.2.06-.3.06-.48 0-.86-.38-.86-.84zM13.7 18.66c0-.1 0-.22.06-.32.04-.1.1-.2.18-.28l.13-.1c.04-.03.1-.06.15-.08.05-.03.1-.05.15-.06.06 0 .12 0 .17 0 .12 0 .23.02.33.06.2.08.38.25.46.46.13.3.06.67-.18.92-.08.07-.18.13-.28.17-.1.05-.2.07-.33.07-.05 0-.1 0-.17 0-.05 0-.1-.03-.15-.05-.05-.02-.1-.04-.15-.08l-.13-.1-.1-.12c-.04-.05-.06-.1-.08-.15l-.07-.17v-.17zM16.25 21.2c0-.24.1-.45.25-.6.08-.1.17-.15.28-.2.1-.03.2-.06.32-.06.23 0 .44.1.6.25.25.23.32.6.2.9-.06.1-.12.2-.2.28l-.12.1c-.05.04-.1.06-.16.08-.04.03-.1.04-.15.05-.06.02-.1.02-.17 0-.1 0-.22 0-.32-.06-.1-.04-.2-.1-.28-.17-.08-.08-.14-.18-.18-.28-.04-.1-.07-.2-.07-.3zM.9 11.07c0-.1.03-.22.08-.32.07-.2.24-.38.46-.45.2-.1.44-.1.64 0 .22.07.4.24.46.45.1.2.1.44 0 .64-.04.1-.1.2-.17.27-.2.2-.5.28-.77.23s-.52-.25-.62-.5c-.05-.1-.07-.22-.07-.33zM3.47 8.54c0-.1.02-.22.06-.32.05-.1.1-.2.18-.28.28-.26.68-.32 1.02-.15.33.16.5.53.44.9s-.38.64-.75.67c-.37.04-.72-.17-.87-.5-.04-.1-.06-.22-.06-.33zM6.02 11.07c0-.34.2-.65.53-.78.32-.14.7-.07.93.17.16.16.25.38.25.6s-.1.44-.25.6c-.24.24-.6.32-.93.18-.32-.13-.53-.44-.53-.78zM6.02 6c0-.1.03-.2.07-.3.12-.32.43-.52.77-.52.35 0 .65.2.8.5.12.33.05.7-.2.93l-.12.1c-.05.04-.1.07-.15.1-.05 0-.1.03-.16.04-.1.02-.22.02-.34 0-.05 0-.1-.03-.15-.05-.05-.03-.1-.06-.15-.1l-.13-.1c-.16-.15-.25-.36-.25-.6zM.9 16.13c0-.1.03-.22.08-.32.07-.2.24-.37.46-.45.2-.1.44-.1.64 0 .22.08.4.25.46.46.14.32.07.68-.17.93-.25.24-.62.3-.94.18-.32-.12-.52-.43-.52-.77zM3.47 13.6c0-.1.02-.22.06-.32.04-.1.1-.2.18-.28.17-.16.4-.25.62-.25s.44.1.6.25c.08.08.14.18.18.28.14.3.06.68-.18.92-.16.16-.38.25-.6.25s-.45-.1-.6-.25c-.17-.16-.26-.38-.25-.6zM6.02 16.13c0-.1.03-.22.07-.32.03-.1.1-.2.17-.27l.13-.1c.04-.03.1-.06.15-.08.05-.03.1-.05.15-.06.12-.04.23-.04.34 0 .06 0 .1 0 .16.04.05 0 .1.04.15.07l.13.1c.07.1.14.2.18.3.08.2.08.43 0 .63-.04.1-.1.2-.18.28l-.13.1c-.05.04-.1.07-.15.1-.05 0-.1.03-.16.04-.1.02-.22.02-.34 0-.05 0-.1-.03-.15-.05-.05-.03-.1-.06-.15-.1l-.13-.1c-.08-.07-.14-.16-.18-.27-.05-.1-.07-.2-.08-.3zM3.47 18.66c0-.1.02-.22.06-.32.04-.1.1-.2.18-.28.17-.16.4-.25.62-.25s.44.1.6.26c.08.08.14.18.18.28.14.3.06.67-.18.92-.24.24-.6.3-.93.18s-.54-.44-.53-.78zM6.02 21.2c0-.12.03-.23.07-.33.03-.1.1-.2.17-.28l.13-.1c.04-.05.1-.07.15-.1.05-.02.1-.04.15-.06.12-.02.23-.02.34 0 .06 0 .1.03.16.05.05 0 .1.04.15.07l.13.1c.07.08.14.18.18.28.08.2.08.43 0 .64-.04.1-.1.2-.18.27-.04.03-.08.07-.13.1s-.1.06-.15.07c-.05.03-.1.05-.16.06-.1.02-.22.02-.34 0-.05 0-.1-.03-.15-.06-.05 0-.1-.04-.15-.07-.05-.03-.1-.07-.13-.1-.08-.08-.14-.18-.18-.28-.05-.1-.07-.2-.08-.3zM29.03 18.66c0-.47.38-.84.85-.84.12 0 .23.02.33.06s.2.1.3.18c.23.24.3.6.17.92-.08.2-.25.38-.46.45-.1.05-.2.07-.32.07-.22 0-.44-.1-.6-.24-.08-.1-.14-.18-.18-.28-.04-.1-.07-.2-.07-.32zM31.6 21.2c0-.48.37-.86.84-.86.23 0 .45.1.6.25.25.23.32.6.2.9-.06.1-.12.2-.2.28-.15.16-.37.25-.6.25-.23 0-.44-.1-.6-.25-.08-.08-.14-.17-.18-.27-.05-.1-.07-.2-.07-.3zM34.15 18.66c0-.4.3-.75.7-.82.38-.08.78.13.94.5.14.38 0 .8-.33 1.03-.34.22-.8.17-1.08-.1-.16-.17-.25-.4-.25-.6zM36.7 21.2c0-.42.3-.76.7-.84.4-.07.8.14.94.5.16.38.02.8-.32 1.03-.34.22-.8.17-1.07-.12-.16-.16-.25-.37-.25-.6zM39.26 18.66c0-.4.3-.75.7-.82.4-.08.8.13.94.5.15.38.02.8-.32 1.03-.34.22-.8.17-1.07-.1-.15-.17-.24-.4-.24-.6zM41.82 21.2c0-.48.38-.86.85-.86.1 0 .22.03.32.07.1.05.2.1.27.2.16.15.25.36.25.6 0 .2-.1.43-.25.58-.08.08-.17.14-.28.18-.1.04-.22.07-.33.07-.47 0-.86-.38-.86-.84zM44.37 18.66c0-.34.2-.65.53-.8s.68-.04.93.2c.16.16.25.37.25.6 0 .22-.1.44-.25.6-.24.24-.6.3-.93.18s-.53-.44-.53-.78zM46.93 21.2c0-.42.3-.76.7-.84.4-.07.8.14.94.5.15.38.02.8-.32 1.03-.34.22-.8.17-1.07-.12-.16-.16-.25-.37-.25-.6zM49.5 18.66c0-.23.08-.44.23-.6.08-.08.18-.14.28-.18.22-.1.46-.1.66 0 .22.08.38.25.46.46.1.2.1.43 0 .64-.04.1-.1.2-.18.28-.24.24-.6.3-.93.18-.3-.13-.52-.44-.5-.78zM52.04 21.2c0-.24.1-.45.25-.6.07-.1.17-.15.27-.2.2-.08.44-.08.65 0 .1.05.2.1.28.2.2.2.3.47.25.75 0 .06-.03.1-.05.16-.02.06-.05.1-.08.16l-.1.12c-.1.08-.18.14-.3.18-.1.05-.2.07-.33.07-.23 0-.45-.1-.6-.25l-.1-.12c-.04-.05-.07-.1-.1-.15l-.06-.15v-.16zM54.6 18.66c0-.34.2-.65.52-.8s.7-.04.94.2c.07.08.13.17.18.28.08.2.08.43 0 .64-.05.1-.1.2-.18.28-.17.15-.38.24-.6.24-.12 0-.23-.02-.33-.07-.1-.04-.2-.1-.28-.17-.16-.17-.25-.38-.25-.6zM57.16 21.2c0-.12.02-.23.06-.33.05-.1.1-.2.18-.28.04-.05.1-.08.13-.1.05-.05.1-.07.15-.1.05-.02.1-.04.16-.06.1-.02.23-.02.34 0 .05 0 .1.03.15.05.06 0 .1.04.15.07.05.03.1.07.13.1.17.16.26.37.26.6 0 .22-.1.44-.25.6l-.12.1c-.04.03-.1.06-.15.07-.05.03-.1.05-.15.06-.1.02-.23.02-.34 0-.06 0-.1-.03-.16-.06-.05 0-.1-.04-.15-.07l-.13-.1c-.07-.08-.14-.18-.18-.28-.04-.1-.06-.2-.06-.3zM59.7 18.66v-.17l.06-.16.08-.15.1-.14.13-.1c.05-.03.1-.06.15-.08.05-.02.1-.04.17-.05.04 0 .1 0 .16 0 .06-.02.12-.02.17 0 .06 0 .1 0 .16.04.04 0 .1.04.14.07l.13.1.1.13.08.15c.03.05.05.1.07.17.03.15 0 .32-.05.48-.05.1-.1.2-.18.28l-.14.1c-.05.03-.1.06-.15.07-.04.03-.1.04-.15.05-.06 0-.1 0-.17 0-.05 0-.1 0-.16 0s-.1-.02-.16-.05c-.06 0-.1-.04-.16-.07l-.12-.1c-.17-.16-.26-.38-.27-.6zM62.27 21.2V21l.05-.15.08-.16.1-.1.13-.1c.04-.05.1-.07.15-.1.05-.02.1-.04.17-.06.06 0 .1 0 .17 0 .1 0 .22.03.32.07.1.05.2.1.3.2.23.23.3.6.16.9-.04.1-.1.2-.17.28-.1.08-.18.14-.3.18-.1.04-.2.07-.3.07-.07 0-.12 0-.18 0-.05 0-.1-.03-.15-.05-.06-.02-.1-.05-.16-.08l-.12-.1c-.16-.16-.25-.38-.25-.6zM64.83 18.66v-.17l.05-.16.07-.15.1-.14c.17-.16.4-.25.63-.24.1 0 .22.02.32.06.1.05.2.1.28.18.24.24.32.6.18.92-.08.2-.24.38-.46.45-.1.05-.2.07-.32.07-.47 0-.85-.38-.85-.84z"/></g></g><g fill="#6D6DAA" fill-rule="nonzero" opacity=".1" mask="url(#c)"><g id="Shape"><path d="M49.2 39.68c0 .22-.1.43-.25.6-.1.07-.18.13-.28.17-.1.04-.22.07-.33.07-.22 0-.44-.1-.6-.25-.2-.2-.3-.48-.25-.76 0-.05.02-.1.04-.14.02-.06.05-.1.08-.15.03-.04.06-.08.1-.12.17-.16.4-.25.62-.25.1 0 .22.03.33.07.1.04.2.1.28.18l.1.13c.03.06.06.1.08.16l.06.15v.18zM46.64 37.15c0 .22-.1.43-.25.6-.1.07-.2.13-.3.17-.2.1-.43.1-.64 0-.1-.04-.2-.1-.28-.17-.16-.16-.25-.38-.25-.6s.1-.44.25-.6c.08-.08.18-.14.28-.18.2-.1.44-.1.65 0 .1.04.2.1.3.18.15.16.24.37.24.6zM46.64 42.2c0 .23-.1.44-.25.6-.1.08-.2.14-.3.18-.2.1-.43.1-.64 0-.1-.04-.2-.1-.28-.18-.24-.24-.3-.6-.18-.92.08-.2.25-.37.46-.45.2-.1.44-.1.65 0 .22.08.4.24.47.45.05.1.07.2.07.32zM44.08 39.68c0 .1-.02.22-.07.32-.03.1-.1.2-.16.27-.17.16-.4.25-.6.25-.24 0-.46-.1-.62-.25-.07-.08-.13-.17-.17-.27-.1-.2-.1-.44 0-.64.04-.1.1-.2.17-.28.16-.16.38-.25.6-.25.24 0 .46.1.62.25.07.08.13.17.17.28.06.1.1.2.08.32zM41.52 37.15c0 .1-.02.22-.06.32-.05.1-.1.2-.18.28-.16.16-.38.25-.6.25s-.45-.1-.6-.25c-.1-.1-.15-.18-.2-.28-.12-.32-.05-.68.2-.92.23-.24.6-.32.92-.2.32.15.53.45.53.8zM41.52 42.2c0 .35-.2.66-.52.8-.32.12-.7.05-.93-.2-.24-.24-.32-.6-.18-.92.03-.1.1-.2.17-.27.16-.15.38-.24.6-.24s.45.1.6.25c.08.1.14.18.2.28.03.1.06.2.05.32zM38.97 39.68c0 .46-.38.84-.85.84-.1 0-.22-.03-.33-.07-.1-.04-.2-.1-.3-.18-.23-.24-.3-.6-.17-.9.08-.23.25-.4.46-.47.1-.04.2-.07.32-.07.22 0 .44.1.6.25.08.08.14.17.18.28.04.1.07.2.07.32zM36.4 37.15c0 .4-.28.74-.68.82s-.8-.14-.95-.5c-.15-.38-.02-.8.32-1.03.33-.22.78-.18 1.06.1.16.17.25.38.25.6zM36.4 42.2c0 .47-.37.85-.84.85-.23 0-.45-.1-.6-.25-.25-.24-.32-.6-.2-.92.06-.1.12-.2.2-.27.15-.15.37-.24.6-.24.23 0 .44.1.6.25.08.1.14.18.18.28.05.1.07.2.07.32zM33.86 39.68c-.04.3-.23.56-.5.68s-.6.1-.86-.08c-.25-.18-.38-.47-.35-.77 0-.05.03-.1.05-.14.02-.06.04-.1.08-.15l.1-.12c.24-.26.62-.34.95-.2.32.13.53.45.53.8zM31.3 37.15c0 .4-.3.74-.7.82s-.8-.14-.94-.5-.02-.8.32-1.03c.33-.22.78-.18 1.07.1.16.17.24.38.25.6zM31.3 42.2c0 .4-.3.75-.7.83s-.8-.14-.94-.5-.02-.8.32-1.03c.33-.22.78-.18 1.07.1.16.17.24.38.25.6zM28.74 39.68c0 .22-.1.43-.25.6-.17.15-.38.24-.6.24-.48 0-.86-.38-.86-.84 0-.47.38-.85.85-.85.46 0 .84.38.84.85zM26.18 37.15c0 .46-.38.84-.85.84-.1 0-.22-.03-.32-.08-.1-.04-.2-.1-.27-.17-.16-.16-.26-.38-.26-.6s.1-.44.26-.6c.08-.08.17-.14.28-.18.1-.05.22-.07.33-.07.47 0 .86.38.86.85zM26.18 42.2c0 .47-.38.85-.85.85-.1 0-.22-.03-.32-.07-.1-.04-.2-.1-.27-.18-.16-.15-.26-.37-.26-.6 0-.22.1-.44.26-.6.08-.07.17-.13.28-.17.1-.04.22-.07.33-.07.47 0 .86.38.86.84zM23.63 39.68c0 .4-.3.74-.7.82s-.8-.14-.94-.5-.03-.8.3-1.03c.34-.22.8-.18 1.08.1.16.17.24.38.25.6zM21.07 37.15c0 .4-.3.74-.7.82s-.8-.14-.94-.5c-.15-.38-.02-.8.32-1.03.34-.22.8-.18 1.07.1.16.17.25.38.25.6zM21.07 42.2c0 .4-.3.75-.7.83s-.8-.14-.94-.5c-.15-.38-.02-.8.32-1.03.34-.22.8-.18 1.07.1.16.17.25.38.25.6zM18.5 39.68c.02.1 0 .22-.05.32-.04.1-.1.2-.18.27-.16.16-.38.25-.6.25-.24 0-.45-.1-.6-.25-.1-.08-.15-.17-.2-.27-.13-.32-.05-.68.2-.92.23-.25.6-.32.92-.2.3.14.52.45.5.8zM15.96 37.15c0 .46-.38.84-.85.84-.1 0-.2-.03-.32-.08-.1-.04-.2-.1-.28-.17-.07-.1-.14-.18-.18-.28-.13-.32-.06-.68.18-.92.08-.08.18-.14.28-.18.1-.04.22-.06.33-.07.48 0 .86.38.86.85zM15.96 42.2c0 .47-.38.85-.85.85-.1 0-.2-.03-.32-.07-.2-.08-.38-.24-.46-.45-.13-.32-.06-.68.18-.92.08-.07.18-.13.28-.17.1-.04.22-.07.33-.07.48 0 .86.38.86.84zM13.4 39.68c0 .1-.02.22-.07.32-.04.1-.1.2-.18.27-.16.16-.37.25-.6.25s-.45-.1-.6-.25c-.08-.08-.14-.17-.2-.27-.07-.2-.07-.44 0-.64.06-.1.12-.2.2-.28.24-.25.6-.32.93-.2s.52.45.52.8zM10.85 37.15c0 .22-.1.43-.25.6l-.13.1c-.05.03-.1.05-.15.07-.05.03-.1.06-.16.07-.1 0-.23 0-.34 0-.05-.02-.1-.04-.15-.06-.06-.02-.1-.04-.15-.08l-.13-.1c-.23-.2-.32-.5-.26-.78 0-.05.03-.1.05-.15 0-.06.04-.1.07-.15l.1-.13c.04-.04.08-.07.13-.1s.1-.06.15-.08c.05-.02.1-.04.16-.05.12-.02.23-.02.35 0 .05 0 .1.03.15.05.05.02.1.05.15.08.05.03.1.06.13.1l.1.13c.04.04.06.1.08.15l.1.15v.17zM10.85 42.2c0 .12-.03.22-.07.33-.04.1-.1.2-.18.27l-.13.1c-.05.04-.1.06-.15.08-.05.03-.1.05-.16.07-.1.02-.23.02-.34 0-.05 0-.1-.03-.15-.05-.06-.02-.1-.05-.15-.08l-.13-.1c-.17-.16-.26-.37-.26-.6s.1-.44.25-.6c.03-.03.07-.07.12-.1.04-.03.1-.06.15-.07.05-.03.1-.04.15-.05.1-.03.23-.03.34 0 .06 0 .1.02.16.05.05 0 .1.04.15.07.04.03.1.07.13.1.07.1.13.18.18.28.04.1.06.2.07.3zM8.3 39.68c0 .1-.04.22-.08.32s-.1.2-.18.27c-.04.04-.08.07-.13.1-.03.04-.1.06-.14.08-.05.03-.1.04-.16.05-.06 0-.1.02-.16.02s-.12 0-.17 0c-.06 0-.1-.03-.16-.05-.04-.02-.1-.05-.14-.08-.05-.04-.1-.07-.13-.1-.07-.1-.14-.18-.18-.3-.13-.3-.06-.66.18-.9.16-.17.38-.26.6-.27.06 0 .1 0 .17 0 .05 0 .1.03.16.05.05.02.1.05.15.08l.14.1c.16.17.25.4.25.62zM5.73 37.15v.17l-.05.15-.08.15-.1.13-.13.1c-.04.03-.1.05-.15.07-.05.03-.1.06-.17.07-.06 0-.1 0-.17 0-.1 0-.22-.03-.32-.08-.1-.04-.2-.1-.3-.17-.23-.25-.3-.6-.16-.92.07-.2.24-.38.46-.46.1-.04.2-.06.32-.07.06 0 .1 0 .17 0 .05 0 .1.03.15.05.06.02.1.05.16.08l.12.1c.08.08.14.18.18.28.05.12.07.23.07.35zM5.73 42.2c0 .12-.02.22-.07.33-.04.1-.1.2-.18.27l-.12.1c-.05.04-.1.06-.16.08-.04.03-.1.05-.15.07-.06 0-.1 0-.17 0-.1 0-.22-.03-.32-.07-.22-.08-.4-.24-.46-.45-.14-.32-.07-.68.17-.92.1-.07.18-.13.3-.17.1-.04.2-.07.3-.07.07 0 .12 0 .18 0 .05 0 .1.03.15.05.06.03.1.06.16.1l.12.1.1.12c.04.04.06.1.08.15l.07.17v.16zM3.17 39.68c0 .1-.02.22-.06.32-.04.1-.1.2-.17.27-.17.16-.38.25-.6.25-.12 0-.23-.03-.33-.07-.2-.08-.38-.24-.46-.45-.07-.16-.1-.33-.07-.5 0-.05.03-.1.05-.14.02-.06.05-.1.08-.16.03-.04.06-.08.1-.12.08-.08.18-.14.28-.18.1-.05.23-.07.34-.07.06 0 .12 0 .17 0 .05 0 .1.03.15.05.05.02.1.05.15.08l.13.1.1.13c.03.03.06.1.08.14l.07.17v.18zM49.2 34.62c0 .22-.1.44-.25.6-.1.07-.18.13-.28.17-.1.04-.22.06-.33.06-.26 0-.5-.1-.67-.3s-.23-.46-.18-.7c0-.06.02-.1.04-.16s.05-.1.08-.15c.03-.05.06-.1.1-.13.17-.16.4-.25.62-.24.1 0 .22.02.33.06s.2.1.28.18l.1.13c.03.04.06.1.08.15l.06.15v.17zM46.64 32.1c0 .2-.1.43-.25.6-.1.06-.2.12-.3.16-.2.1-.43.1-.64 0-.1-.04-.2-.1-.28-.17-.16-.17-.25-.4-.25-.6 0-.24.1-.45.25-.6.08-.08.18-.14.28-.2.2-.08.44-.08.65 0 .1.06.2.12.3.2.15.15.24.37.24.6zM44.08 34.62c0 .1-.02.22-.07.32-.03.1-.1.2-.16.28-.17.15-.4.24-.6.24-.36 0-.66-.2-.8-.52-.13-.32-.06-.68.18-.92.17-.15.38-.24.6-.24.07 0 .12 0 .18 0 .05 0 .1.02.15.05.06 0 .1.04.16.07l.13.1c.16.17.25.4.25.62zM41.52 32.1c-.03.3-.22.55-.5.68-.27.12-.6.1-.85-.1-.25-.16-.38-.46-.35-.76 0-.05.03-.1.05-.15.02-.06.05-.1.08-.15l.1-.13c.16-.17.38-.26.6-.26.23 0 .45.1.6.25l.1.12c.04.04.07.1.1.15l.07.15v.17zM38.97 34.62c0 .46-.38.84-.85.84-.1 0-.22-.02-.33-.07-.1-.05-.2-.1-.3-.18-.15-.16-.24-.38-.24-.6 0-.23.1-.44.25-.6.1-.07.2-.13.3-.18s.2-.06.32-.07c.47 0 .85.38.85.85zM36.4 32.1c0 .2-.08.43-.24.6-.33.3-.87.3-1.2-.02s-.33-.86 0-1.2.87-.32 1.2 0c.08.1.14.18.18.3.05.1.07.2.07.3zM33.86 34.62c0 .1-.03.22-.07.32-.06.1-.12.2-.2.28-.15.16-.37.25-.6.25-.22 0-.44-.1-.6-.25-.08-.1-.14-.18-.18-.28-.13-.32-.06-.68.18-.92s.6-.32.93-.18c.32.13.53.44.53.78zM31.3 32.1c0 .4-.3.74-.7.8s-.8-.12-.94-.5-.02-.8.32-1.02c.33-.22.78-.17 1.07.1.16.17.24.4.25.6zM28.74 34.62c0 .22-.1.44-.25.6-.17.15-.38.24-.6.24-.48 0-.86-.38-.86-.84 0-.47.38-.84.85-.84.46 0 .84.37.84.84zM26.18 32.1c0 .45-.38.83-.85.83-.1 0-.22-.02-.32-.06-.1-.04-.2-.1-.27-.18-.16-.17-.26-.4-.26-.6 0-.23.1-.45.26-.6.08-.1.17-.15.28-.2.1-.03.22-.05.33-.05.47 0 .86.37.86.84zM23.63 34.62c0 .4-.3.74-.7.82-.4.08-.8-.14-.94-.5-.17-.38-.03-.8.3-1.03.34-.2.8-.17 1.08.12.16.16.24.38.25.6zM21.07 32.1c0 .2-.1.43-.25.6-.08.06-.17.12-.28.16-.2.1-.44.1-.64 0-.1-.04-.2-.1-.3-.17-.26-.28-.3-.7-.12-1.03.2-.33.6-.5.96-.4.37.1.63.44.63.82zM18.5 34.62c.02.34-.2.65-.5.78-.33.13-.7.06-.94-.18-.08-.08-.14-.18-.18-.28-.1-.2-.1-.44 0-.64.04-.1.1-.2.18-.28.24-.24.6-.32.93-.2.3.15.52.46.5.8zM15.96 32.1c0 .45-.38.83-.85.83-.1 0-.2-.02-.32-.06-.1-.04-.2-.1-.28-.18-.24-.26-.3-.62-.18-.93.08-.2.25-.38.46-.46.1-.03.22-.05.33-.05.48 0 .86.37.86.84zM13.4 34.62c0 .1-.02.22-.07.32-.04.1-.1.2-.18.28-.16.16-.37.25-.6.25s-.45-.1-.6-.25c-.08-.08-.14-.18-.2-.28-.07-.2-.07-.44 0-.64.06-.1.12-.2.2-.28.16-.15.37-.24.6-.25.1 0 .22.03.32.07.1.04.2.1.28.18.16.16.25.38.25.6zM10.85 32.1v.16l-.06.15-.08.16-.1.13-.13.1c-.06.02-.1.05-.17.07-.05.03-.1.05-.17.06-.1.03-.23.03-.34 0-.05 0-.1-.02-.15-.05-.06-.02-.1-.04-.15-.07l-.13-.1-.1-.12-.1-.15c-.02-.06-.05-.1-.06-.17-.06-.28.03-.57.23-.77l.13-.1c.05-.04.1-.07.15-.1.05 0 .1-.03.16-.04.12-.02.23-.02.35 0 .05 0 .1.03.15.05.05.03.1.06.15.1l.13.1c.16.15.26.36.27.6zM8.3 34.62c0 .1-.04.22-.08.32s-.1.2-.18.28l-.13.1c-.03.03-.1.06-.14.07-.05.02-.1.04-.16.04s-.1.02-.16.02-.12 0-.17 0c-.06 0-.1-.02-.16-.05-.04 0-.1-.03-.14-.07l-.13-.1c-.07-.08-.14-.17-.18-.27-.13-.32-.06-.68.18-.92l.13-.1c.05-.04.1-.06.15-.08.06-.02.1-.04.17-.05.05 0 .1 0 .17 0 .05 0 .1 0 .16 0 .05.02.1.03.16.06.05.02.1.04.15.08l.14.1.1.12c.04.05.06.1.08.15l.07.15v.17zM5.73 32.1c0 .1-.02.2-.07.3-.04.1-.1.2-.18.3l-.12.1c-.05.02-.1.05-.16.06-.04.03-.1.06-.15.07-.06 0-.1 0-.17 0-.1 0-.22-.02-.32-.07-.22-.07-.4-.24-.46-.45-.08-.14-.1-.3-.07-.48 0-.05.02-.1.05-.15.02-.06.04-.1.07-.15l.1-.13c.1-.08.2-.14.3-.2.1-.03.2-.06.33-.05.06 0 .1 0 .17 0 .05 0 .1.02.15.05.06 0 .1.04.16.07l.12.1.1.13c.04.05.06.1.08.15l.07.17v.17zM3.17 34.62c0 .46-.38.84-.85.84-.1 0-.22-.02-.32-.07s-.2-.1-.28-.18c-.24-.25-.32-.6-.18-.92.08-.2.24-.38.46-.46.1-.04.2-.06.32-.07.06 0 .12 0 .17 0 .05 0 .1.03.15.06.05 0 .1.04.15.07.04.03.1.07.13.1.16.17.25.4.24.62zM49.2 29.56c0 .22-.1.44-.25.6-.1.07-.18.13-.28.18s-.22.06-.33.06c-.22 0-.44-.1-.6-.24-.2-.2-.3-.5-.25-.77 0-.06.02-.1.04-.16.02-.05.05-.1.08-.15.03-.06.06-.1.1-.14.17-.16.4-.24.62-.24.1 0 .22.02.33.06s.2.1.28.18l.1.13c.03.03.06.1.08.14l.06.15v.16zM46.64 27.03c0 .22-.1.44-.25.6-.1.07-.2.13-.3.18-.2.1-.43.1-.64 0-.1-.04-.2-.1-.28-.17-.16-.16-.25-.37-.25-.6 0-.22.1-.44.25-.6.08-.07.18-.13.28-.17.2-.1.44-.1.65 0 .1.04.2.1.3.17l.1.13c.03.05.05.1.07.15l.07.16v.17zM44.08 29.56c0 .22-.1.44-.24.6l-.13.1c-.04.03-.1.06-.15.08-.04.03-.1.05-.15.06-.06 0-.1 0-.17 0-.47 0-.85-.37-.85-.84s.38-.84.85-.84c.06 0 .1 0 .17 0 .05 0 .1.02.15.05.06.02.1.04.16.07l.13.1c.16.17.25.4.25.62zM41.52 27.03c0 .34-.2.65-.52.78-.32.15-.7.07-.93-.17-.24-.24-.32-.6-.18-.92.03-.1.1-.2.17-.27.16-.16.38-.25.6-.25s.45.1.6.25c.08.1.14.18.2.28.03.1.06.22.05.33zM59.42 39.68c0 .1-.02.22-.07.32-.04.1-.1.2-.17.27-.17.16-.38.25-.6.25-.12 0-.23-.03-.33-.07-.22-.08-.4-.24-.46-.45-.15-.32-.08-.68.16-.92.2-.2.5-.3.77-.23.28.06.52.25.62.5.05.1.07.22.07.33zM56.87 37.15c0 .1-.03.22-.07.32-.05.1-.1.2-.18.28-.16.15-.38.24-.6.24-.12 0-.23-.03-.33-.08-.22-.07-.4-.24-.47-.45-.13-.32-.06-.68.18-.92.1-.08.2-.14.3-.18.1-.04.2-.06.3-.07.48 0 .87.38.87.85zM56.87 42.2c0 .23-.1.44-.25.6-.16.16-.38.24-.6.25-.12 0-.23-.03-.33-.07-.1-.04-.2-.1-.3-.18l-.1-.13c-.03-.04-.05-.1-.07-.14-.03-.05-.05-.1-.07-.16-.06-.27.03-.56.23-.76.07-.07.17-.13.27-.17.1-.05.23-.07.34-.07.24 0 .46.1.62.25.08.1.14.18.18.28.04.1.06.2.07.32zM54.3 39.68c0 .22-.08.43-.24.6-.16.15-.38.24-.6.24-.1 0-.22-.03-.33-.07-.1-.04-.2-.1-.28-.18-.24-.24-.3-.6-.18-.9.08-.23.25-.4.46-.47.1-.04.22-.07.33-.07.22 0 .44.1.6.25.16.16.24.37.25.6zM51.75 37.15c0 .1-.02.22-.07.32-.07.2-.24.38-.46.45-.1.05-.2.07-.32.07-.23 0-.44-.1-.6-.25-.08-.1-.14-.18-.18-.28-.08-.16-.1-.33-.07-.5 0-.04.02-.1.05-.14.02-.06.04-.1.08-.15.03-.05.06-.1.1-.13.16-.16.4-.25.62-.25.1 0 .22.03.32.07.1.04.2.1.3.18l.1.13c.02.04.04.1.06.15l.07.15v.17zM51.75 42.2c0 .12-.02.22-.07.33-.07.2-.24.37-.46.45-.1.04-.2.07-.32.07-.23 0-.44-.1-.6-.25-.08-.08-.14-.17-.18-.27-.14-.32-.07-.68.17-.92.04-.03.08-.06.12-.1.05-.03.1-.05.16-.07.04-.02.1-.04.15-.05.06 0 .1 0 .17 0 .1 0 .22.02.32.07.1.04.2.1.3.17.14.16.22.37.23.6zM59.42 34.62c0 .1-.02.22-.07.32-.04.1-.1.2-.17.28-.17.15-.38.24-.6.24-.12 0-.23-.02-.33-.07-.22-.08-.4-.25-.46-.46-.1-.15-.1-.32-.08-.5 0-.04.02-.1.05-.14.02-.06.04-.1.08-.15.03-.05.06-.1.1-.13.08-.08.17-.14.28-.18.2-.1.44-.1.65 0 .1.05.2.1.28.18.16.16.26.37.26.6zM56.87 32.1c0 .2-.1.43-.25.6-.16.14-.38.23-.6.23-.12 0-.23-.02-.33-.07-.1-.04-.2-.1-.3-.17l-.1-.15c-.03-.04-.05-.1-.07-.14-.03-.04-.05-.1-.07-.14-.06-.28.03-.57.23-.77.07-.08.17-.14.27-.2.1-.03.23-.06.34-.05.24 0 .46.1.62.24.08.07.14.16.18.27.04.1.06.2.07.32zM54.3 34.62c0 .22-.08.44-.24.6-.04.03-.08.07-.13.1-.04.03-.1.06-.15.07-.05.02-.1.05-.15.06-.06 0-.12 0-.17 0-.1 0-.22-.02-.33-.07-.1-.05-.2-.1-.28-.18-.24-.25-.3-.6-.18-.92.04-.1.1-.2.18-.28.08-.07.18-.13.28-.18s.22-.06.33-.07c.05 0 .1 0 .17 0 .05 0 .1.03.15.06.05 0 .1.04.15.07.05.03.1.07.13.1.08.08.14.18.18.28.05.1.07.22.07.34zM51.75 32.1c0 .2-.1.43-.24.6-.08.06-.17.12-.28.16-.1.05-.2.07-.32.07-.23 0-.44-.1-.6-.24-.04-.05-.08-.1-.1-.14l-.08-.15c-.03-.04-.06-.1-.07-.14-.03-.17-.02-.34.05-.5.04-.1.1-.2.18-.27.17-.17.4-.26.62-.25.1 0 .22.02.32.06.22.1.4.26.46.47.05.1.07.2.07.32zM59.42 29.56c0 .22-.1.44-.24.6-.1.07-.18.13-.3.18-.2.08-.43.08-.63 0-.1-.04-.2-.1-.3-.18-.02-.04-.06-.08-.1-.13l-.06-.15c-.04-.05-.07-.1-.08-.15-.06-.28.03-.57.23-.77.08-.08.17-.14.28-.18.1-.05.22-.07.34-.06.23 0 .44.1.6.24.08.08.14.18.18.28.05.1.07.2.07.32zM56.87 27.03c0 .1-.03.22-.07.32-.05.1-.1.2-.18.28-.16.15-.38.24-.6.24-.12 0-.23-.02-.33-.06-.22-.07-.4-.24-.47-.45-.13-.3-.06-.68.18-.92.1-.07.2-.13.3-.17.1-.05.2-.07.3-.07.48 0 .87.37.87.83zM54.3 29.56c0 .1 0 .22-.06.32-.04.1-.1.2-.18.28l-.13.1c-.04.03-.1.06-.15.08-.05.03-.1.05-.15.06-.06 0-.12 0-.17 0-.1 0-.22-.02-.33-.06-.2-.08-.38-.25-.46-.46-.13-.3-.06-.68.18-.92.08-.07.18-.13.28-.18.1-.04.2-.07.33-.06.05 0 .1 0 .17 0 .05 0 .1.02.15.05.05.02.1.04.15.07l.13.1.1.13c.04.05.06.1.08.15l.07.17v.16zM51.75 27.03c0 .22-.1.44-.24.6-.08.07-.17.13-.28.18-.1.05-.2.07-.32.07-.23 0-.44-.1-.6-.24-.25-.24-.32-.6-.18-.92.04-.1.1-.2.17-.27l.12-.1c.05-.03.1-.05.16-.07.04-.03.1-.05.15-.06.06 0 .1 0 .17 0 .1 0 .22.03.32.07.1.05.2.1.3.18.06.08.12.18.16.28.05.1.07.2.07.3zM67.1 37.15c0 .1-.03.22-.08.32-.07.2-.24.38-.46.45-.2.1-.44.1-.64 0-.22-.07-.4-.24-.46-.45-.1-.2-.1-.44 0-.64.04-.1.1-.2.18-.28.2-.2.5-.3.76-.23s.52.25.62.5c.05.1.07.22.07.33zM64.53 39.68c0 .1-.02.22-.06.32-.05.1-.1.2-.18.27-.28.27-.68.33-1.02.16-.33-.17-.5-.54-.44-.9s.38-.65.75-.7c.37-.02.72.18.87.53.04.1.06.2.06.32zM61.98 37.15c0 .34-.2.65-.53.78-.32.13-.68.06-.93-.18-.16-.16-.25-.38-.25-.6s.1-.44.25-.6c.24-.24.6-.32.93-.2.32.15.53.45.53.8zM61.98 42.2c0 .12-.03.22-.07.33-.12.3-.43.5-.77.5s-.65-.2-.8-.5c-.12-.32-.05-.68.2-.92l.12-.1c.05-.03.1-.05.15-.07.05-.02.1-.04.16-.05.1-.02.22-.02.34 0 .05 0 .1.03.15.05.05.02.1.04.15.08l.13.1c.16.17.25.38.25.6zM67.1 32.1c0 .1-.03.2-.08.3-.07.22-.24.4-.46.46-.2.1-.44.1-.64 0-.22-.07-.4-.24-.46-.45-.14-.3-.07-.67.18-.9.24-.25.6-.33.93-.2.32.14.52.45.52.8zM64.53 34.62c0 .1-.02.22-.06.32-.04.1-.1.2-.18.28-.17.16-.4.25-.62.25s-.44-.1-.6-.25c-.08-.1-.14-.18-.18-.28-.13-.32-.06-.68.18-.92.16-.16.38-.25.6-.25s.45.1.6.25c.17.16.26.37.25.6zM61.98 32.1c0 .1-.03.2-.07.3-.03.1-.1.2-.17.3l-.13.1c-.04.02-.1.05-.15.06-.05.03-.1.06-.15.07-.12.02-.23.02-.34 0-.06 0-.1-.02-.16-.05-.05-.02-.1-.04-.15-.07l-.13-.1c-.07-.08-.14-.17-.18-.27-.08-.2-.08-.44 0-.64.04-.12.1-.2.18-.3l.13-.1c.05-.02.1-.05.15-.07.05-.02.1-.04.16-.05.1-.02.22-.02.34 0 .05 0 .1.03.15.05.05.02.1.05.15.08l.13.1c.08.1.14.18.18.3.05.08.08.2.08.3zM64.53 29.56c0 .1-.02.22-.06.32-.04.1-.1.2-.18.28-.17.16-.4.25-.62.25s-.44-.08-.6-.24c-.08-.08-.14-.18-.18-.28-.13-.3-.06-.68.18-.92s.6-.3.93-.18.54.44.54.78zM61.98 27.03c0 .1-.03.22-.07.32-.03.1-.1.2-.17.28l-.13.1c-.04.03-.1.06-.15.08-.05.04-.1.06-.15.07-.12.03-.23.03-.34 0-.06 0-.1-.02-.16-.05-.05-.02-.1-.04-.15-.07l-.13-.1c-.07-.1-.14-.18-.18-.28-.08-.2-.08-.44 0-.64.04-.1.1-.2.18-.28.04-.04.08-.07.13-.1s.1-.06.15-.08c.05-.02.1-.04.16-.05.1-.02.22-.02.34 0 .05 0 .1.03.15.05.05.02.1.05.15.08.05.03.1.06.13.1.08.08.14.18.18.28.05.1.08.2.08.3zM38.97 29.56c0 .47-.38.84-.85.84-.1 0-.22-.02-.33-.06s-.2-.1-.3-.18c-.23-.24-.3-.6-.17-.92.08-.2.25-.38.46-.46.1-.04.2-.06.32-.06.22 0 .44.1.6.24.08.08.14.18.18.28.04.1.07.2.07.32zM36.4 27.03c0 .47-.37.84-.84.84-.23 0-.45-.08-.6-.24-.25-.24-.32-.6-.2-.92.06-.1.12-.2.2-.27.15-.16.37-.25.6-.25.23 0 .44.1.6.25.08.1.14.18.18.28.05.1.07.22.07.33zM33.86 29.56c0 .4-.3.75-.7.82-.4.08-.8-.13-.95-.5-.14-.38 0-.8.33-1.03.34-.22.8-.17 1.08.1.16.17.25.4.26.6zM31.3 27.03c0 .4-.3.75-.7.82-.4.08-.8-.13-.94-.5-.16-.38-.02-.8.32-1.03.33-.22.78-.17 1.07.1.16.17.24.4.25.6zM28.74 29.56c0 .4-.3.75-.7.82-.4.08-.8-.13-.94-.5-.15-.38-.02-.8.32-1.03.34-.22.8-.17 1.07.1.15.17.24.4.24.6zM26.18 27.03c0 .47-.38.84-.85.84-.1 0-.22-.02-.32-.06-.1-.03-.2-.1-.27-.17-.16-.16-.26-.37-.26-.6 0-.22.1-.44.26-.6.08-.07.17-.13.28-.17.1-.05.22-.07.33-.07.47 0 .86.37.86.83zM23.63 29.56c0 .34-.2.65-.53.78s-.68.06-.93-.18c-.16-.16-.25-.38-.25-.6 0-.22.1-.44.25-.6.25-.24.6-.3.93-.18s.53.44.53.78zM21.07 27.03c0 .4-.3.75-.7.82-.4.08-.8-.13-.94-.5-.15-.38-.02-.8.32-1.03.34-.22.8-.17 1.07.1.16.17.25.4.25.6zM18.5 29.56c0 .22-.08.44-.23.6-.08.08-.18.14-.28.18-.22.08-.46.08-.66 0-.22-.08-.38-.25-.46-.46-.1-.2-.1-.43 0-.64.04-.1.1-.2.18-.28.24-.24.6-.3.93-.18.3.13.52.44.5.78zM15.96 27.03c0 .22-.1.44-.25.6-.07.08-.17.14-.27.18-.2.1-.44.1-.65 0-.1-.03-.2-.1-.28-.17-.2-.2-.3-.5-.25-.77 0-.05.03-.1.05-.15.02-.04.05-.1.08-.14l.1-.13c.08-.07.18-.13.28-.17.1-.05.23-.07.35-.07.23 0 .45.08.6.23l.1.13c.04.05.07.1.1.15l.06.16v.17zM13.4 29.56c0 .34-.2.65-.52.78s-.7.06-.94-.18c-.07-.08-.13-.18-.18-.28-.08-.2-.08-.43 0-.64.05-.1.1-.2.18-.28.17-.15.38-.24.6-.24.12 0 .23.02.33.07.1.03.2.1.28.16.16.16.25.38.25.6zM10.85 27.03c0 .1-.03.22-.07.32-.05.1-.1.2-.18.28-.04.04-.1.07-.13.1-.05.03-.1.06-.15.08-.05.04-.1.06-.16.07-.1.03-.23.03-.34 0-.05 0-.1-.02-.15-.05-.06-.02-.1-.04-.15-.07-.05-.03-.1-.07-.13-.1-.17-.16-.26-.38-.26-.6 0-.23.1-.44.25-.6l.12-.1c.04-.03.1-.06.15-.08.05-.02.1-.04.15-.05.1-.02.23-.02.34 0 .06 0 .1.03.16.05.05.02.1.05.15.08l.13.1c.08.08.14.17.18.28.04.1.06.2.07.3zM8.3 29.56v.17l-.06.15-.08.15-.1.13-.13.1c-.05.03-.1.06-.15.08-.05.02-.1.04-.17.05-.04 0-.1 0-.16 0s-.12 0-.17 0c-.06 0-.1-.02-.16-.05-.04-.02-.1-.04-.14-.07l-.13-.1-.1-.13-.08-.15c-.03-.05-.05-.1-.07-.17-.03-.17 0-.34.05-.5.05-.1.1-.2.18-.27l.14-.1c.05-.03.1-.06.15-.08.04-.02.1-.04.15-.05.06 0 .1 0 .17 0 .05 0 .1 0 .16 0s.1.03.16.05c.06.02.1.05.16.08l.12.1c.17.16.26.37.27.6zM5.73 27.03v.17l-.05.15-.08.15-.1.13-.13.1c-.04.03-.1.06-.15.08-.05.04-.1.06-.17.07-.06 0-.1 0-.17 0-.1 0-.22-.02-.32-.06-.1-.04-.2-.1-.3-.17-.23-.24-.3-.6-.16-.92.04-.1.1-.18.17-.27.1-.07.18-.13.3-.17.1-.05.2-.07.3-.07.07-.02.12-.02.18 0 .05 0 .1.02.15.04.06.02.1.04.16.08l.12.1c.16.16.25.38.25.6zM3.17 29.56v.17l-.05.15-.07.15-.1.13c-.17.16-.4.24-.63.24-.1 0-.22-.02-.32-.06-.1-.05-.2-.1-.28-.18-.24-.24-.32-.6-.18-.92.08-.2.24-.38.46-.46.1-.04.2-.06.32-.06.47 0 .85.37.85.84z"/></g></g></g><rect width="14.836" height="14.836" x="6.182" y="6.182" fill="#96D7FF" rx="2"/><rect width="14.836" height="14.836" x="25.964" y="6.182" fill="#E8CBA9" rx="2"/><rect width="14.836" height="14.836" x="6.182" y="24.727" fill="#B1F1A8" rx="2"/><rect width="14.836" height="14.836" x="25.964" y="24.727" fill="#FF99B1" rx="2"/></g><g fill-rule="nonzero"><path id="Rectangle-path" fill="#fff" d="M69 41h96v93H69z"/><path id="Rectangle-path" fill="#B9CFEF" d="M69 130h96v5H69z"/><path id="Shape" fill="#2866AE" d="M164.6 137H69.4c-.77 0-1.4-.55-1.4-1.23V45.13c0-3.38 3.13-6.12 7-6.12h84c3.87 0 7 2.74 7 6.13v90.65c0 .67-.63 1.22-1.4 1.22zm-94.02-2.58h92.84V45.24c0-2.02-1.9-3.66-4.22-3.66H74.8c-2.33 0-4.22 1.64-4.22 3.66v89.18z"/><path id="Rectangle-path" fill="#97C1FF" d="M77 59h79v22H77z"/><path id="Shape" fill="#97C1FF" d="M155.6 83H77.4c-.77 0-1.4-.62-1.4-1.4V59.4c0-.78.63-1.4 1.4-1.4h78.2c.77 0 1.4.62 1.4 1.4v22.2c0 .78-.63 1.4-1.4 1.4zm-76.8-2.78h75.4V60.78H78.8v19.44z"/><path id="Rectangle-path" fill="#D4EDFF" d="M77 93h20v14H77z"/><path id="Shape" fill="#97C1FF" d="M98.6 109H77.4c-.77 0-1.4-.63-1.4-1.42V93.42c0-.8.63-1.42 1.4-1.42h21.2c.77 0 1.4.63 1.4 1.42v14.16c0 .8-.63 1.42-1.4 1.42zm-19.78-2.83h18.36V94.83H78.82v11.34z"/><path id="Rectangle-path" fill="#D4EDFF" d="M107 93h19v14h-19z"/><path id="Shape" fill="#97C1FF" d="M126.63 109h-19.25c-.76 0-1.38-.63-1.38-1.42V93.42c0-.8.62-1.42 1.38-1.42h19.25c.75 0 1.37.63 1.37 1.42v14.16c0 .8-.62 1.42-1.38 1.42zm-17.88-2.83h16.5V94.83h-16.5v11.34z"/><path fill="#D4EDFF" d="M135 93h20v14h-20z"/><path id="Shape" fill="#97C1FF" d="M156.6 109h-21.2c-.77 0-1.4-.63-1.4-1.42V93.42c0-.8.63-1.42 1.4-1.42h21.2c.77 0 1.4.63 1.4 1.42v14.16c0 .8-.63 1.42-1.4 1.42zm-19.78-2.83h18.36V94.83h-18.36v11.34z"/><g fill="#97C1FF" opacity=".5"><path d="M92.67 52.8H77.4c-.78 0-1.4-.64-1.4-1.4 0-.78.62-1.4 1.4-1.4h15.27c.77 0 1.4.62 1.4 1.4 0 .76-.63 1.4-1.4 1.4zM155.2 52.8h-5.57c-.76 0-1.4-.64-1.4-1.4 0-.78.64-1.4 1.4-1.4h5.56c.76 0 1.38.62 1.38 1.4 0 .76-.62 1.4-1.4 1.4zM144.07 52.8h-5.55c-.77 0-1.4-.64-1.4-1.4 0-.78.63-1.4 1.4-1.4h5.55c.77 0 1.4.62 1.4 1.4 0 .76-.63 1.4-1.4 1.4zM132.96 52.8h-5.56c-.76 0-1.4-.64-1.4-1.4 0-.78.64-1.4 1.4-1.4h5.56c.77 0 1.4.62 1.4 1.4 0 .76-.63 1.4-1.4 1.4zM121.85 52.8h-5.56c-.78 0-1.4-.64-1.4-1.4 0-.78.62-1.4 1.4-1.4h5.55c.76 0 1.4.62 1.4 1.4 0 .76-.64 1.4-1.4 1.4zM112.12 89.02h-.26c-.1 0-.18-.04-.27-.08-.1-.03-.18-.08-.26-.13l-.2-.16c-.13-.13-.23-.3-.3-.46-.07-.17-.1-.36-.1-.55 0-.37.14-.73.4-1 .13-.12.28-.22.45-.28.08-.05.17-.08.26-.1.45-.08.92.06 1.25.4.4.4.53 1 .3 1.5-.2.53-.7.87-1.28.87zM116.3 89.02c-.78 0-1.4-.62-1.4-1.4 0-.17.04-.35.1-.52.08-.17.17-.33.3-.46.26-.27.62-.4 1-.4.36 0 .72.13.98.4.26.26.4.62.4 1 0 .36-.15.7-.4.98-.27.26-.62.4-1 .4zM120.46 89.02c-.67 0-1.23-.48-1.36-1.13-.12-.66.23-1.3.84-1.56.6-.26 1.32-.04 1.68.52.37.55.3 1.3-.18 1.76l-.2.16c-.08.06-.17.1-.25.13l-.27.12h-.27zM98.23 114.1H77.4c-.78 0-1.4-.62-1.4-1.4 0-.76.62-1.38 1.4-1.38h20.83c.77 0 1.4.62 1.4 1.4 0 .76-.63 1.38-1.4 1.38zM110.73 114.1h-4.17c-.76 0-1.4-.62-1.4-1.4.02-.76.64-1.38 1.4-1.38h4.17c.77 0 1.4.62 1.4 1.4 0 .76-.63 1.38-1.4 1.38zM126 114.1h-11.1c-.77 0-1.4-.62-1.4-1.4 0-.76.63-1.38 1.4-1.38H126c.78 0 1.4.62 1.4 1.4 0 .76-.62 1.38-1.4 1.38zM155.2 114.1h-20.85c-.77 0-1.4-.62-1.4-1.4 0-.76.63-1.38 1.4-1.38h20.84c.76 0 1.38.62 1.38 1.4 0 .76-.62 1.38-1.4 1.38zM91.28 119.68h-13.9c-.76 0-1.38-.63-1.38-1.4 0-.76.62-1.4 1.4-1.4h13.88c.77 0 1.4.64 1.4 1.4 0 .77-.63 1.4-1.4 1.4zM98.23 119.68h-2.78c-.77 0-1.4-.63-1.4-1.4 0-.76.63-1.4 1.4-1.4h2.78c.77 0 1.4.64 1.4 1.4 0 .77-.63 1.4-1.4 1.4zM126 119.68h-19.44c-.76 0-1.38-.63-1.38-1.4 0-.76.62-1.4 1.38-1.4H126c.78 0 1.4.64 1.4 1.4 0 .77-.62 1.4-1.4 1.4zM155.2 119.68h-20.85c-.77 0-1.4-.63-1.4-1.4 0-.76.63-1.4 1.4-1.4h20.84c.76 0 1.38.64 1.38 1.4 0 .77-.62 1.4-1.4 1.4zM98.23 125.25H77.4c-.78 0-1.4-.62-1.4-1.4 0-.76.62-1.38 1.4-1.38h20.83c.77 0 1.4.62 1.4 1.4 0 .76-.63 1.38-1.4 1.38zM126 125.25h-19.44c-.76 0-1.38-.62-1.38-1.4 0-.76.62-1.38 1.38-1.38H126c.78 0 1.4.62 1.4 1.4 0 .76-.62 1.38-1.4 1.38zM155.2 125.25h-13.9c-.77 0-1.4-.62-1.4-1.4 0-.76.63-1.38 1.4-1.38h13.9c.76 0 1.38.62 1.38 1.4 0 .76-.62 1.38-1.4 1.38zM137.13 125.25h-2.78c-.77 0-1.4-.62-1.4-1.4 0-.76.63-1.38 1.4-1.38h2.78c.77 0 1.4.62 1.4 1.4 0 .76-.63 1.38-1.4 1.38z"/></g></g><circle cx="195" cy="60" r="18" fill="#EEF6FF" stroke="#2866AE" stroke-width="2.5"/><g><path fill="#E8CBA9" d="M198.14 54l5.93 9.47c.3.47.15 1.08-.32 1.38-.16.1-.34.15-.53.15h-11.86c-.55 0-1-.45-1-1 0-.2.06-.37.16-.53l5.92-9.48c.3-.48.9-.63 1.38-.33.13.08.24.2.32.32z"/><path fill="#B1F1A8" d="M191.85 58.36l3.2 5.1c.3.48.14 1.1-.32 1.4-.16.1-.35.14-.53.14h-6.4c-.55 0-1-.45-1-1 0-.2.06-.37.16-.53l3.2-5.1c.28-.48.9-.62 1.37-.33.13.08.24.2.32.32z"/></g></g></g></g></svg>