<?xml version="1.0" encoding="utf-8"?>
<!-- Generator: Adobe Illustrator 16.0.0, SVG Export Plug-In . SVG Version: 6.00 Build 0)  -->
<!DOCTYPE svg PUBLIC "-//W3C//DTD SVG 1.1//EN" "http://www.w3.org/Graphics/SVG/1.1/DTD/svg11.dtd">
<svg version="1.1" id="Ñëîé_1" xmlns="http://www.w3.org/2000/svg" xmlns:xlink="http://www.w3.org/1999/xlink" x="0px" y="0px"
	 width="396.851px" height="396.851px" viewBox="0 0 396.851 396.851" enable-background="new 0 0 396.851 396.851"
	 xml:space="preserve">
<polygon fill="#E8E8EA" points="0,396.851 0,392.667 172.669,221.997 192.002,242.664 213.336,221.997 254.669,261.33 
	396.85,120.664 396.85,396.851 "/>
<polygon fill="#E95821" points="396.851,124 254.326,265.853 250.709,262.237 396.851,116.885 "/>
<polygon fill="#242D3C" points="396.851,200.25 274.814,321.667 271.197,318.052 396.851,193.135 "/>
<rect x="202.738" y="240.579" transform="matrix(0.7071 0.7071 -0.7071 0.7071 240.5612 -94.4946)" fill="#E95821" width="63.216" height="5.113"/>
<rect x="152.444" y="269.43" transform="matrix(0.7071 0.7071 -0.7071 0.7071 257.2334 -77.0504)" fill="#242D3C" width="138.363" height="5.113"/>
<g>
	<circle fill="#41B9BC" cx="328.888" cy="187.667" r="10.547"/>
	<circle fill="#38A1A4" cx="328.888" cy="187.667" r="6.593"/>
	<circle fill="#FFFFFF" cx="328.888" cy="187.667" r="4.794"/>
</g>
<circle fill="#41B9BC" cx="253.484" cy="262.439" r="10.547"/>
<circle fill="#38A1A4" cx="253.484" cy="262.439" r="6.592"/>
<circle fill="#FFFFFF" cx="253.484" cy="262.439" r="4.795"/>
<g>
	<g>
		<rect x="208.722" y="336.236" fill="#E95821" width="15.771" height="60.453"/>
		<rect x="208.722" y="320.603" fill="#E95821" width="15.771" height="5.172"/>
		<rect x="177.182" y="355.949" fill="#3EB9C5" width="15.771" height="40.74"/>
		<rect x="177.182" y="345.079" fill="#3EB9C5" width="15.771" height="4.09"/>
		<rect x="161.412" y="385.519" fill="#242D3C" width="15.771" height="11.171"/>
		<rect x="192.953" y="371.321" fill="#477384" width="15.769" height="25.368"/>
	</g>
	<g>
		<rect x="303.091" y="376.631" fill="#3EB9C5" width="15.771" height="20.059"/>
		<rect x="366.653" y="379.236" fill="#242D3C" width="15.771" height="17.453"/>
		<rect x="330.93" y="389.583" fill="#477384" width="15.769" height="7.268"/>
	</g>
	<g>
		<rect x="271.843" y="355.7" fill="#E95821" width="15.771" height="40.989"/>
		<rect x="240.304" y="358.382" fill="#3EB9C5" width="15.771" height="38.308"/>
		<rect x="224.533" y="370.313" fill="#242D3C" width="15.771" height="26.377"/>
		<rect x="256.074" y="371.321" fill="#477384" width="15.769" height="25.368"/>
	</g>
</g>
<g>
	<g>
		<rect x="111.225" y="369.214" fill="#E95821" width="15.771" height="27.637"/>
		<rect x="111.225" y="356.913" fill="#E95821" width="15.771" height="5.172"/>
		<rect x="82.352" y="385.594" fill="#3EB9C5" width="15.771" height="11.257"/>
		<rect x="82.352" y="376.89" fill="#3EB9C5" width="15.771" height="4.09"/>
	</g>
</g>
<polygon fill="#E95821" points="214.984,222.657 39.98,396.851 36.364,393.235 211.367,219.043 "/>
<g>
	<g>
		<circle fill="#41B9BC" cx="163.54" cy="269.963" r="10.545"/>
		<circle fill="#38A1A4" cx="163.542" cy="269.963" r="6.593"/>
	</g>
	<circle fill="#FFFFFF" cx="163.542" cy="269.963" r="4.794"/>
</g>
<circle fill="#41B9BC" cx="211.889" cy="222.136" r="10.547"/>
<circle fill="#38A1A4" cx="211.89" cy="222.136" r="6.593"/>
<circle fill="#FFFFFF" cx="211.889" cy="222.136" r="4.794"/>
<polygon fill="#242D3C" points="176.635,222.814 0,396.851 0,389.667 173.019,219.199 "/>
<g>
	<circle fill="#F8B100" cx="76.154" cy="316.815" r="10.547"/>
	<circle fill="#FFFFFF" cx="76.154" cy="316.815" r="4.794"/>
</g>
<g>
	<circle fill="#F8B100" cx="272.103" cy="319.635" r="10.547"/>
	<circle fill="#FFFFFF" cx="272.103" cy="319.635" r="4.794"/>
</g>
<g>
	<circle fill="#F8B100" cx="172.337" cy="223.656" r="10.546"/>
	<circle fill="#FFFFFF" cx="172.338" cy="223.656" r="4.794"/>
</g>
<g>
	<defs>
		<rect id="SVGID_1_" width="396.851" height="396.851"/>
	</defs>
	<clipPath id="SVGID_2_">
		<use xlink:href="#SVGID_1_"  overflow="visible"/>
	</clipPath>
	<g clip-path="url(#SVGID_2_)">
		<circle fill="#41B9BC" cx="396.888" cy="120.334" r="10.547"/>
		<circle fill="#38A1A4" cx="396.888" cy="120.334" r="6.593"/>
		<circle fill="#FFFFFF" cx="396.888" cy="120.334" r="4.794"/>
	</g>
	<g clip-path="url(#SVGID_2_)">
		<g>
			<circle fill="#41B9BC" cx="37.479" cy="396.873" r="10.545"/>
			<circle fill="#38A1A4" cx="37.48" cy="396.873" r="6.593"/>
		</g>
		<circle fill="#FFFFFF" cx="37.48" cy="396.873" r="4.794"/>
	</g>
	<g clip-path="url(#SVGID_2_)">
		<circle fill="#F8B100" cx="396.933" cy="198.333" r="10.547"/>
		<circle fill="#FFFFFF" cx="396.933" cy="198.333" r="4.794"/>
	</g>
</g>
</svg>
